<svg xmlns="http://www.w3.org/2000/svg" xmlns:xlink="http://www.w3.org/1999/xlink" width="810" viewBox="0 0 810 810" height="810" version="1.0"><defs><clipPath id="d"><path d="M 314 1.007812 L 320 1.007812 L 320 7 L 314 7 Z M 314 1.007812"/></clipPath><clipPath id="e"><path d="M 430 779 L 436 779 L 436 784.757812 L 430 784.757812 Z M 430 779"/></clipPath><clipPath id="f"><path d="M 809 778 L 810 778 L 810 780 L 809 780 Z M 809 778"/></clipPath><clipPath id="g"><path d="M 808 551 L 810 551 L 810 557 L 808 557 Z M 808 551"/></clipPath><clipPath id="h"><path d="M 807 252 L 810 252 L 810 259 L 807 259 Z M 807 252"/></clipPath><clipPath id="c"><path d="M0 0H810V786H0z"/></clipPath><filter x="0%" y="0%" width="100%" xmlns:xlink="http://www.w3.org/1999/xlink" xlink:type="simple" xlink:actuate="onLoad" height="100%" id="a" xlink:show="other"><feColorMatrix values="0 0 0 0 1 0 0 0 0 1 0 0 0 0 1 0 0 0 1 0" color-interpolation-filters="sRGB"/></filter><mask id="b"><g filter="url(#a)"><path fill-opacity=".259" d="M-81 -81H891V891H-81z"/></g></mask></defs><path fill="#FFF" d="M-81 -81H891V891H-81z"/><path fill="#FFF" d="M-81 -81H891V891H-81z"/><path fill="#221537" d="M-81 -81H891V891H-81z"/><g mask="url(#b)"><g><g clip-path="url(#c)" transform="translate(0 12)"><path fill="#AAB9C2" d="M 69.007812 54.644531 L 85.625 58.085938 L 68.695312 57.003906 L 65.253906 73.613281 L 66.328125 56.6875 L 49.710938 53.253906 L 66.648438 54.324219 L 70.089844 37.71875 L 69.007812 54.644531"/><path fill="#AAB9C2" d="M 420.164062 67.269531 L 436.789062 70.71875 L 419.851562 69.636719 L 416.410156 86.242188 L 417.492188 69.316406 L 400.875 65.875 L 417.8125 66.957031 L 421.253906 50.34375 L 420.164062 67.269531"/><path fill="#AAB9C2" d="M 189.714844 238.96875 L 197.027344 240.476562 L 189.574219 239.996094 L 188.058594 247.304688 L 188.53125 239.867188 L 181.226562 238.351562 L 188.675781 238.824219 L 190.191406 231.523438 L 189.714844 238.96875"/><path fill="#AAB9C2" d="M 171.757812 117.09375 L 179.070312 118.609375 L 171.617188 118.128906 L 170.101562 125.4375 L 170.582031 117.992188 L 163.269531 116.476562 L 170.71875 116.949219 L 172.226562 109.648438 L 171.757812 117.09375"/><path fill="#AAB9C2" d="M 170.390625 50.359375 L 169.925781 50.441406 C 169.402344 50.558594 169.402344 51.402344 169.925781 51.507812 L 170.390625 51.59375 C 171.429688 51.761719 171.429688 50.191406 170.390625 50.359375"/><path fill="#AAB9C2" d="M 91.789062 159.738281 C 90.457031 159.738281 90.457031 161.800781 91.789062 161.800781 C 93.128906 161.800781 93.128906 159.738281 91.789062 159.738281"/><path fill="#AAB9C2" d="M 205.804688 172.121094 C 204.402344 172.121094 204.402344 174.28125 205.804688 174.28125 C 207.199219 174.28125 207.199219 172.121094 205.804688 172.121094"/><path fill="#AAB9C2" d="M 301.152344 87.476562 C 300.132812 87.476562 300.132812 89.058594 301.152344 89.058594 C 302.179688 89.058594 302.179688 87.476562 301.152344 87.476562"/><path fill="#AAB9C2" d="M 142.925781 115.070312 C 141.859375 115.070312 141.859375 116.707031 142.925781 116.707031 C 143.984375 116.707031 143.984375 115.070312 142.925781 115.070312"/><path fill="#AAB9C2" d="M 211.046875 5.125 C 210.832031 5.367188 210.621094 5.613281 210.398438 5.855469 C 210.117188 6.183594 210.550781 6.617188 210.878906 6.328125 L 211.609375 5.679688 C 212 5.347656 211.386719 4.738281 211.046875 5.125"/><path fill="#AAB9C2" d="M 57.246094 5.886719 C 56.886719 5.917969 56.507812 5.917969 56.203125 6.136719 C 55.851562 6.390625 55.625 6.890625 55.90625 7.300781 L 56.234375 7.796875 C 56.378906 7.980469 56.726562 7.972656 56.878906 7.796875 L 57.023438 7.652344 L 57.246094 7.683594 C 58.402344 7.757812 58.398438 5.796875 57.246094 5.886719"/><path fill="#AAB9C2" d="M 30.152344 131.933594 C 29.855469 132.003906 29.613281 132.039062 29.382812 132.246094 L 29.382812 132.679688 C 29.613281 132.878906 29.855469 132.914062 30.152344 132.992188 C 31.039062 133.203125 31.039062 131.710938 30.152344 131.933594"/><path fill="#AAB9C2" d="M 376.472656 35.191406 C 375.703125 35.191406 375.703125 36.378906 376.472656 36.378906 C 377.234375 36.378906 377.234375 35.191406 376.472656 35.191406"/><path fill="#AAB9C2" d="M 376.472656 98.476562 C 375.390625 98.476562 375.390625 100.152344 376.472656 100.152344 C 377.554688 100.152344 377.554688 98.476562 376.472656 98.476562"/><path fill="#AAB9C2" d="M 222.574219 97.71875 L 222.390625 97.710938 L 222.304688 97.722656 L 221.8125 97.738281 C 220.667969 97.769531 220.667969 99.476562 221.8125 99.507812 L 222.304688 99.527344 L 222.390625 99.535156 L 222.574219 99.535156 C 223.175781 99.550781 223.464844 99.085938 223.449219 98.621094 C 223.464844 98.160156 223.175781 97.695312 222.574219 97.71875"/><path fill="#AAB9C2" d="M 297.007812 34.796875 C 295.726562 34.796875 295.726562 36.777344 297.007812 36.777344 C 298.289062 36.777344 298.289062 34.796875 297.007812 34.796875"/><path fill="#AAB9C2" d="M 247.304688 52.40625 C 247.1875 52.613281 247.035156 52.773438 246.855469 52.910156 C 246 53.59375 246 55.269531 246.855469 55.953125 C 247.035156 56.09375 247.1875 56.257812 247.304688 56.457031 C 248.933594 58.492188 252.203125 56.730469 252.203125 54.433594 C 252.203125 52.132812 248.933594 50.375 247.304688 52.40625"/><path fill="#AAB9C2" d="M 123.710938 23.816406 C 122.867188 23.648438 122.113281 23.550781 121.265625 23.800781 C 120.277344 24.089844 119.253906 24.9375 119.058594 26.003906 L 119.042969 26.125 C 118.78125 26.648438 118.667969 27.226562 118.90625 27.867188 C 119.148438 28.53125 119.566406 28.988281 120.101562 29.277344 C 121.105469 30.136719 122.433594 30.066406 123.710938 29.800781 C 126.667969 29.199219 126.707031 24.402344 123.710938 23.816406"/><path fill="#AAB9C2" d="M 81.640625 126.726562 L 81.472656 126.550781 C 80.726562 125.765625 79.371094 125.765625 78.617188 126.550781 L 78.457031 126.726562 C 77.101562 128.132812 78.054688 130.570312 80.050781 130.570312 C 82.046875 130.570312 82.988281 128.132812 81.640625 126.726562"/><path fill="#AAB9C2" d="M 131.660156 177.496094 C 131.355469 177.136719 130.980469 176.855469 130.515625 176.785156 C 129.785156 176.679688 129.199219 176.65625 128.542969 177.046875 C 126.925781 177.996094 126.84375 180.515625 128.542969 181.453125 L 128.609375 181.492188 C 129.273438 181.855469 130.171875 181.957031 130.882812 181.613281 L 131.085938 181.589844 C 133.039062 181.195312 133.199219 178.394531 131.660156 177.496094"/><path fill="#AAB9C2" d="M 313.089844 209.832031 C 311.75 209.832031 311.75 211.902344 313.089844 211.902344 C 314.425781 211.902344 314.425781 209.832031 313.089844 209.832031"/><path fill="#AAB9C2" d="M 251.441406 182.023438 C 251.160156 182.09375 250.90625 182.132812 250.6875 182.335938 L 250.6875 182.769531 C 250.90625 182.976562 251.160156 183.015625 251.441406 183.082031 C 252.324219 183.296875 252.324219 181.8125 251.441406 182.023438"/><path fill="#AAB9C2" d="M 302.933594 176.816406 L 302.769531 176.640625 C 302.019531 175.867188 300.664062 175.867188 299.917969 176.640625 L 299.75 176.816406 C 298.394531 178.226562 299.347656 180.667969 301.34375 180.667969 C 303.339844 180.667969 304.292969 178.226562 302.933594 176.816406"/><path fill="#AAB9C2" d="M 352.953125 227.585938 C 352.65625 227.234375 352.273438 226.953125 351.800781 226.886719 C 351.078125 226.777344 350.492188 226.75 349.835938 227.144531 C 348.214844 228.097656 348.136719 230.617188 349.835938 231.546875 L 349.914062 231.589844 C 350.566406 231.949219 351.46875 232.046875 352.175781 231.710938 L 352.382812 231.691406 C 354.332031 231.292969 354.492188 228.492188 352.953125 227.585938"/><path fill="#AAB9C2" d="M 36.652344 241.109375 C 36.042969 240.1875 34.832031 239.601562 33.804688 239.601562 C 31.980469 239.601562 30.449219 241.125 30.449219 242.941406 C 30.449219 244.769531 31.980469 246.292969 33.804688 246.292969 C 34.832031 246.292969 36.042969 245.699219 36.652344 244.777344 C 37.550781 243.6875 37.550781 242.203125 36.652344 241.109375"/><path fill="#AAB9C2" d="M 25.171875 71.128906 L 24.753906 71.226562 C 22.808594 71.699219 22.222656 74.257812 23.59375 75.628906 C 24.964844 77 27.527344 76.414062 27.996094 74.464844 L 28.105469 74.054688 C 28.539062 72.265625 26.953125 70.695312 25.171875 71.128906"/><g clip-path="url(#d)"><path fill="#AAB9C2" d="M 317.054688 1.019531 C 316.007812 0.976562 315.1875 1.402344 314.570312 2.246094 C 314.394531 2.5 314.21875 2.863281 314.144531 3.152344 C 313.996094 3.695312 314.164062 3.984375 314.226562 4.453125 C 314.355469 5.589844 315.179688 6.289062 316.34375 6.070312 C 316.921875 5.953125 317 6.054688 317.519531 5.75 C 318.613281 5.109375 317.867188 5.503906 317.664062 5.566406 C 320.175781 4.773438 319.679688 1.113281 317.054688 1.019531"/></g><path fill="#AAB9C2" d="M 364.449219 58.511719 C 363.886719 58.132812 363.238281 57.902344 362.476562 57.964844 C 360.640625 58.09375 359.101562 59.398438 359.101562 61.339844 C 359.101562 63.28125 360.640625 64.574219 362.476562 64.710938 C 363.238281 64.773438 363.886719 64.542969 364.449219 64.15625 C 366.964844 63.082031 366.964844 59.59375 364.449219 58.511719"/><path fill="#AAB9C2" d="M 292.65625 138.886719 C 292.648438 137.445312 291.332031 136.039062 289.777344 136.578125 C 287.851562 137.253906 287.292969 138.808594 287.675781 140.726562 C 288.15625 143.148438 292.027344 143.117188 292.527344 140.726562 C 292.65625 140.074219 292.726562 139.480469 292.65625 138.886719"/><path fill="#AAB9C2" d="M 236.628906 229.640625 C 235.996094 228.277344 233.644531 228.277344 233.019531 229.640625 C 232.78125 230.152344 232.621094 230.640625 232.675781 231.210938 C 232.957031 233.972656 236.691406 233.972656 236.972656 231.210938 C 237.035156 230.640625 236.867188 230.152344 236.628906 229.640625"/><path fill="#AAB9C2" d="M 91.105469 247.375 C 90.777344 247.398438 90.449219 247.421875 90.136719 247.503906 C 88.492188 247.9375 88.492188 250.382812 90.136719 250.816406 C 90.449219 250.898438 90.777344 250.921875 91.105469 250.945312 C 93.40625 251.089844 93.40625 247.230469 91.105469 247.375"/><path fill="#AAB9C2" d="M 53.679688 290.324219 L 44.363281 276.140625 L 55.570312 288.878906 L 69.765625 279.566406 L 57.019531 290.765625 L 66.328125 304.941406 L 55.128906 292.210938 L 40.933594 301.523438 L 53.679688 290.324219"/><path fill="#AAB9C2" d="M 338.117188 331.765625 L 334.011719 325.53125 L 338.949219 331.132812 L 345.195312 327.039062 L 339.589844 331.964844 L 343.679688 338.199219 L 338.75 332.597656 L 332.511719 336.699219 L 338.117188 331.765625"/><path fill="#AAB9C2" d="M 264.582031 430.640625 L 260.484375 424.394531 L 265.414062 430 L 271.652344 425.902344 L 266.054688 430.835938 L 270.152344 437.074219 L 265.222656 431.46875 L 258.976562 435.558594 L 264.582031 430.640625"/><path fill="#AAB9C2" d="M 218.328125 478.78125 L 218.71875 479.054688 C 219.167969 479.34375 219.769531 478.75 219.472656 478.292969 L 219.207031 477.914062 C 218.589844 477.0625 217.484375 478.171875 218.328125 478.78125"/><path fill="#AAB9C2" d="M 351.300781 456.992188 C 352.242188 457.933594 353.714844 456.464844 352.761719 455.523438 C 351.816406 454.578125 350.355469 456.039062 351.300781 456.992188"/><path fill="#AAB9C2" d="M 279.445312 367.664062 C 280.429688 368.648438 281.960938 367.125 280.976562 366.136719 C 279.988281 365.152344 278.457031 366.683594 279.445312 367.664062"/><path fill="#AAB9C2" d="M 152.128906 360.136719 C 152.847656 360.859375 153.964844 359.738281 153.25 359.015625 C 152.527344 358.300781 151.40625 359.417969 152.128906 360.136719"/><path fill="#AAB9C2" d="M 283.539062 452.445312 C 284.285156 453.191406 285.449219 452.035156 284.703125 451.28125 C 283.949219 450.535156 282.792969 451.691406 283.539062 452.445312"/><path fill="#AAB9C2" d="M 157.578125 482.046875 C 157.90625 482.019531 158.226562 482.003906 158.550781 481.980469 C 158.988281 481.949219 158.988281 481.339844 158.550781 481.308594 L 157.578125 481.25 C 157.066406 481.21875 157.066406 482.078125 157.578125 482.046875"/><path fill="#AAB9C2" d="M 266.867188 590.1875 C 267.144531 590.421875 267.417969 590.683594 267.773438 590.75 C 268.210938 590.820312 268.734375 590.628906 268.820312 590.140625 C 268.863281 589.9375 268.917969 589.761719 268.941406 589.554688 C 268.964844 589.320312 268.71875 589.074219 268.484375 589.097656 L 268.269531 589.097656 L 268.140625 588.921875 C 267.371094 588.039062 265.984375 589.441406 266.867188 590.1875"/><path fill="#AAB9C2" d="M 375.214844 520.207031 C 375.464844 520.359375 375.671875 520.511719 375.976562 520.519531 L 376.273438 520.222656 C 376.265625 519.917969 376.113281 519.714844 375.960938 519.460938 C 375.496094 518.6875 374.4375 519.738281 375.214844 520.207031"/><path fill="#AAB9C2" d="M 61.878906 343.878906 C 62.417969 344.429688 63.257812 343.589844 62.722656 343.050781 C 62.175781 342.5 61.335938 343.347656 61.878906 343.878906"/><path fill="#AAB9C2" d="M 106.652344 299.132812 C 107.421875 299.902344 108.605469 298.714844 107.84375 297.953125 C 107.082031 297.183594 105.890625 298.371094 106.652344 299.132812"/><path fill="#AAB9C2" d="M 214.9375 408.421875 L 215.070312 408.566406 L 215.128906 408.605469 L 215.503906 408.949219 C 216.324219 409.730469 217.53125 408.527344 216.746094 407.699219 L 216.410156 407.332031 L 216.363281 407.273438 L 216.226562 407.136719 C 215.816406 406.710938 215.28125 406.824219 214.960938 407.167969 C 214.625 407.476562 214.503906 408.019531 214.9375 408.421875"/><path fill="#AAB9C2" d="M 117.792969 400.3125 C 118.691406 401.21875 120.09375 399.820312 119.1875 398.921875 C 118.289062 398.015625 116.878906 399.414062 117.792969 400.3125"/><path fill="#AAB9C2" d="M 165.394531 422.988281 C 165.621094 422.925781 165.84375 422.917969 166.066406 422.957031 C 167.152344 423.0625 168.335938 421.882812 168.222656 420.792969 C 168.183594 420.574219 168.199219 420.34375 168.257812 420.125 C 168.546875 417.527344 165 416.46875 163.367188 418.097656 C 161.738281 419.722656 162.804688 423.269531 165.394531 422.988281"/><path fill="#AAB9C2" d="M 232.5625 530.539062 C 233.042969 531.25 233.503906 531.859375 234.273438 532.277344 C 235.175781 532.769531 236.507812 532.902344 237.398438 532.277344 L 237.5 532.214844 C 238.046875 532.019531 238.535156 531.699219 238.824219 531.066406 C 239.121094 530.425781 239.152344 529.816406 238.976562 529.230469 C 238.871094 527.914062 237.886719 527.023438 236.796875 526.308594 C 234.273438 524.640625 230.855469 528.011719 232.5625 530.539062"/><path fill="#AAB9C2" d="M 335.125 487.507812 L 335.117188 487.75 C 335.09375 488.824219 336.046875 489.785156 337.136719 489.761719 L 337.378906 489.761719 C 339.332031 489.714844 340.382812 487.324219 338.964844 485.910156 C 337.5625 484.5 335.164062 485.558594 335.125 487.507812"/><path fill="#AAB9C2" d="M 335.671875 416.265625 C 335.636719 416.722656 335.703125 417.195312 335.984375 417.574219 C 336.425781 418.160156 336.824219 418.585938 337.5625 418.777344 C 339.375 419.25 341.21875 417.519531 340.679688 415.664062 L 340.65625 415.578125 C 340.441406 414.855469 339.886719 414.15625 339.140625 413.890625 L 338.980469 413.765625 C 337.320312 412.664062 335.222656 414.527344 335.671875 416.265625"/><path fill="#AAB9C2" d="M 447.867188 438.414062 C 447.652344 439.503906 448.085938 440.765625 448.820312 441.488281 C 450.105469 442.785156 452.253906 442.785156 453.542969 441.488281 C 454.839844 440.203125 454.839844 438.054688 453.542969 436.761719 C 452.8125 436.03125 451.554688 435.605469 450.464844 435.816406 C 449.054688 435.953125 448.003906 437.003906 447.867188 438.414062"/><path fill="#AAB9C2" d="M 335.710938 566.722656 L 336.078125 566.941406 C 337.785156 567.984375 340.007812 566.59375 340.007812 564.652344 C 340.007812 562.714844 337.785156 561.324219 336.078125 562.359375 L 335.710938 562.578125 C 334.140625 563.539062 334.140625 565.761719 335.710938 566.722656"/><path fill="#AAB9C2" d="M 79.714844 410.042969 C 80.429688 410.804688 81.304688 411.085938 82.335938 410.917969 C 82.648438 410.875 83.027344 410.738281 83.285156 410.585938 C 83.765625 410.308594 83.851562 409.984375 84.148438 409.609375 C 84.847656 408.710938 84.773438 407.628906 83.796875 406.96875 C 83.300781 406.640625 83.316406 406.519531 82.730469 406.367188 C 81.511719 406.046875 82.3125 406.296875 82.496094 406.390625 C 80.164062 405.179688 77.921875 408.109375 79.714844 410.042969"/><path fill="#AAB9C2" d="M 86.882812 335.894531 C 87.011719 336.554688 87.308594 337.179688 87.890625 337.675781 C 89.28125 338.878906 91.285156 339.046875 92.664062 337.675781 C 94.035156 336.304688 93.871094 334.292969 92.664062 332.902344 C 92.164062 332.328125 91.546875 332.023438 90.875 331.894531 C 88.339844 330.882812 85.871094 333.351562 86.882812 335.894531"/><path fill="#AAB9C2" d="M 194.519531 329.785156 C 193.492188 330.808594 193.429688 332.742188 194.917969 333.457031 C 196.761719 334.339844 198.253906 333.632812 199.335938 332.011719 C 200.707031 329.960938 197.957031 327.242188 195.90625 328.582031 C 195.34375 328.949219 194.886719 329.320312 194.519531 329.785156"/><path fill="#AAB9C2" d="M 298.347656 305.210938 C 297.824219 306.625 299.484375 308.285156 300.902344 307.761719 C 301.425781 307.5625 301.882812 307.332031 302.25 306.898438 C 304.003906 304.738281 301.375 302.109375 299.210938 303.863281 C 298.777344 304.21875 298.546875 304.683594 298.347656 305.210938"/><path fill="#AAB9C2" d="M 413.796875 395.5 C 414.046875 395.722656 414.292969 395.9375 414.582031 396.09375 C 416.042969 396.957031 417.773438 395.21875 416.917969 393.757812 C 416.75 393.476562 416.539062 393.234375 416.316406 392.980469 C 414.800781 391.253906 412.074219 393.980469 413.796875 395.5"/><path fill="#AAB9C2" d="M 534.402344 56.898438 L 551.777344 60.492188 L 534.074219 59.367188 L 530.476562 76.726562 L 531.605469 59.03125 L 514.234375 55.4375 L 531.941406 56.570312 L 535.535156 39.203125 L 534.402344 56.898438"/><path fill="#AAB9C2" d="M 660.582031 249.574219 L 668.230469 251.160156 L 660.4375 250.664062 L 658.851562 258.300781 L 659.355469 250.519531 L 651.714844 248.933594 L 659.492188 249.429688 L 661.085938 241.792969 L 660.582031 249.574219"/><path fill="#AAB9C2" d="M 641.816406 122.171875 L 649.457031 123.765625 L 641.664062 123.261719 L 640.082031 130.898438 L 640.582031 123.117188 L 632.941406 121.53125 L 640.726562 122.035156 L 642.3125 114.390625 L 641.816406 122.171875"/><path fill="#AAB9C2" d="M 640.386719 52.421875 L 639.898438 52.507812 C 639.339844 52.621094 639.339844 53.511719 639.898438 53.617188 L 640.386719 53.707031 C 641.46875 53.882812 641.46875 52.246094 640.386719 52.421875"/><path fill="#AAB9C2" d="M 558.214844 166.75 C 556.824219 166.75 556.824219 168.921875 558.214844 168.921875 C 559.617188 168.921875 559.617188 166.75 558.214844 166.75"/><path fill="#AAB9C2" d="M 677.40625 179.703125 C 675.941406 179.703125 675.941406 181.964844 677.40625 181.964844 C 678.859375 181.964844 678.859375 179.703125 677.40625 179.703125"/><path fill="#AAB9C2" d="M 611.667969 120.054688 C 610.558594 120.054688 610.558594 121.777344 611.667969 121.777344 C 612.78125 121.777344 612.78125 120.054688 611.667969 120.054688"/><path fill="#AAB9C2" d="M 682.882812 5.125 C 682.660156 5.382812 682.441406 5.644531 682.210938 5.894531 C 681.90625 6.238281 682.363281 6.6875 682.707031 6.390625 L 683.46875 5.710938 C 683.871094 5.351562 683.242188 4.730469 682.882812 5.125"/><path fill="#AAB9C2" d="M 522.105469 5.925781 C 521.730469 5.953125 521.335938 5.960938 521.023438 6.183594 C 520.648438 6.449219 520.40625 6.976562 520.703125 7.402344 L 521.046875 7.925781 C 521.199219 8.109375 521.5625 8.109375 521.714844 7.925781 L 521.875 7.773438 L 522.105469 7.804688 C 523.324219 7.882812 523.316406 5.832031 522.105469 5.925781"/><path fill="#AAB9C2" d="M 493.777344 137.691406 C 493.480469 137.765625 493.214844 137.804688 492.984375 138.015625 L 492.984375 138.464844 C 493.214844 138.6875 493.480469 138.71875 493.777344 138.792969 C 494.707031 139.023438 494.707031 137.460938 493.777344 137.691406"/><path fill="#AAB9C2" d="M 694.933594 101.917969 L 694.738281 101.914062 L 694.652344 101.925781 L 694.136719 101.941406 C 692.9375 101.980469 692.9375 103.761719 694.136719 103.792969 L 694.652344 103.808594 L 694.738281 103.832031 L 694.933594 103.816406 C 695.558594 103.839844 695.863281 103.359375 695.847656 102.871094 C 695.863281 102.382812 695.558594 101.90625 694.933594 101.917969"/><path fill="#AAB9C2" d="M 720.792969 54.5625 C 720.664062 54.765625 720.503906 54.941406 720.320312 55.078125 C 719.429688 55.796875 719.429688 57.554688 720.320312 58.269531 C 720.503906 58.40625 720.664062 58.582031 720.792969 58.789062 C 722.492188 60.910156 725.90625 59.078125 725.90625 56.679688 C 725.90625 54.273438 722.492188 52.4375 720.792969 54.5625"/><path fill="#AAB9C2" d="M 591.585938 24.667969 C 590.710938 24.503906 589.910156 24.394531 589.027344 24.65625 C 588 24.953125 586.925781 25.84375 586.726562 26.960938 L 586.703125 27.082031 C 586.429688 27.632812 586.316406 28.234375 586.566406 28.902344 C 586.816406 29.605469 587.257812 30.074219 587.808594 30.378906 C 588.859375 31.269531 590.246094 31.203125 591.585938 30.9375 C 594.679688 30.296875 594.71875 25.277344 591.585938 24.667969"/><path fill="#AAB9C2" d="M 547.613281 132.246094 L 547.429688 132.0625 C 546.652344 131.25 545.234375 131.25 544.449219 132.0625 L 544.273438 132.246094 C 542.855469 133.714844 543.847656 136.265625 545.933594 136.265625 C 548.03125 136.265625 549.019531 133.714844 547.613281 132.246094"/><path fill="#AAB9C2" d="M 599.898438 185.3125 C 599.570312 184.941406 599.183594 184.652344 598.695312 184.582031 C 597.941406 184.46875 597.324219 184.4375 596.636719 184.851562 C 594.9375 185.847656 594.863281 188.480469 596.636719 189.457031 L 596.714844 189.5 C 597.398438 189.875 598.34375 189.980469 599.074219 189.632812 L 599.296875 189.601562 C 601.339844 189.191406 601.507812 186.265625 599.898438 185.3125"/><path fill="#AAB9C2" d="M 500.582031 251.820312 C 499.933594 250.863281 498.683594 250.238281 497.59375 250.238281 C 495.699219 250.238281 494.097656 251.835938 494.097656 253.738281 C 494.097656 255.644531 495.699219 257.234375 497.59375 257.234375 C 498.683594 257.234375 499.933594 256.617188 500.582031 255.660156 C 501.527344 254.515625 501.527344 252.964844 500.582031 251.820312"/><path fill="#AAB9C2" d="M 488.574219 74.128906 L 488.148438 74.226562 C 486.113281 74.722656 485.496094 77.402344 486.929688 78.835938 C 488.359375 80.265625 491.042969 79.648438 491.539062 77.617188 L 491.636719 77.191406 C 492.101562 75.316406 490.441406 73.671875 488.574219 74.128906"/><path fill="#AAB9C2" d="M 709.625 239.828125 C 708.960938 238.40625 706.507812 238.40625 705.851562 239.828125 C 705.609375 240.371094 705.433594 240.871094 705.488281 241.464844 C 705.785156 244.359375 709.683594 244.359375 709.988281 241.464844 C 710.042969 240.871094 709.867188 240.371094 709.625 239.828125"/><path fill="#AAB9C2" d="M 557.492188 258.367188 C 557.15625 258.398438 556.816406 258.414062 556.488281 258.507812 C 554.773438 258.957031 554.773438 261.511719 556.488281 261.96875 C 556.816406 262.054688 557.15625 262.078125 557.492188 262.101562 C 559.902344 262.25 559.902344 258.222656 557.492188 258.367188"/><path fill="#AAB9C2" d="M 518.378906 303.261719 L 508.632812 288.445312 L 520.359375 301.753906 L 535.183594 292.023438 L 521.867188 303.730469 L 531.605469 318.546875 L 519.886719 305.238281 L 505.054688 314.96875 L 518.378906 303.261719"/><path fill="#AAB9C2" d="M 297.375 101.683594 L 287.636719 86.859375 L 299.355469 100.167969 L 314.179688 90.4375 L 300.863281 102.148438 L 310.601562 116.964844 L 298.882812 103.65625 L 284.054688 113.394531 L 297.375 101.683594"/><path fill="#AAB9C2" d="M 160.851562 477.5625 L 151.109375 462.738281 L 162.828125 476.046875 L 177.660156 466.316406 L 164.335938 478.027344 L 174.070312 492.851562 L 162.355469 479.535156 L 147.527344 489.273438 L 160.851562 477.5625"/><path fill="#AAB9C2" d="M 151.742188 705.339844 L 141.996094 690.523438 L 153.722656 703.832031 L 168.546875 694.101562 L 155.230469 705.8125 L 164.96875 720.628906 L 153.25 707.320312 L 138.417969 717.050781 L 151.742188 705.339844"/><path fill="#AAB9C2" d="M 666.488281 596.492188 L 656.742188 581.667969 L 668.46875 594.976562 L 683.292969 585.246094 L 669.976562 596.957031 L 679.714844 611.78125 L 667.996094 598.464844 L 653.160156 608.203125 L 666.488281 596.492188"/><path fill="#AAB9C2" d="M 642.578125 311.582031 L 632.835938 296.757812 L 644.558594 310.066406 L 659.386719 300.335938 L 646.070312 312.046875 L 655.804688 326.871094 L 644.085938 313.554688 L 629.253906 323.292969 L 642.578125 311.582031"/><path fill="#AAB9C2" d="M 257.238281 275.910156 L 247.5 261.085938 L 259.21875 274.394531 L 274.046875 264.664062 L 260.726562 276.375 L 270.464844 291.199219 L 258.746094 277.882812 L 243.914062 287.621094 L 257.238281 275.910156"/><path fill="#AAB9C2" d="M 690.5 500.277344 L 690.90625 500.558594 C 691.378906 500.863281 692.003906 500.238281 691.695312 499.765625 L 691.40625 499.363281 C 690.769531 498.480469 689.609375 499.636719 690.5 500.277344"/><path fill="#AAB9C2" d="M 621.292969 376.246094 C 622.046875 377 623.21875 375.828125 622.464844 375.074219 C 621.710938 374.320312 620.539062 375.492188 621.292969 376.246094"/><path fill="#AAB9C2" d="M 626.984375 503.679688 C 627.328125 503.664062 627.667969 503.632812 628.011719 503.617188 C 628.460938 503.585938 628.460938 502.949219 628.003906 502.917969 L 626.984375 502.855469 C 626.449219 502.820312 626.449219 503.71875 626.984375 503.679688"/><path fill="#AAB9C2" d="M 526.949219 359.261719 C 527.511719 359.824219 528.390625 358.949219 527.824219 358.382812 C 527.261719 357.8125 526.386719 358.695312 526.949219 359.261719"/><path fill="#AAB9C2" d="M 573.757812 312.480469 C 574.558594 313.28125 575.800781 312.039062 575 311.238281 C 574.199219 310.441406 572.960938 311.679688 573.757812 312.480469"/><path fill="#AAB9C2" d="M 686.949219 426.71875 L 687.085938 426.863281 L 687.15625 426.917969 L 687.539062 427.265625 C 688.40625 428.089844 689.664062 426.832031 688.847656 425.964844 L 688.488281 425.582031 L 688.445312 425.523438 L 688.300781 425.378906 C 687.871094 424.921875 687.308594 425.050781 686.980469 425.410156 C 686.625 425.734375 686.5 426.292969 686.949219 426.71875"/><path fill="#AAB9C2" d="M 585.394531 418.25 C 586.335938 419.195312 587.800781 417.726562 586.863281 416.78125 C 585.910156 415.839844 584.449219 417.300781 585.394531 418.25"/><path fill="#AAB9C2" d="M 635.160156 441.945312 C 635.394531 441.886719 635.632812 441.871094 635.859375 441.90625 C 637.003906 442.03125 638.238281 440.796875 638.113281 439.652344 C 638.085938 439.417969 638.089844 439.191406 638.152344 438.953125 C 638.457031 436.242188 634.738281 435.140625 633.039062 436.835938 C 631.339844 438.535156 632.453125 442.242188 635.160156 441.945312"/><path fill="#AAB9C2" d="M 705.371094 554.378906 C 705.867188 555.125 706.355469 555.75 707.164062 556.199219 C 708.109375 556.71875 709.503906 556.847656 710.433594 556.199219 L 710.53125 556.128906 C 711.117188 555.925781 711.621094 555.582031 711.925781 554.933594 C 712.230469 554.265625 712.261719 553.617188 712.078125 553.007812 C 711.96875 551.632812 710.941406 550.703125 709.800781 549.957031 C 707.164062 548.210938 703.589844 551.738281 705.371094 554.378906"/><path fill="#AAB9C2" d="M 545.601562 428.410156 C 546.339844 429.214844 547.261719 429.503906 548.335938 429.335938 C 548.664062 429.285156 549.050781 429.132812 549.324219 428.980469 C 549.828125 428.699219 549.921875 428.347656 550.230469 427.960938 C 550.964844 427.023438 550.878906 425.894531 549.859375 425.203125 C 549.339844 424.851562 549.355469 424.730469 548.753906 424.570312 C 547.464844 424.234375 548.304688 424.496094 548.511719 424.59375 C 546.066406 423.332031 543.726562 426.398438 545.601562 428.410156"/><path fill="#AAB9C2" d="M 553.082031 350.898438 C 553.226562 351.59375 553.539062 352.238281 554.140625 352.765625 C 555.597656 354.019531 557.699219 354.195312 559.132812 352.765625 C 560.5625 351.332031 560.394531 349.230469 559.132812 347.777344 C 558.605469 347.175781 557.957031 346.863281 557.257812 346.726562 C 554.605469 345.660156 552.023438 348.242188 553.082031 350.898438"/><path fill="#AAB9C2" d="M 665.601562 344.519531 C 664.535156 345.585938 664.476562 347.601562 666.023438 348.347656 C 667.949219 349.277344 669.511719 348.539062 670.648438 346.839844 C 672.078125 344.695312 669.199219 341.863281 667.058594 343.261719 C 666.472656 343.644531 665.984375 344.03125 665.601562 344.519531"/><path fill="#AAB9C2" d="M 657.152344 731.003906 L 640.53125 727.5625 L 657.464844 728.644531 L 660.910156 712.039062 L 659.828125 728.964844 L 676.445312 732.40625 L 659.507812 731.324219 L 656.0625 747.929688 L 657.152344 731.003906"/><path fill="#AAB9C2" d="M 536.441406 546.691406 L 529.128906 545.175781 L 536.585938 545.652344 L 538.101562 538.34375 L 537.625 545.792969 L 544.9375 547.296875 L 537.480469 546.828125 L 535.96875 554.136719 L 536.441406 546.691406"/><path fill="#AAB9C2" d="M 554.398438 668.554688 L 547.085938 667.050781 L 554.542969 667.519531 L 556.0625 660.21875 L 555.582031 667.65625 L 562.894531 669.179688 L 555.4375 668.703125 L 553.925781 676.011719 L 554.398438 668.554688"/><path fill="#AAB9C2" d="M 555.761719 735.292969 L 556.234375 735.207031 C 556.753906 735.09375 556.761719 734.257812 556.234375 734.140625 L 555.761719 734.058594 C 554.734375 733.890625 554.734375 735.460938 555.761719 735.292969"/><path fill="#AAB9C2" d="M 634.367188 625.917969 C 635.707031 625.917969 635.707031 623.839844 634.367188 623.847656 C 633.03125 623.839844 633.03125 625.917969 634.367188 625.917969"/><path fill="#AAB9C2" d="M 520.359375 613.53125 C 521.753906 613.53125 521.753906 611.367188 520.359375 611.367188 C 518.957031 611.367188 518.957031 613.53125 520.359375 613.53125"/><path fill="#AAB9C2" d="M 425.003906 698.183594 C 426.023438 698.183594 426.023438 696.589844 425.003906 696.589844 C 423.980469 696.589844 423.980469 698.183594 425.003906 698.183594"/><path fill="#AAB9C2" d="M 583.238281 670.589844 C 584.296875 670.589844 584.296875 668.945312 583.238281 668.945312 C 582.179688 668.945312 582.179688 670.589844 583.238281 670.589844"/><path fill="#AAB9C2" d="M 538.53125 780.535156 C 538.742188 780.289062 538.949219 780.039062 539.171875 779.792969 C 539.460938 779.476562 539.023438 779.035156 538.699219 779.324219 L 537.964844 779.96875 C 537.578125 780.304688 538.1875 780.914062 538.53125 780.535156"/><path fill="#AAB9C2" d="M 692.328125 779.765625 C 692.6875 779.734375 693.070312 779.734375 693.367188 779.519531 C 693.722656 779.261719 693.953125 778.757812 693.671875 778.355469 L 693.34375 777.851562 C 693.199219 777.671875 692.847656 777.679688 692.695312 777.851562 L 692.542969 778.003906 L 692.328125 777.96875 C 691.164062 777.890625 691.171875 779.855469 692.328125 779.765625"/><path fill="#AAB9C2" d="M 696.007812 653.71875 C 696.300781 653.648438 696.542969 653.609375 696.769531 653.40625 L 696.769531 652.980469 C 696.542969 652.773438 696.300781 652.734375 696.007812 652.667969 C 695.125 652.445312 695.125 653.9375 696.007812 653.71875"/><path fill="#AAB9C2" d="M 349.683594 750.457031 C 350.453125 750.457031 350.453125 749.269531 349.683594 749.269531 C 348.921875 749.269531 348.921875 750.457031 349.683594 750.457031"/><path fill="#AAB9C2" d="M 349.683594 687.171875 C 350.773438 687.171875 350.773438 685.503906 349.683594 685.503906 C 348.609375 685.503906 348.609375 687.171875 349.683594 687.171875"/><path fill="#AAB9C2" d="M 503.582031 687.933594 L 503.773438 687.941406 L 503.847656 687.925781 L 504.34375 687.910156 C 505.488281 687.878906 505.488281 686.175781 504.34375 686.144531 L 503.847656 686.128906 L 503.773438 686.113281 L 503.582031 686.121094 C 502.988281 686.097656 502.699219 686.5625 502.707031 687.027344 C 502.699219 687.492188 502.988281 687.957031 503.582031 687.933594"/><path fill="#AAB9C2" d="M 429.148438 750.855469 C 430.425781 750.855469 430.425781 748.875 429.148438 748.875 C 427.867188 748.875 427.867188 750.855469 429.148438 750.855469"/><path fill="#AAB9C2" d="M 478.851562 733.242188 C 478.964844 733.046875 479.117188 732.878906 479.300781 732.742188 C 480.15625 732.054688 480.15625 730.386719 479.300781 729.695312 C 479.117188 729.558594 478.964844 729.390625 478.851562 729.199219 C 477.222656 727.160156 473.960938 728.925781 473.960938 731.21875 C 473.960938 733.519531 477.222656 735.277344 478.851562 733.242188"/><path fill="#AAB9C2" d="M 602.445312 761.839844 C 603.289062 762 604.042969 762.101562 604.898438 761.855469 C 605.878906 761.566406 606.90625 760.714844 607.097656 759.648438 L 607.121094 759.535156 C 607.371094 759 607.496094 758.421875 607.257812 757.78125 C 607.015625 757.121094 606.589844 756.664062 606.0625 756.375 C 605.058594 755.515625 603.722656 755.582031 602.445312 755.847656 C 599.488281 756.457031 599.457031 761.253906 602.445312 761.839844"/><path fill="#AAB9C2" d="M 644.515625 658.925781 L 644.683594 659.109375 C 645.4375 659.882812 646.785156 659.882812 647.539062 659.109375 L 647.707031 658.925781 C 649.054688 657.515625 648.109375 655.082031 646.113281 655.082031 C 644.109375 655.082031 643.171875 657.515625 644.515625 658.925781"/><path fill="#AAB9C2" d="M 594.496094 608.164062 C 594.800781 608.515625 595.183594 608.796875 595.648438 608.863281 C 596.371094 608.972656 596.957031 608.992188 597.613281 608.605469 C 599.234375 607.652344 599.3125 605.132812 597.613281 604.195312 L 597.542969 604.160156 C 596.882812 603.800781 595.992188 603.703125 595.273438 604.035156 L 595.078125 604.066406 C 593.125 604.457031 592.957031 607.257812 594.496094 608.164062"/><path fill="#AAB9C2" d="M 689.511719 544.542969 C 690.121094 545.464844 691.324219 546.050781 692.359375 546.058594 C 694.179688 546.058594 695.703125 544.535156 695.703125 542.707031 C 695.703125 540.886719 694.179688 539.359375 692.359375 539.359375 C 691.324219 539.359375 690.121094 539.953125 689.511719 540.871094 C 688.605469 541.960938 688.605469 543.453125 689.511719 544.542969"/><path fill="#AAB9C2" d="M 700.984375 714.519531 L 701.402344 714.429688 C 703.347656 713.949219 703.933594 711.390625 702.5625 710.023438 C 701.199219 708.652344 698.628906 709.246094 698.15625 711.1875 L 698.058594 711.597656 C 697.625 713.386719 699.203125 714.957031 700.984375 714.519531"/><g clip-path="url(#e)"><path fill="#AAB9C2" d="M 432.53125 784.628906 C 433.566406 784.675781 434.382812 784.25 435 783.402344 C 435.183594 783.152344 435.355469 782.785156 435.433594 782.496094 C 435.578125 781.957031 435.410156 781.667969 435.347656 781.195312 C 435.210938 780.070312 434.398438 779.359375 433.230469 779.582031 C 432.652344 779.695312 432.570312 779.605469 432.058594 779.902344 C 430.960938 780.546875 431.707031 780.152344 431.914062 780.089844 C 429.390625 780.875 429.886719 784.539062 432.53125 784.628906"/></g><path fill="#AAB9C2" d="M 361.707031 727.136719 C 362.269531 727.519531 362.917969 727.746094 363.6875 727.6875 C 365.523438 727.554688 367.0625 726.253906 367.0625 724.320312 C 367.0625 722.378906 365.515625 721.078125 363.6875 720.941406 C 362.925781 720.886719 362.269531 721.105469 361.707031 721.496094 C 359.191406 722.570312 359.191406 726.054688 361.707031 727.136719"/><path fill="#AAB9C2" d="M 433.503906 646.765625 C 433.503906 648.203125 434.832031 649.621094 436.378906 649.074219 C 438.3125 648.394531 438.863281 646.84375 438.488281 644.921875 C 438.007812 642.503906 434.128906 642.539062 433.636719 644.921875 C 433.496094 645.578125 433.4375 646.171875 433.503906 646.765625"/><path fill="#AAB9C2" d="M 489.535156 556.007812 C 490.167969 557.371094 492.511719 557.378906 493.136719 556.007812 C 493.375 555.5 493.542969 555.011719 493.488281 554.449219 C 493.199219 551.683594 489.472656 551.683594 489.191406 554.449219 C 489.128906 555.011719 489.296875 555.5 489.535156 556.007812"/><path fill="#AAB9C2" d="M 635.058594 538.277344 C 635.386719 538.253906 635.714844 538.230469 636.027344 538.148438 C 637.671875 537.71875 637.671875 535.269531 636.027344 534.84375 C 635.714844 534.75 635.386719 534.726562 635.058594 534.714844 C 632.757812 534.5625 632.757812 538.421875 635.058594 538.277344"/><path fill="#AAB9C2" d="M 672.476562 495.335938 L 681.800781 509.511719 L 670.585938 496.78125 L 656.398438 506.085938 L 669.136719 494.886719 L 659.828125 480.707031 L 671.035156 493.4375 L 685.222656 484.125 L 672.476562 495.335938"/><path fill="#AAB9C2" d="M 388.035156 453.882812 L 392.144531 460.121094 L 387.214844 454.523438 L 380.964844 458.613281 L 386.574219 453.6875 L 382.476562 447.449219 L 387.40625 453.054688 L 393.644531 448.949219 L 388.035156 453.882812"/><path fill="#AAB9C2" d="M 461.574219 355.019531 L 465.671875 361.253906 L 460.742188 355.652344 L 454.503906 359.746094 L 460.109375 354.820312 L 456.003906 348.585938 L 460.941406 354.179688 L 467.179688 350.09375 L 461.574219 355.019531"/><path fill="#AAB9C2" d="M 446.707031 417.984375 C 445.726562 417.003906 444.195312 418.535156 445.183594 419.515625 C 446.167969 420.503906 447.699219 418.976562 446.707031 417.984375"/><path fill="#AAB9C2" d="M 574.035156 425.515625 C 573.308594 424.792969 572.191406 425.910156 572.914062 426.632812 C 573.636719 427.359375 574.757812 426.238281 574.035156 425.515625"/><path fill="#AAB9C2" d="M 664.277344 441.769531 C 663.742188 441.230469 662.898438 442.066406 663.4375 442.609375 C 663.980469 443.148438 664.824219 442.304688 664.277344 441.769531"/><path fill="#AAB9C2" d="M 619.503906 486.515625 C 618.738281 485.75 617.550781 486.9375 618.320312 487.699219 C 619.082031 488.464844 620.269531 487.277344 619.503906 486.515625"/><path fill="#AAB9C2" d="M 511.222656 377.226562 L 511.085938 377.089844 L 511.027344 377.046875 L 510.660156 376.703125 C 509.832031 375.925781 508.625 377.128906 509.410156 377.960938 L 509.753906 378.316406 L 509.792969 378.378906 L 509.9375 378.515625 C 510.339844 378.949219 510.882812 378.828125 511.195312 378.484375 C 511.535156 378.171875 511.652344 377.640625 511.222656 377.226562"/><path fill="#AAB9C2" d="M 608.371094 385.335938 C 607.464844 384.429688 606.070312 385.832031 606.96875 386.738281 C 607.875 387.636719 609.277344 386.242188 608.371094 385.335938"/><path fill="#AAB9C2" d="M 560.769531 362.671875 C 560.539062 362.722656 560.320312 362.738281 560.089844 362.703125 C 559 362.585938 557.820312 363.765625 557.933594 364.855469 C 557.972656 365.085938 557.957031 365.304688 557.898438 365.535156 C 557.613281 368.121094 561.164062 369.179688 562.789062 367.558594 C 564.417969 365.929688 563.359375 362.382812 560.769531 362.671875"/><path fill="#AAB9C2" d="M 390.484375 369.394531 C 390.519531 368.929688 390.460938 368.457031 390.171875 368.078125 C 389.734375 367.496094 389.332031 367.0625 388.601562 366.875 C 386.78125 366.410156 384.945312 368.128906 385.484375 369.988281 L 385.507812 370.070312 C 385.714844 370.792969 386.277344 371.496094 387.015625 371.761719 L 387.183594 371.882812 C 388.84375 372.988281 390.941406 371.121094 390.484375 369.394531"/><path fill="#AAB9C2" d="M 371.289062 253.046875 C 371.535156 253.265625 371.777344 253.480469 372.066406 253.640625 C 373.53125 254.5 375.269531 252.765625 374.40625 251.304688 C 374.238281 251.023438 374.035156 250.777344 373.8125 250.527344 C 372.289062 248.796875 369.5625 251.523438 371.289062 253.046875"/><path fill="#AAB9C2" d="M 458.070312 109.367188 C 457.429688 108.40625 456.171875 107.78125 455.089844 107.78125 C 453.183594 107.78125 451.585938 109.382812 451.585938 111.285156 C 451.585938 113.1875 453.183594 114.78125 455.089844 114.78125 C 456.171875 114.78125 457.429688 114.164062 458.070312 113.203125 C 459.011719 112.0625 459.011719 110.507812 458.070312 109.367188"/><path fill="#AAB9C2" d="M 514.988281 115.914062 C 514.644531 115.945312 514.308594 115.960938 513.976562 116.050781 C 512.261719 116.5 512.261719 119.058594 513.976562 119.515625 C 514.308594 119.597656 514.644531 119.621094 514.988281 119.644531 C 517.394531 119.796875 517.394531 115.769531 514.988281 115.914062"/><path fill="#AAB9C2" d="M 475.875 160.804688 L 466.128906 145.988281 L 477.847656 159.296875 L 492.679688 149.566406 L 479.363281 161.277344 L 489.097656 176.09375 L 477.375 162.785156 L 462.546875 172.515625 L 475.875 160.804688"/><path fill="#AAB9C2" d="M 484.4375 216.804688 C 485.007812 217.367188 485.882812 216.492188 485.320312 215.929688 C 484.75 215.359375 483.875 216.242188 484.4375 216.804688"/><path fill="#AAB9C2" d="M 531.246094 170.027344 C 532.046875 170.816406 533.289062 169.582031 532.488281 168.785156 C 531.6875 167.984375 530.453125 169.226562 531.246094 170.027344"/><path fill="#AAB9C2" d="M 510.578125 208.445312 C 510.714844 209.136719 511.027344 209.785156 511.628906 210.308594 C 513.082031 211.566406 515.1875 211.742188 516.617188 210.308594 C 518.058594 208.878906 517.882812 206.777344 516.617188 205.324219 C 516.101562 204.722656 515.453125 204.410156 514.75 204.273438 C 512.101562 203.207031 509.519531 205.789062 510.578125 208.445312"/><path fill="#AAB9C2" d="M 419.066406 212.5625 L 423.167969 218.800781 L 418.238281 213.195312 L 411.996094 217.292969 L 417.597656 212.367188 L 413.5 206.128906 L 418.429688 211.726562 L 424.675781 207.636719 L 419.066406 212.5625"/><path fill="#AAB9C2" d="M 468.710938 234.773438 L 468.574219 234.636719 L 468.515625 234.589844 L 468.15625 234.25 C 467.324219 233.472656 466.121094 234.675781 466.90625 235.503906 L 467.242188 235.863281 L 467.285156 235.921875 L 467.425781 236.058594 C 467.835938 236.496094 468.367188 236.371094 468.679688 236.03125 C 469.023438 235.710938 469.144531 235.183594 468.710938 234.773438"/><path fill="#AAB9C2" d="M 565.859375 242.882812 C 564.960938 241.976562 563.558594 243.378906 564.464844 244.285156 C 565.363281 245.183594 566.765625 243.789062 565.859375 242.882812"/><path fill="#AAB9C2" d="M 518.257812 220.214844 C 518.035156 220.269531 517.816406 220.285156 517.585938 220.246094 C 516.496094 220.132812 515.308594 221.3125 515.429688 222.402344 C 515.460938 222.628906 515.453125 222.851562 515.390625 223.078125 C 515.109375 225.667969 518.652344 226.726562 520.28125 225.105469 C 521.90625 223.476562 520.847656 219.925781 518.257812 220.214844"/><path fill="#AAB9C2" d="M 347.976562 226.9375 C 348.015625 226.472656 347.945312 226.003906 347.664062 225.621094 C 347.230469 225.042969 346.828125 224.609375 346.089844 224.417969 C 344.273438 223.953125 342.429688 225.675781 342.972656 227.53125 L 342.996094 227.617188 C 343.199219 228.339844 343.765625 229.039062 344.503906 229.308594 L 344.671875 229.429688 C 346.332031 230.53125 348.425781 228.667969 347.976562 226.9375"/><path fill="#AAB9C2" d="M 225.789062 747.304688 C 226.039062 747.519531 226.285156 747.734375 226.566406 747.902344 C 228.027344 748.753906 229.765625 747.015625 228.910156 745.554688 C 228.746094 745.273438 228.523438 745.03125 228.308594 744.785156 C 226.792969 743.058594 224.058594 745.785156 225.789062 747.304688"/><path fill="#AAB9C2" d="M 312.566406 603.617188 C 311.925781 602.660156 310.667969 602.042969 309.585938 602.042969 C 307.683594 602.042969 306.089844 603.632812 306.089844 605.535156 C 306.089844 607.449219 307.683594 609.03125 309.585938 609.03125 C 310.667969 609.03125 311.925781 608.421875 312.566406 607.457031 C 313.511719 606.3125 313.511719 604.761719 312.566406 603.617188"/><path fill="#AAB9C2" d="M 369.484375 610.171875 C 369.148438 610.195312 368.800781 610.21875 368.472656 610.304688 C 366.757812 610.753906 366.757812 613.316406 368.472656 613.765625 C 368.800781 613.859375 369.148438 613.875 369.484375 613.898438 C 371.886719 614.050781 371.886719 610.019531 369.484375 610.171875"/><path fill="#AAB9C2" d="M 330.363281 655.066406 L 320.625 640.242188 L 332.351562 653.550781 L 347.167969 643.820312 L 333.851562 655.53125 L 343.589844 670.347656 L 331.871094 657.035156 L 317.046875 666.773438 L 330.363281 655.066406"/><path fill="#AAB9C2" d="M 338.941406 711.058594 C 339.503906 711.621094 340.382812 710.746094 339.816406 710.179688 C 339.253906 709.609375 338.378906 710.492188 338.941406 711.058594"/><path fill="#AAB9C2" d="M 385.75 664.277344 C 386.550781 665.078125 387.785156 663.835938 386.984375 663.035156 C 386.183594 662.238281 384.945312 663.476562 385.75 664.277344"/><path fill="#AAB9C2" d="M 365.074219 702.695312 C 365.210938 703.398438 365.523438 704.042969 366.125 704.5625 C 367.582031 705.828125 369.683594 706 371.125 704.5625 C 372.554688 703.132812 372.378906 701.03125 371.125 699.574219 C 370.597656 698.972656 369.949219 698.660156 369.25 698.523438 C 366.589844 697.464844 364.015625 700.039062 365.074219 702.695312"/><path fill="#AAB9C2" d="M 273.566406 706.816406 L 277.664062 713.050781 L 272.726562 707.457031 L 266.488281 711.542969 L 272.09375 706.617188 L 267.996094 700.382812 L 272.933594 705.984375 L 279.164062 701.890625 L 273.566406 706.816406"/><path fill="#AAB9C2" d="M 323.207031 729.027344 L 323.078125 728.886719 L 323.019531 728.84375 L 322.644531 728.5 C 321.816406 727.722656 320.617188 728.925781 321.394531 729.757812 L 321.738281 730.113281 L 321.785156 730.183594 L 321.929688 730.3125 C 322.332031 730.746094 322.867188 730.625 323.179688 730.289062 C 323.519531 729.96875 323.644531 729.4375 323.207031 729.027344"/><path fill="#AAB9C2" d="M 420.363281 737.132812 C 419.457031 736.226562 418.054688 737.628906 418.960938 738.535156 C 419.867188 739.441406 421.269531 738.039062 420.363281 737.132812"/><path fill="#AAB9C2" d="M 372.753906 714.46875 C 372.523438 714.519531 372.3125 714.535156 372.082031 714.5 C 370.984375 714.382812 369.8125 715.570312 369.917969 716.652344 C 369.964844 716.882812 369.949219 717.109375 369.890625 717.332031 C 369.597656 719.917969 373.15625 720.976562 374.78125 719.355469 C 376.410156 717.726562 375.351562 714.179688 372.753906 714.46875"/><path fill="#AAB9C2" d="M 202.476562 721.191406 C 202.503906 720.726562 202.445312 720.261719 202.164062 719.882812 C 201.71875 719.296875 201.324219 718.859375 200.585938 718.671875 C 198.765625 718.207031 196.929688 719.925781 197.46875 721.785156 L 197.492188 721.867188 C 197.707031 722.59375 198.269531 723.292969 199 723.558594 L 199.167969 723.679688 C 200.828125 724.785156 202.925781 722.917969 202.476562 721.191406"/><path fill="#AAB9C2" d="M 333.921875 625.433594 C 334.164062 625.644531 334.410156 625.859375 334.699219 626.027344 C 336.160156 626.886719 337.898438 625.148438 337.042969 623.6875 C 336.878906 623.398438 336.664062 623.15625 336.441406 622.910156 C 334.925781 621.183594 332.191406 623.910156 333.921875 625.433594"/><path fill="#AAB9C2" d="M 420.699219 481.742188 C 420.058594 480.785156 418.800781 480.167969 417.71875 480.167969 C 415.816406 480.167969 414.214844 481.757812 414.214844 483.667969 C 414.214844 485.574219 415.816406 487.164062 417.71875 487.164062 C 418.800781 487.164062 420.058594 486.546875 420.699219 485.582031 C 421.644531 484.4375 421.644531 482.894531 420.699219 481.742188"/><path fill="#AAB9C2" d="M 477.617188 488.300781 C 477.273438 488.320312 476.933594 488.34375 476.605469 488.429688 C 474.890625 488.878906 474.890625 491.445312 476.605469 491.894531 C 476.933594 491.984375 477.273438 492 477.617188 492.023438 C 480.027344 492.175781 480.027344 488.148438 477.617188 488.300781"/><path fill="#AAB9C2" d="M 438.496094 533.191406 L 428.757812 518.375 L 440.476562 531.683594 L 455.308594 521.953125 L 441.992188 533.65625 L 451.730469 548.480469 L 440.011719 535.167969 L 425.179688 544.898438 L 438.496094 533.191406"/><path fill="#AAB9C2" d="M 447.074219 589.183594 C 447.636719 589.753906 448.515625 588.871094 447.949219 588.308594 C 447.378906 587.742188 446.511719 588.617188 447.074219 589.183594"/><path fill="#AAB9C2" d="M 493.882812 542.402344 C 494.675781 543.203125 495.917969 541.960938 495.117188 541.167969 C 494.320312 540.371094 493.085938 541.601562 493.882812 542.402344"/><path fill="#AAB9C2" d="M 473.207031 580.824219 C 473.34375 581.523438 473.65625 582.171875 474.257812 582.695312 C 475.714844 583.953125 477.816406 584.125 479.257812 582.695312 C 480.6875 581.257812 480.511719 579.15625 479.257812 577.699219 C 478.730469 577.097656 478.082031 576.785156 477.382812 576.648438 C 474.730469 575.589844 472.148438 578.164062 473.207031 580.824219"/><path fill="#AAB9C2" d="M 381.699219 584.949219 L 385.796875 591.175781 L 380.867188 585.582031 L 374.621094 589.675781 L 380.226562 584.742188 L 376.128906 578.507812 L 381.058594 584.113281 L 387.296875 580.015625 L 381.699219 584.949219"/><path fill="#AAB9C2" d="M 431.34375 607.160156 L 431.203125 607.015625 L 431.152344 606.976562 L 430.777344 606.632812 C 429.957031 605.847656 428.75 607.050781 429.535156 607.882812 L 429.871094 608.238281 L 429.917969 608.308594 L 430.054688 608.4375 C 430.464844 608.871094 431 608.75 431.320312 608.414062 C 431.652344 608.09375 431.777344 607.5625 431.34375 607.160156"/><path fill="#AAB9C2" d="M 528.488281 615.261719 C 527.589844 614.363281 526.1875 615.761719 527.09375 616.660156 C 527.992188 617.566406 529.402344 616.164062 528.488281 615.261719"/><path fill="#AAB9C2" d="M 480.886719 592.59375 C 480.664062 592.652344 480.4375 592.660156 480.214844 592.625 C 479.125 592.515625 477.9375 593.699219 478.058594 594.785156 C 478.089844 595.007812 478.082031 595.234375 478.023438 595.457031 C 477.738281 598.042969 481.289062 599.109375 482.914062 597.480469 C 484.542969 595.859375 483.484375 592.304688 480.886719 592.59375"/><path fill="#AAB9C2" d="M 310.609375 599.324219 C 310.644531 598.851562 310.578125 598.386719 310.296875 598.007812 C 309.851562 597.421875 309.457031 596.996094 308.71875 596.804688 C 306.90625 596.332031 305.0625 598.058594 305.601562 599.917969 L 305.625 600 C 305.839844 600.71875 306.402344 601.417969 307.140625 601.683594 L 307.300781 601.804688 C 308.960938 602.910156 311.058594 601.042969 310.609375 599.324219"/><path fill="#AAB9C2" d="M 278.296875 347.238281 C 278.511719 346.15625 278.074219 344.890625 277.34375 344.160156 C 276.050781 342.867188 273.902344 342.867188 272.613281 344.160156 C 271.324219 345.449219 271.324219 347.601562 272.613281 348.890625 C 273.34375 349.621094 274.609375 350.054688 275.699219 349.832031 C 277.109375 349.703125 278.160156 348.652344 278.296875 347.238281"/><path fill="#AAB9C2" d="M 646.441406 375.613281 C 645.726562 374.851562 644.847656 374.570312 643.828125 374.730469 C 643.515625 374.785156 643.128906 374.921875 642.875 375.066406 C 642.390625 375.347656 642.304688 375.675781 642.007812 376.039062 C 641.3125 376.9375 641.390625 378.019531 642.367188 378.683594 C 642.859375 379.019531 642.847656 379.140625 643.425781 379.285156 C 644.652344 379.605469 643.851562 379.359375 643.660156 379.261719 C 645.992188 380.480469 648.238281 377.539062 646.441406 375.613281"/><path fill="#AAB9C2" d="M 639.28125 449.765625 C 639.144531 449.09375 638.847656 448.480469 638.265625 447.976562 C 636.878906 446.773438 634.863281 446.605469 633.488281 447.976562 C 632.125 449.355469 632.292969 451.355469 633.488281 452.75 C 634 453.328125 634.609375 453.625 635.289062 453.753906 C 637.824219 454.769531 640.285156 452.300781 639.28125 449.765625"/><path fill="#AAB9C2" d="M 531.644531 455.863281 C 532.664062 454.84375 532.722656 452.910156 531.238281 452.203125 C 529.402344 451.3125 527.910156 452.027344 526.820312 453.648438 C 525.449219 455.695312 528.207031 458.40625 530.25 457.074219 C 530.8125 456.710938 531.277344 456.328125 531.644531 455.863281"/><path fill="#AAB9C2" d="M 427.8125 480.441406 C 428.332031 479.03125 426.671875 477.375 425.253906 477.890625 C 424.730469 478.089844 424.273438 478.316406 423.914062 478.757812 C 422.152344 480.914062 424.789062 483.546875 426.945312 481.789062 C 427.386719 481.429688 427.617188 480.96875 427.8125 480.441406"/><path fill="#AAB9C2" d="M 312.359375 390.148438 C 312.117188 389.929688 311.871094 389.722656 311.582031 389.554688 C 310.121094 388.695312 308.382812 390.429688 309.234375 391.898438 C 309.410156 392.183594 309.617188 392.425781 309.839844 392.667969 C 311.363281 394.398438 314.082031 391.671875 312.359375 390.148438"/><path fill="#AAB9C2" d="M 65.574219 536.074219 L 57.933594 534.492188 L 65.71875 534.996094 L 67.304688 527.351562 L 66.808594 535.132812 L 74.449219 536.722656 L 66.664062 536.21875 L 65.078125 543.863281 L 65.574219 536.074219"/><path fill="#AAB9C2" d="M 84.347656 663.476562 L 76.703125 661.894531 L 84.492188 662.390625 L 86.074219 654.753906 L 85.582031 662.542969 L 93.222656 664.117188 L 85.429688 663.621094 L 83.851562 671.257812 L 84.347656 663.476562"/><path fill="#AAB9C2" d="M 85.777344 733.234375 L 86.257812 733.144531 C 86.816406 733.03125 86.816406 732.148438 86.257812 732.03125 L 85.777344 731.949219 C 84.6875 731.765625 84.6875 733.410156 85.777344 733.234375"/><path fill="#AAB9C2" d="M 167.9375 618.898438 C 169.332031 618.898438 169.332031 616.738281 167.9375 616.738281 C 166.542969 616.738281 166.542969 618.898438 167.9375 618.898438"/><path fill="#AAB9C2" d="M 48.757812 605.949219 C 50.214844 605.949219 50.214844 603.695312 48.757812 603.695312 C 47.296875 603.695312 47.296875 605.949219 48.757812 605.949219"/><path fill="#AAB9C2" d="M 114.492188 665.59375 C 115.597656 665.59375 115.597656 663.875 114.492188 663.875 C 113.382812 663.882812 113.382812 665.59375 114.492188 665.59375"/><path fill="#AAB9C2" d="M 66.6875 780.527344 C 66.914062 780.265625 67.136719 780.007812 67.363281 779.757812 C 67.660156 779.414062 67.210938 778.964844 66.867188 779.261719 L 66.105469 779.9375 C 65.695312 780.296875 66.335938 780.921875 66.6875 780.527344"/><path fill="#AAB9C2" d="M 227.472656 779.726562 C 227.835938 779.695312 228.242188 779.695312 228.554688 779.46875 C 228.917969 779.207031 229.164062 778.675781 228.875 778.25 L 228.53125 777.722656 C 228.378906 777.542969 228.011719 777.542969 227.851562 777.722656 L 227.691406 777.875 L 227.472656 777.84375 C 226.253906 777.769531 226.261719 779.816406 227.472656 779.726562"/><path fill="#AAB9C2" d="M 232.378906 647.960938 C 232.683594 647.894531 232.941406 647.847656 233.171875 647.632812 L 233.171875 647.183594 C 232.941406 646.972656 232.683594 646.933594 232.378906 646.855469 C 231.457031 646.628906 231.457031 648.191406 232.378906 647.960938"/><path fill="#AAB9C2" d="M 31.21875 683.730469 L 31.417969 683.738281 L 31.503906 683.722656 L 32.019531 683.707031 C 33.214844 683.671875 33.214844 681.894531 32.019531 681.859375 L 31.503906 681.84375 L 31.417969 681.828125 L 31.21875 681.835938 C 30.597656 681.8125 30.296875 682.292969 30.3125 682.777344 C 30.296875 683.265625 30.597656 683.746094 31.21875 683.730469"/><path fill="#AAB9C2" d="M 5.371094 731.089844 C 5.492188 730.882812 5.652344 730.707031 5.84375 730.570312 C 6.734375 729.855469 6.734375 728.105469 5.84375 727.382812 C 5.652344 727.242188 5.492188 727.070312 5.371094 726.863281 C 3.664062 724.738281 0.257812 726.574219 0.257812 728.980469 C 0.257812 731.378906 3.664062 733.222656 5.371094 731.089844"/><path fill="#AAB9C2" d="M 134.570312 760.980469 C 135.453125 761.15625 136.246094 761.253906 137.128906 760.996094 C 138.164062 760.699219 139.238281 759.800781 139.4375 758.695312 L 139.453125 758.574219 C 139.726562 758.019531 139.847656 757.417969 139.597656 756.746094 C 139.339844 756.046875 138.902344 755.574219 138.347656 755.277344 C 137.296875 754.378906 135.910156 754.441406 134.570312 754.722656 C 131.484375 755.363281 131.445312 760.371094 134.570312 760.980469"/><path fill="#AAB9C2" d="M 178.550781 653.40625 L 178.726562 653.585938 C 179.511719 654.410156 180.929688 654.410156 181.714844 653.585938 L 181.882812 653.40625 C 183.296875 651.9375 182.308594 649.386719 180.21875 649.386719 C 178.132812 649.386719 177.132812 651.9375 178.550781 653.40625"/><path fill="#AAB9C2" d="M 126.257812 600.335938 C 126.585938 600.710938 126.980469 601 127.46875 601.074219 C 128.222656 601.183594 128.832031 601.210938 129.523438 600.800781 C 131.214844 599.804688 131.292969 597.167969 129.523438 596.195312 L 129.441406 596.15625 C 128.753906 595.777344 127.820312 595.675781 127.078125 596.027344 L 126.859375 596.050781 C 124.816406 596.460938 124.65625 599.390625 126.257812 600.335938"/><path fill="#AAB9C2" d="M 225.582031 533.828125 C 226.222656 534.796875 227.480469 535.414062 228.5625 535.414062 C 230.464844 535.414062 232.058594 533.820312 232.066406 531.910156 C 232.066406 530.007812 230.464844 528.417969 228.5625 528.417969 C 227.480469 528.417969 226.222656 529.03125 225.574219 530 C 224.636719 531.140625 224.636719 532.6875 225.582031 533.828125"/><path fill="#AAB9C2" d="M 16.539062 545.820312 C 17.195312 547.246094 19.65625 547.246094 20.308594 545.820312 C 20.554688 545.289062 20.722656 544.777344 20.667969 544.183594 C 20.363281 541.300781 16.46875 541.300781 16.171875 544.183594 C 16.121094 544.777344 16.289062 545.28125 16.539062 545.820312"/><path fill="#AAB9C2" d="M 168.664062 527.28125 C 169.003906 527.257812 169.347656 527.234375 169.675781 527.152344 C 171.390625 526.695312 171.390625 524.136719 169.675781 523.679688 C 169.347656 523.597656 169.003906 523.582031 168.664062 523.558594 C 166.253906 523.40625 166.253906 527.433594 168.664062 527.28125"/><path fill="#AAB9C2" d="M 104.863281 409.40625 C 104.109375 408.652344 102.945312 409.824219 103.699219 410.578125 C 104.445312 411.332031 105.617188 410.160156 104.863281 409.40625"/><path fill="#AAB9C2" d="M 199.214844 426.390625 C 198.640625 425.828125 197.765625 426.710938 198.332031 427.273438 C 198.902344 427.835938 199.769531 426.960938 199.214844 426.390625"/><path fill="#AAB9C2" d="M 152.40625 473.171875 C 151.605469 472.378906 150.363281 473.613281 151.164062 474.410156 C 151.960938 475.210938 153.195312 473.96875 152.40625 473.171875"/><path fill="#AAB9C2" d="M 39.203125 358.933594 L 39.074219 358.789062 L 39 358.734375 L 38.617188 358.382812 C 37.75 357.5625 36.5 358.816406 37.316406 359.695312 L 37.664062 360.066406 L 37.71875 360.136719 L 37.863281 360.273438 C 38.289062 360.730469 38.847656 360.601562 39.183594 360.25 C 39.539062 359.914062 39.664062 359.359375 39.203125 358.933594"/><path fill="#AAB9C2" d="M 140.761719 367.40625 C 139.816406 366.453125 138.355469 367.925781 139.300781 368.867188 C 140.253906 369.8125 141.714844 368.351562 140.761719 367.40625"/><path fill="#AAB9C2" d="M 91.003906 343.703125 C 90.769531 343.765625 90.53125 343.78125 90.296875 343.742188 C 89.160156 343.621094 87.917969 344.855469 88.042969 345.996094 C 88.078125 346.234375 88.0625 346.46875 88.003906 346.703125 C 87.707031 349.40625 91.417969 350.519531 93.113281 348.8125 C 94.8125 347.117188 93.710938 343.40625 91.003906 343.703125"/><path fill="#AAB9C2" d="M 180.5625 357.242188 C 179.816406 356.441406 178.902344 356.144531 177.820312 356.3125 C 177.5 356.367188 177.105469 356.519531 176.835938 356.671875 C 176.328125 356.960938 176.234375 357.304688 175.929688 357.691406 C 175.199219 358.628906 175.277344 359.753906 176.304688 360.449219 C 176.816406 360.796875 176.808594 360.917969 177.410156 361.078125 C 178.6875 361.414062 177.851562 361.15625 177.652344 361.058594 C 180.097656 362.320312 182.4375 359.253906 180.5625 357.242188"/><path fill="#AAB9C2" d="M 173.074219 434.75 C 172.9375 434.058594 172.625 433.410156 172.023438 432.886719 C 170.566406 431.628906 168.464844 431.453125 167.03125 432.886719 C 165.59375 434.324219 165.769531 436.425781 167.03125 437.878906 C 167.550781 438.472656 168.199219 438.792969 168.898438 438.929688 C 171.558594 439.988281 174.132812 437.40625 173.074219 434.75"/><path fill="#AAB9C2" d="M 765.1875 545.761719 L 772.5 544.253906 L 765.042969 544.726562 L 763.535156 537.421875 L 764.007812 544.871094 L 756.699219 546.386719 L 764.144531 545.90625 L 765.660156 553.214844 L 765.1875 545.761719"/><path fill="#AAB9C2" d="M 747.230469 667.636719 L 754.542969 666.121094 L 747.085938 666.601562 L 745.578125 659.296875 L 746.050781 666.746094 L 738.742188 668.253906 L 746.1875 667.78125 L 747.703125 675.082031 L 747.230469 667.636719"/><path fill="#AAB9C2" d="M 745.859375 734.371094 L 745.394531 734.285156 C 744.867188 734.171875 744.867188 733.328125 745.394531 733.214844 L 745.859375 733.136719 C 746.894531 732.96875 746.894531 734.539062 745.859375 734.371094"/><path fill="#AAB9C2" d="M 781.269531 612.609375 C 779.875 612.609375 779.875 610.449219 781.269531 610.449219 C 782.664062 610.449219 782.664062 612.609375 781.269531 612.609375"/><path fill="#AAB9C2" d="M 718.394531 669.667969 C 717.335938 669.667969 717.335938 668.023438 718.394531 668.023438 C 719.453125 668.023438 719.453125 669.667969 718.394531 669.667969"/><g clip-path="url(#f)"><path fill="#AAB9C2" d="M 809.933594 779.605469 C 809.71875 779.359375 809.5 779.117188 809.285156 778.875 C 808.996094 778.546875 809.4375 778.113281 809.757812 778.402344 L 810.488281 779.046875 C 810.878906 779.390625 810.273438 779.992188 809.933594 779.605469"/></g><path fill="#AAB9C2" d="M 798.046875 687.011719 L 797.855469 687.019531 L 797.773438 687.003906 L 797.285156 686.988281 C 796.144531 686.953125 796.144531 685.253906 797.285156 685.222656 L 797.773438 685.207031 L 797.855469 685.191406 L 798.046875 685.199219 C 798.648438 685.175781 798.929688 685.640625 798.914062 686.105469 C 798.929688 686.570312 798.648438 687.035156 798.046875 687.011719"/><path fill="#AAB9C2" d="M 707.132812 607.234375 C 706.828125 607.59375 706.445312 607.875 705.980469 607.941406 C 705.257812 608.050781 704.664062 608.074219 704.007812 607.683594 C 702.394531 606.730469 702.308594 604.210938 704.007812 603.277344 L 704.085938 603.238281 C 704.742188 602.871094 705.640625 602.773438 706.347656 603.117188 L 706.5625 603.136719 C 708.511719 603.535156 708.671875 606.335938 707.132812 607.234375"/><g clip-path="url(#g)"><path fill="#AAB9C2" d="M 812.097656 555.085938 C 811.464844 556.457031 809.117188 556.457031 808.492188 555.085938 C 808.257812 554.578125 808.089844 554.089844 808.148438 553.527344 C 808.425781 550.761719 812.15625 550.761719 812.4375 553.527344 C 812.5 554.089844 812.332031 554.578125 812.097656 555.085938"/></g><path fill="#AAB9C2" d="M 793.796875 305.949219 L 794.191406 305.671875 C 794.640625 305.375 795.242188 305.976562 794.9375 306.425781 L 794.679688 306.816406 C 794.0625 307.660156 792.957031 306.558594 793.796875 305.949219"/><path fill="#AAB9C2" d="M 727.597656 424.59375 C 728.320312 423.871094 729.441406 424.988281 728.714844 425.714844 C 727.992188 426.4375 726.878906 425.316406 727.597656 424.59375"/><path fill="#AAB9C2" d="M 733.042969 302.6875 C 733.371094 302.703125 733.691406 302.726562 734.027344 302.75 C 734.453125 302.773438 734.453125 303.398438 734.019531 303.417969 L 733.042969 303.480469 C 732.535156 303.511719 732.535156 302.660156 733.042969 302.6875"/><path fill="#AAB9C2" d="M 790.40625 376.308594 L 790.542969 376.171875 L 790.605469 376.125 L 790.96875 375.78125 C 791.800781 374.996094 792.996094 376.199219 792.21875 377.039062 L 791.875 377.394531 L 791.839844 377.464844 L 791.691406 377.585938 C 791.28125 378.027344 790.757812 377.898438 790.4375 377.5625 C 790.101562 377.242188 789.972656 376.71875 790.40625 376.308594"/><path fill="#AAB9C2" d="M 740.867188 361.742188 C 741.089844 361.804688 741.308594 361.808594 741.539062 361.78125 C 742.621094 361.65625 743.808594 362.847656 743.695312 363.933594 C 743.65625 364.164062 743.664062 364.382812 743.734375 364.613281 C 744.015625 367.195312 740.464844 368.257812 738.84375 366.628906 C 737.210938 365.007812 738.269531 361.460938 740.867188 361.742188"/><g clip-path="url(#h)"><path fill="#AAB9C2" d="M 813.484375 252.765625 C 813.316406 252.667969 813.148438 252.574219 812.964844 252.515625 L 812.875 252.453125 C 811.980469 251.835938 810.648438 251.949219 809.742188 252.453125 C 808.980469 252.871094 808.507812 253.472656 808.027344 254.1875 C 806.320312 256.714844 809.742188 260.089844 812.265625 258.421875 C 812.714844 258.125 813.125 257.796875 813.484375 257.425781 L 813.484375 252.765625"/></g><path fill="#AAB9C2" d="M 769.988281 454.941406 C 768.964844 453.921875 768.90625 451.988281 770.390625 451.28125 C 772.234375 450.390625 773.71875 451.105469 774.808594 452.71875 C 776.179688 454.773438 773.421875 457.484375 771.375 456.144531 C 770.816406 455.78125 770.359375 455.40625 769.988281 454.941406"/><path fill="#AAB9C2" d="M 767.222656 55.976562 L 749.851562 59.570312 L 767.558594 58.445312 L 771.152344 75.804688 L 770.027344 58.109375 L 787.394531 54.507812 L 769.691406 55.644531 L 766.09375 38.285156 L 767.222656 55.976562"/><path fill="#AAB9C2" d="M 743.40625 165.832031 C 744.808594 165.832031 744.808594 168 743.40625 168 C 742.011719 168 742.011719 165.832031 743.40625 165.832031"/><path fill="#AAB9C2" d="M 779.527344 5.003906 C 779.898438 5.035156 780.296875 5.042969 780.609375 5.261719 C 780.980469 5.519531 781.226562 6.0625 780.9375 6.488281 L 780.585938 7 C 780.433594 7.195312 780.066406 7.1875 779.90625 7 L 779.746094 6.847656 L 779.527344 6.882812 C 778.308594 6.96875 778.324219 4.910156 779.527344 5.003906"/><path fill="#AAB9C2" d="M 807.851562 136.769531 C 808.15625 136.835938 808.417969 136.882812 808.644531 137.09375 L 808.644531 137.542969 C 808.417969 137.757812 808.15625 137.796875 807.851562 137.871094 C 806.929688 138.101562 806.929688 136.539062 807.851562 136.769531"/><path fill="#AAB9C2" d="M 710.042969 23.75 C 710.917969 23.574219 711.710938 23.472656 712.601562 23.726562 C 713.632812 24.03125 714.707031 24.921875 714.902344 26.039062 L 714.925781 26.15625 C 715.195312 26.710938 715.316406 27.3125 715.0625 27.988281 C 714.8125 28.675781 714.378906 29.15625 713.820312 29.457031 C 712.769531 30.355469 711.382812 30.28125 710.042969 30.007812 C 706.949219 29.375 706.910156 24.359375 710.042969 23.75"/><path fill="#AAB9C2" d="M 754.027344 131.324219 L 754.203125 131.140625 C 754.980469 130.328125 756.394531 130.328125 757.179688 131.140625 L 757.355469 131.324219 C 758.765625 132.792969 757.78125 135.34375 755.6875 135.34375 C 753.597656 135.34375 752.609375 132.792969 754.027344 131.324219"/><path fill="#AAB9C2" d="M 701.730469 184.394531 C 702.050781 184.019531 702.445312 183.722656 702.933594 183.652344 C 703.6875 183.546875 704.304688 183.523438 704.992188 183.929688 C 706.683594 184.925781 706.765625 187.558594 704.992188 188.535156 L 704.914062 188.582031 C 704.230469 188.953125 703.285156 189.058594 702.546875 188.710938 L 702.332031 188.671875 C 700.292969 188.261719 700.125 185.335938 701.730469 184.394531"/><path fill="#AAB9C2" d="M 801.050781 250.890625 C 801.6875 249.933594 802.953125 249.324219 804.027344 249.316406 C 805.933594 249.316406 807.523438 250.90625 807.53125 252.816406 C 807.53125 254.722656 805.933594 256.3125 804.035156 256.3125 C 802.953125 256.3125 801.6875 255.695312 801.050781 254.738281 C 800.113281 253.59375 800.113281 252.035156 801.050781 250.890625"/><path fill="#AAB9C2" d="M 744.136719 257.449219 C 744.472656 257.46875 744.816406 257.492188 745.144531 257.585938 C 746.855469 258.027344 746.855469 260.59375 745.144531 261.042969 C 744.816406 261.132812 744.472656 261.15625 744.136719 261.179688 C 741.730469 261.332031 741.730469 257.296875 744.136719 257.449219"/><path fill="#AAB9C2" d="M 783.25 302.339844 L 792.988281 287.523438 L 781.269531 300.832031 L 766.445312 291.09375 L 779.761719 302.8125 L 770.027344 317.628906 L 781.742188 304.316406 L 796.570312 314.054688 L 783.25 302.339844"/><path fill="#AAB9C2" d="M 774.679688 358.332031 C 774.117188 358.902344 773.234375 358.019531 773.804688 357.457031 C 774.367188 356.890625 775.246094 357.765625 774.679688 358.332031"/><path fill="#AAB9C2" d="M 727.871094 311.550781 C 727.070312 312.351562 725.835938 311.117188 726.636719 310.316406 C 727.429688 309.519531 728.671875 310.753906 727.871094 311.550781"/><path fill="#AAB9C2" d="M 716.238281 417.332031 C 715.292969 418.265625 713.828125 416.804688 714.773438 415.859375 C 715.71875 414.917969 717.183594 416.386719 716.238281 417.332031"/><path fill="#AAB9C2" d="M 756.03125 427.496094 C 755.285156 428.292969 754.367188 428.574219 753.292969 428.410156 C 752.976562 428.363281 752.578125 428.21875 752.304688 428.066406 C 751.792969 427.769531 751.710938 427.425781 751.398438 427.039062 C 750.667969 426.101562 750.75 424.976562 751.769531 424.273438 C 752.28125 423.933594 752.273438 423.800781 752.882812 423.648438 C 754.164062 423.308594 753.324219 423.574219 753.128906 423.671875 C 755.574219 422.402344 757.902344 425.476562 756.03125 427.496094"/><path fill="#AAB9C2" d="M 748.539062 349.972656 C 748.410156 350.671875 748.097656 351.320312 747.488281 351.84375 C 746.035156 353.101562 743.929688 353.273438 742.5 351.84375 C 741.058594 350.414062 741.234375 348.3125 742.5 346.855469 C 743.015625 346.253906 743.664062 345.9375 744.375 345.804688 C 747.023438 344.746094 749.601562 347.320312 748.539062 349.972656"/><path fill="#AAB9C2" d="M 60.550781 441.132812 C 61.628906 440.066406 61.6875 438.046875 60.140625 437.300781 C 58.214844 436.371094 56.652344 437.109375 55.515625 438.808594 C 54.085938 440.957031 56.964844 443.796875 59.097656 442.386719 C 59.691406 442.015625 60.171875 441.625 60.550781 441.132812"/></g></g></g></svg>