<svg width="316" height="326" viewBox="0 0 316 326" fill="none" xmlns="http://www.w3.org/2000/svg">
<path d="M144.155 103.458C114.204 93.1323 81.8025 93.1323 51.8529 103.458C48.9148 104.472 46.5542 107.926 46.5573 111.026V236.295C46.5573 239.405 48.9148 240.983 51.8544 239.977C81.8025 229.645 114.204 229.645 144.157 239.977C147.099 240.983 149.455 239.405 149.455 236.295V111.026C149.455 107.926 147.099 104.472 144.157 103.458" fill="#A66FBE"/>
<path d="M144.67 102.697C117.671 93.387 88.4499 93.387 61.443 102.697C58.7898 103.614 56.6609 106.722 56.6639 109.52V222.485C56.6639 225.292 58.7868 226.714 61.4445 225.807C88.4499 216.488 117.671 216.488 144.672 225.807C147.33 226.714 149.455 225.292 149.455 222.485V109.52C149.455 106.722 147.33 103.614 144.672 102.697" fill="#FCDFC6"/>
<path d="M247.046 103.458C217.095 93.1323 184.702 93.1323 154.751 103.458C151.808 104.472 149.452 107.926 149.452 111.026V236.295C149.452 239.405 151.808 240.983 154.751 239.977C184.702 229.645 217.095 229.645 247.046 239.977C249.988 240.983 252.343 239.405 252.343 236.295V111.026C252.343 107.926 249.988 104.472 247.046 103.458Z" fill="#8749AA"/>
<path d="M237.456 102.697C210.456 93.387 181.235 93.387 154.228 102.697C151.578 103.614 149.452 106.722 149.452 109.52V222.485C149.452 225.292 151.578 226.714 154.228 225.807C181.235 216.488 210.456 216.488 237.456 225.807C240.113 226.714 242.238 225.292 242.238 222.485V109.52C242.238 106.722 240.113 103.614 237.456 102.697Z" fill="#FAC5AE"/>
<path d="M232.696 212.21C232.562 212.21 232.419 212.185 232.283 212.126C208.781 202.98 182.908 202.98 159.407 212.126C158.797 212.373 158.107 212.054 157.877 211.416C157.646 210.785 157.956 210.073 158.567 209.836C182.608 200.477 209.083 200.477 233.117 209.836C233.736 210.073 234.045 210.785 233.815 211.416C233.632 211.906 233.181 212.21 232.696 212.21Z" fill="#FCDFC6"/>
<path d="M232.696 196.443C232.562 196.443 232.419 196.419 232.283 196.361C208.781 187.214 182.908 187.214 159.407 196.361C158.797 196.606 158.107 196.287 157.877 195.649C157.646 195.02 157.956 194.308 158.567 194.07C182.608 184.71 209.083 184.71 233.117 194.07C233.736 194.308 234.045 195.02 233.815 195.649C233.632 196.141 233.181 196.443 232.696 196.443Z" fill="#FCDFC6"/>
<path d="M232.696 180.677C232.562 180.677 232.419 180.652 232.283 180.595C208.781 171.447 182.908 171.447 159.407 180.595C158.797 180.833 158.107 180.514 157.877 179.883C157.646 179.245 157.956 178.541 158.567 178.305C182.608 168.944 209.083 168.944 233.117 178.305C233.736 178.541 234.045 179.245 233.815 179.883C233.632 180.374 233.181 180.677 232.696 180.677Z" fill="#FCDFC6"/>
<path d="M232.696 164.91C232.562 164.91 232.419 164.887 232.283 164.828C208.781 155.682 182.908 155.682 159.407 164.828C158.797 165.066 158.107 164.747 157.877 164.118C157.646 163.48 157.956 162.775 158.567 162.53C182.608 153.179 209.083 153.179 233.117 162.53C233.736 162.775 234.045 163.48 233.815 164.118C233.632 164.608 233.181 164.91 232.696 164.91Z" fill="#FCDFC6"/>
<path d="M232.696 149.145C232.562 149.145 232.419 149.112 232.283 149.063C208.781 139.916 182.908 139.916 159.407 149.063C158.797 149.3 158.107 148.981 157.877 148.351C157.646 147.712 157.956 147.01 158.567 146.764C182.608 137.404 209.083 137.404 233.117 146.764C233.736 147.01 234.045 147.712 233.815 148.351C233.632 148.841 233.181 149.145 232.696 149.145Z" fill="#FCDFC6"/>
<path d="M232.696 133.379C232.562 133.379 232.419 133.354 232.283 133.297C208.781 124.149 182.908 124.149 159.407 133.297C158.797 133.533 158.107 133.216 157.877 132.577C157.646 131.947 157.956 131.235 158.567 130.997C182.608 121.638 209.083 121.638 233.117 130.997C233.736 131.235 234.045 131.947 233.815 132.577C233.632 133.076 233.181 133.379 232.696 133.379Z" fill="#FCDFC6"/>
<path d="M232.696 117.604C232.562 117.604 232.419 117.579 232.283 117.53C208.781 108.384 182.908 108.384 159.407 117.53C158.797 117.768 158.107 117.449 157.877 116.81C157.646 116.18 157.956 115.469 158.567 115.232C182.608 105.871 209.083 105.871 233.117 115.232C233.736 115.469 234.045 116.18 233.815 116.81C233.632 117.31 233.181 117.604 232.696 117.604Z" fill="#FCDFC6"/>
<path d="M139.911 212.21C139.775 212.21 139.634 212.185 139.498 212.126C115.996 202.98 90.1231 202.98 66.6212 212.126C66.0086 212.373 65.3213 212.054 65.0881 211.416C64.8565 210.785 65.1689 210.073 65.78 209.836C89.8213 200.477 116.298 200.477 140.332 209.836C140.95 210.073 141.26 210.785 141.03 211.416C140.847 211.906 140.394 212.21 139.911 212.21Z" fill="#FAC5AE"/>
<path d="M139.911 196.443C139.775 196.443 139.634 196.419 139.498 196.361C115.996 187.214 90.1231 187.214 66.6212 196.361C66.0086 196.606 65.3213 196.279 65.0881 195.649C64.8565 195.02 65.1689 194.308 65.78 194.07C89.8213 184.71 116.298 184.71 140.332 194.07C140.95 194.308 141.26 195.02 141.03 195.649C140.847 196.141 140.394 196.443 139.911 196.443Z" fill="#FAC5AE"/>
<path d="M139.911 180.677C139.775 180.677 139.634 180.652 139.498 180.595C115.996 171.447 90.1231 171.447 66.6212 180.595C66.0086 180.833 65.3213 180.514 65.0881 179.883C64.8565 179.245 65.1689 178.541 65.78 178.305C89.8213 168.944 116.298 168.944 140.332 178.305C140.95 178.541 141.26 179.245 141.03 179.883C140.847 180.374 140.394 180.677 139.911 180.677Z" fill="#FAC5AE"/>
<path d="M139.911 164.91C139.775 164.91 139.634 164.887 139.498 164.828C115.996 155.682 90.1231 155.682 66.6212 164.828C66.0086 165.066 65.3213 164.747 65.0881 164.118C64.8565 163.48 65.1689 162.775 65.78 162.53C89.8213 153.179 116.298 153.179 140.332 162.53C140.95 162.775 141.26 163.48 141.03 164.118C140.847 164.608 140.394 164.91 139.911 164.91Z" fill="#FAC5AE"/>
<path d="M139.911 149.145C139.775 149.145 139.634 149.112 139.498 149.063C115.996 139.916 90.1231 139.916 66.6212 149.063C66.0086 149.3 65.3213 148.981 65.0881 148.351C64.8565 147.712 65.1689 147.01 65.78 146.764C89.8213 137.404 116.298 137.404 140.332 146.764C140.95 147.01 141.26 147.712 141.03 148.351C140.847 148.841 140.394 149.145 139.911 149.145Z" fill="#FAC5AE"/>
<path d="M139.911 133.379C139.775 133.379 139.634 133.354 139.498 133.297C115.996 124.149 90.1231 124.149 66.6212 133.297C66.0086 133.533 65.3213 133.216 65.0881 132.577C64.8565 131.947 65.1689 131.235 65.78 130.997C89.8213 121.638 116.298 121.638 140.332 130.997C140.95 131.235 141.26 131.947 141.03 132.577C140.847 133.076 140.394 133.379 139.911 133.379Z" fill="#FAC5AE"/>
<path d="M139.911 117.604C139.775 117.604 139.634 117.579 139.498 117.53C115.996 108.384 90.1231 108.384 66.6212 117.53C66.0086 117.768 65.3213 117.449 65.0881 116.81C64.8565 116.18 65.1689 115.469 65.78 115.232C89.8213 105.871 116.298 105.871 140.332 115.232C140.95 115.469 141.26 116.18 141.03 116.81C140.847 117.31 140.394 117.604 139.911 117.604Z" fill="#FAC5AE"/>
<path d="M253.55 90.7112C253.55 90.7112 242.198 88.4033 239.255 70.429C236.313 88.4033 224.963 90.7112 224.963 90.7112C224.963 90.7112 236.313 93.0097 239.255 110.986V110.993V110.986C242.198 93.0097 253.55 90.7112 253.55 90.7112Z" fill="#FAB918"/>
<path d="M269.31 99.3344C269.31 99.3344 263.051 98.0673 261.433 88.158C259.807 98.0673 253.55 99.3344 253.55 99.3344C253.55 99.3344 259.807 100.603 261.433 110.511C263.051 100.603 269.31 99.3344 269.31 99.3344Z" fill="#FAB918"/>
<path d="M262.893 70.429C262.893 70.429 256.634 69.1603 255.008 59.2605V59.2526V59.2605C253.39 69.1603 247.133 70.429 247.133 70.429C247.133 70.429 253.39 71.6977 255.008 81.6054C256.634 71.6977 262.893 70.429 262.893 70.429Z" fill="#FAB918"/>
</svg>
