<svg width="427" height="419" viewBox="0 0 427 419" fill="none" xmlns="http://www.w3.org/2000/svg">
<path d="M123.01 383.157L112.35 378.888C108.538 377.362 106.708 373.088 108.262 369.348L130.098 316.769C131.653 313.027 136.002 311.231 139.814 312.756L150.474 317.026C154.286 318.551 156.117 322.821 154.562 326.563L132.724 379.142C131.171 382.882 126.818 384.683 123.01 383.157Z" fill="#9A5E5F"/>
<path d="M154.562 326.559L140.847 359.586C132.878 355.414 125.352 350.536 118.381 344.985L130.098 316.769C131.649 313.027 136.002 311.226 139.809 312.756L150.47 317.026C154.286 318.547 156.112 322.821 154.562 326.559Z" fill="#845152"/>
<path d="M304.382 383.157L315.039 378.888C318.85 377.362 320.681 373.088 319.126 369.348L297.295 316.769C295.736 313.027 291.387 311.231 287.575 312.756L276.914 317.026C273.103 318.551 271.272 322.821 272.827 326.563L294.665 379.142C296.218 382.882 300.571 384.683 304.382 383.157Z" fill="#9A5E5F"/>
<path d="M309.01 344.977C302.041 350.532 294.511 355.414 286.541 359.578L272.827 326.559C271.276 322.821 273.103 318.543 276.919 317.022L287.579 312.756C291.387 311.226 295.74 313.027 297.291 316.765L309.01 344.977Z" fill="#845152"/>
<path d="M346.234 255.96C328.504 255.96 314.081 241.799 314.081 224.391C314.081 206.984 328.504 192.823 346.234 192.823C363.962 192.823 378.389 206.984 378.389 224.391C378.389 241.799 363.962 255.96 346.234 255.96ZM346.234 203.973C334.766 203.973 325.438 213.132 325.438 224.391C325.438 235.65 334.766 244.81 346.234 244.81C357.7 244.81 367.03 235.65 367.03 224.391C367.03 213.132 357.7 203.973 346.234 203.973Z" fill="#3A363A"/>
<path d="M81.1506 255.96C63.4228 255.96 49 241.799 49 224.391C49 206.984 63.4228 192.823 81.1506 192.823C98.8805 192.823 113.303 206.984 113.303 224.391C113.303 241.799 98.8805 255.96 81.1506 255.96ZM81.1506 203.973C69.6849 203.973 60.3545 213.132 60.3545 224.391C60.3545 235.65 69.6849 244.81 81.1506 244.81C92.6184 244.81 101.947 235.65 101.947 224.391C101.947 213.132 92.6184 203.973 81.1506 203.973Z" fill="#433F43"/>
<path d="M323.239 179.974C333.09 168.452 331.373 156.437 331.373 156.437H96.012C96.012 156.437 94.2946 168.452 104.144 179.974C111.228 188.258 112.158 199.96 106.343 209.146C97.3381 223.377 92.2354 239.611 92.2354 256.847C92.2354 313.116 146.611 358.728 213.692 358.728C280.769 358.728 335.145 313.116 335.145 256.847C335.145 239.609 330.044 223.373 321.037 209.142C315.222 199.956 316.157 188.258 323.239 179.974Z" fill="#554E55"/>
<path d="M335.145 256.851C335.145 313.114 280.769 358.728 213.692 358.728C208.847 358.728 204.07 358.487 199.372 358.027C259.714 352.084 306.518 309.05 306.518 256.851C306.518 239.609 301.413 223.377 292.398 209.142C286.585 199.956 287.526 188.254 294.607 179.978C304.452 168.452 302.737 156.441 302.737 156.441H331.369C331.369 156.441 333.09 168.452 323.239 179.978C316.157 188.254 315.222 199.956 321.037 209.142C330.049 223.377 335.145 239.609 335.145 256.851Z" fill="#433F43"/>
<path d="M331.373 156.437C331.373 167.343 278.687 176.187 213.692 176.187C148.697 176.187 96.012 167.343 96.012 156.437C96.012 145.532 148.697 136.69 213.692 136.69C278.687 136.69 331.373 145.532 331.373 156.437Z" fill="#6E4189"/>
<path d="M331.369 156.437C331.369 159.644 326.824 162.669 318.764 165.344C299.368 158.906 259.603 154.491 213.692 154.491C167.782 154.491 128.021 158.906 108.621 165.344C100.561 162.669 96.0161 159.644 96.0161 156.437C96.0161 145.532 148.701 136.69 213.692 136.69C278.683 136.69 331.369 145.532 331.369 156.437Z" fill="#804EA0"/>
<path d="M219.45 394.438H207.939C203.82 394.438 200.486 391.161 200.486 387.122V330.34C200.486 326.296 203.82 323.019 207.939 323.019H219.45C223.568 323.019 226.906 326.296 226.906 330.34V387.122C226.906 391.161 223.568 394.438 219.45 394.438Z" fill="#B88081"/>
<path d="M329.126 40.2788L264.747 174.239C256.919 174.872 248.608 175.361 239.931 175.698L309.397 31.1394C311.969 25.7948 318.47 23.5014 323.916 26.0272C329.367 28.5449 331.698 34.9261 329.126 40.2788Z" fill="#9A5E5F"/>
<path d="M272.942 157.175L264.743 174.239C256.924 174.876 248.609 175.363 239.935 175.698L249.669 155.427C257.852 155.874 265.655 156.46 272.942 157.175Z" fill="#845152"/>
<path d="M167.158 159.798C166.699 159.798 166.235 159.745 165.77 159.628C154.278 156.795 144.583 149.794 138.467 139.917C132.335 130.014 130.531 118.409 133.395 107.241C137.75 90.2271 155.56 79.9077 173.095 84.24C186.282 87.4952 194.344 100.559 191.063 113.361C189.838 118.15 186.76 122.175 182.404 124.693C178.076 127.193 172.992 127.906 168.093 126.696C160.085 124.719 155.194 116.766 157.187 108.977C157.953 105.988 161.038 104.174 164.077 104.929C167.121 105.677 168.966 108.706 168.2 111.694C167.733 113.523 168.927 115.402 170.865 115.883C172.85 116.372 174.903 116.091 176.645 115.079C178.362 114.091 179.569 112.513 180.051 110.642C181.803 103.802 177.44 96.8083 170.327 95.0524C158.863 92.2276 147.235 98.9078 144.408 109.957C142.293 118.211 143.629 126.791 148.17 134.121C152.729 141.481 159.963 146.7 168.54 148.816C171.579 149.567 173.424 152.596 172.662 155.581C172.012 158.115 169.701 159.798 167.158 159.798Z" fill="#5F377C"/>
<path d="M231.898 113.242C229.639 113.242 227.366 112.967 225.115 112.412C213.979 109.662 207.173 98.6227 209.945 87.8042C212.111 79.3317 220.961 74.1912 229.67 76.3452C236.673 78.0728 240.95 85.0299 239.204 91.8516C238.438 94.8381 235.353 96.6506 232.314 95.8989C229.27 95.1513 227.427 92.1223 228.191 89.1338C228.41 88.273 227.833 87.386 226.898 87.1576C224.264 86.507 221.6 88.0184 220.957 90.524C219.714 95.3796 222.821 100.348 227.887 101.599C232.036 102.626 236.333 102.028 239.984 99.916C243.611 97.8226 246.166 94.4845 247.181 90.52C248.854 83.9893 247.707 77.2423 243.951 71.528C242.248 68.9416 243.005 65.4923 245.639 63.8192C248.277 62.1502 251.79 62.8938 253.489 65.4802C258.894 73.7002 260.61 83.8155 258.198 93.2377C256.434 100.122 252.012 105.907 245.746 109.526C241.49 111.983 236.731 113.238 231.898 113.242Z" fill="#5F377C"/>
<path d="M124.518 79.1902C122.259 79.1902 119.985 78.9114 117.739 78.3597C106.601 75.6076 99.7948 64.5709 102.567 53.7504C104.737 45.2798 113.581 40.1434 122.29 42.2933C129.295 44.021 133.574 50.978 131.826 57.7977C131.064 60.7862 127.977 62.5987 124.936 61.8471C121.892 61.0954 120.047 58.0665 120.813 55.082C121.036 54.2212 120.453 53.3341 119.518 53.1058C116.888 52.4551 114.222 53.9625 113.581 56.4681C112.338 61.3237 115.443 66.2965 120.511 67.5473C124.66 68.5697 128.953 67.9716 132.606 65.8641C136.235 63.7707 138.788 60.4326 139.805 56.4641C141.48 49.9334 140.331 43.1905 136.572 37.4741C134.872 34.8857 135.629 31.4364 138.263 29.7674C140.897 28.0983 144.414 28.8379 146.115 31.4284C151.514 39.6443 153.234 49.7596 150.818 59.1859C149.058 66.0662 144.632 71.8533 138.366 75.4722C134.11 77.9314 129.353 79.1902 124.518 79.1902Z" fill="#5F377C"/>
<path d="M332.872 106.98C332.791 106.98 332.707 106.98 332.627 106.978C329.493 106.845 327.063 104.244 327.197 101.171L327.207 100.949C327.341 97.8711 329.991 95.4807 333.121 95.6161C336.257 95.7474 338.687 98.348 338.553 101.423L338.541 101.644C338.411 104.64 335.897 106.98 332.872 106.98Z" fill="#895EAA"/>
<path d="M332.938 130.795C332.853 130.795 332.765 130.791 332.68 130.789C329.546 130.654 327.12 128.049 327.26 124.972L327.269 124.754C327.411 121.674 330.071 119.296 333.193 119.427C336.329 119.567 338.755 122.171 338.615 125.245L338.607 125.467C338.473 128.46 335.959 130.795 332.938 130.795Z" fill="#895EAA"/>
<path d="M321.404 118.815C321.313 118.815 321.217 118.815 321.122 118.807L320.912 118.801C317.78 118.645 315.364 116.031 315.517 112.957C315.671 109.882 318.346 107.508 321.47 107.661L321.68 107.673C324.812 107.823 327.227 110.439 327.073 113.513C326.925 116.497 324.412 118.815 321.404 118.815Z" fill="#895EAA"/>
<path d="M344.628 118.752C344.531 118.752 344.436 118.748 344.34 118.744L344.134 118.732C340.999 118.583 338.584 115.966 338.74 112.893C338.893 109.815 341.566 107.447 344.688 107.596L344.9 107.609C348.034 107.758 350.445 110.375 350.293 113.448C350.142 116.433 347.632 118.752 344.628 118.752Z" fill="#895EAA"/>
<path d="M197.799 43.8028C197.715 43.8028 197.63 43.8008 197.544 43.7968C194.412 43.6614 191.986 41.0568 192.124 37.9813L192.134 37.7611C192.272 34.6837 194.929 32.3033 198.057 32.4387C201.191 32.5741 203.619 35.1787 203.481 38.2521L203.468 38.4744C203.334 41.467 200.82 43.8028 197.799 43.8028Z" fill="#895EAA"/>
<path d="M197.865 67.6141C197.777 67.6141 197.692 67.6121 197.608 67.608C194.474 67.4726 192.046 64.868 192.188 61.7946L192.196 61.5724C192.334 58.4949 194.999 56.1146 198.12 56.25C201.253 56.3854 203.678 58.99 203.54 62.0634L203.53 62.2857C203.396 65.2782 200.884 67.6141 197.865 67.6141Z" fill="#895EAA"/>
<path d="M186.331 55.6377C186.241 55.6377 186.152 55.6336 186.06 55.6296L185.85 55.6195C182.715 55.472 180.3 52.8654 180.444 49.7859C180.594 46.7125 183.259 44.3302 186.385 44.4797L186.595 44.4918C189.731 44.6373 192.151 47.25 192 50.3234C191.854 53.3119 189.344 55.6377 186.331 55.6377Z" fill="#895EAA"/>
<path d="M209.551 55.5711C209.459 55.5711 209.364 55.5711 209.267 55.563L209.057 55.5509C205.927 55.4014 203.512 52.7846 203.668 49.7112C203.82 46.6338 206.495 44.2616 209.615 44.4171L209.827 44.4273C212.961 44.5788 215.373 47.1935 215.22 50.2669C215.07 53.2514 212.56 55.5711 209.551 55.5711Z" fill="#895EAA"/>
<path d="M97.8344 115.301C97.7499 115.301 97.6634 115.301 97.579 115.297C94.4428 115.162 92.017 112.555 92.1591 109.48L92.1653 109.259C92.3074 106.184 94.9679 103.802 98.0918 103.937C101.226 104.076 103.654 106.681 103.512 109.754L103.503 109.977C103.365 112.967 100.855 115.301 97.8344 115.301Z" fill="#895EAA"/>
<path d="M97.8962 139.116C97.8159 139.116 97.7356 139.112 97.6511 139.108C94.517 138.981 92.085 136.38 92.2189 133.303L92.2312 133.081C92.3651 130.007 95.0215 127.617 98.1453 127.752C101.279 127.884 103.711 130.484 103.576 133.558L103.565 133.78C103.435 136.774 100.923 139.116 97.8962 139.116Z" fill="#895EAA"/>
<path d="M86.3666 127.136C86.2718 127.136 86.1792 127.136 86.0844 127.128L85.8723 127.12C82.7423 126.966 80.3269 124.352 80.4792 121.276C80.6378 118.199 83.3004 115.835 86.4325 115.982L86.6425 115.992C89.7746 116.144 92.188 118.758 92.0356 121.836C91.8832 124.816 89.3751 127.136 86.3666 127.136Z" fill="#895EAA"/>
<path d="M109.586 127.071C109.494 127.071 109.399 127.067 109.302 127.065L109.092 127.053C105.962 126.904 103.547 124.287 103.699 121.214C103.851 118.134 106.524 115.76 109.65 115.917L109.862 115.926C112.992 116.079 115.408 118.696 115.255 121.769C115.105 124.754 112.595 127.071 109.586 127.071Z" fill="#895EAA"/>
</svg>
