<svg width="403" height="410" viewBox="0 0 403 410" fill="none" xmlns="http://www.w3.org/2000/svg">
<path d="M324.701 238.255C324.932 241.011 324.781 243.766 324.637 246.514C324.528 248.574 324.291 250.629 324.12 252.687C323.966 254.609 323.883 256.531 323.537 258.439C323.341 259.514 323.354 260.634 323.325 261.735C323.261 264.072 323.243 266.421 323.179 268.762C323.139 269.296 323.067 269.824 322.966 270.35C321.78 270.423 320.729 270.431 319.65 270.66C317.673 271.075 315.635 271.18 313.621 271.414C311.991 270.931 310.415 271.57 308.815 271.625C305.163 271.756 301.504 271.688 297.848 271.684C297.028 271.684 296.633 271.006 296.995 270.314C297.761 268.845 298.742 267.532 299.799 266.279C303.583 261.778 307.394 257.302 311.171 252.794C312.224 251.536 313.184 250.198 314.197 248.897C315.209 247.598 316.189 246.285 317.261 245.051C318.622 243.493 319.615 241.688 320.797 240.011C321.584 238.894 322.357 237.767 323.179 236.673C323.296 236.517 323.675 236.442 323.875 236.509C324.13 236.618 324.31 236.8 324.419 237.059C324.575 237.443 324.668 237.842 324.701 238.255Z" fill="#C197D2"/>
<path d="M320.822 234.73C321.129 234.874 321.193 235.119 321.04 235.432C320.859 235.801 320.735 236.211 320.511 236.545C318.128 240.232 315.637 243.835 312.758 247.155C311.415 248.705 310.298 250.453 308.973 252.019C305.437 256.199 302.028 260.489 298.266 264.467C296.944 265.871 295.879 267.467 294.806 269.065C294.501 269.515 294.138 269.911 293.72 270.255C293.578 270.373 293.125 270.34 293.001 270.201C292.628 269.804 292.33 269.355 292.105 268.855C290.136 264.013 288.206 259.155 286.236 254.314C285.833 253.316 285.618 252.276 285.592 251.198C285.614 250.204 285.95 249.429 286.727 249.035C288.414 248.181 289.977 247.016 291.899 246.696C292.169 246.662 292.426 246.577 292.665 246.445C295.576 244.612 298.966 243.932 302.05 242.51C305.014 241.142 308.007 239.843 311.009 238.57C314.136 237.245 317.291 235.985 320.431 234.706C320.565 234.665 320.696 234.672 320.822 234.73Z" fill="#C197D2"/>
<path d="M320.579 274.233C320.593 274.364 320.665 274.53 320.612 274.617C320.326 275.085 320.076 275.593 319.693 275.967C316.667 278.941 313.965 282.229 311.035 285.292C306.302 290.237 301.517 295.129 296.742 300.032C293.969 302.879 291.264 305.78 289.013 309.088C288.941 309.205 288.863 309.317 288.776 309.422C286.597 311.803 287.186 312.139 282.856 313.408C278.03 314.824 273.125 315.872 268.235 316.983C265.312 317.647 262.486 318.571 259.647 319.494C258.877 319.751 258.096 319.967 257.303 320.141C257.113 320.18 256.845 319.967 256.65 319.818C256.582 319.765 256.604 319.553 256.627 319.421C256.65 319.285 256.701 319.16 256.778 319.047C257.408 318.15 257.945 317.153 258.699 316.378C260.998 314.023 262.529 311.032 265.027 308.837C266.558 307.486 268.012 306.013 269.052 304.194C269.191 303.955 269.361 303.739 269.557 303.546C272.835 300.228 275.547 296.424 278.442 292.793C282.285 287.973 286.158 283.174 289.549 278C290.148 277.088 290.929 276.305 291.611 275.451C292.352 274.516 293.296 274.158 294.47 274.166C298.676 274.196 302.878 273.994 307.085 274.12C309.933 274.207 312.784 274.103 315.633 274.016C316.574 273.986 317.502 273.703 318.445 273.608C318.981 273.559 319.516 273.585 320.045 273.687C320.256 273.719 320.406 274.041 320.579 274.233Z" fill="#C197D2"/>
<path d="M294.412 226.706C294.974 226.951 295.251 227.511 295.047 228.033C294.596 229.184 294.116 230.324 293.642 231.461C293.584 231.588 293.514 231.705 293.43 231.815C290.673 235.774 288.69 240.173 286.492 244.452C286.304 244.818 286.127 245.191 285.919 245.541C283.631 249.454 281.408 253.405 279.025 257.25C277.7 259.338 276.485 261.49 275.379 263.706C274.283 265.927 273.047 268.062 271.669 270.112C269.699 273.072 267.732 276.056 266.125 279.265C264.898 281.719 263.52 284.103 262.125 286.466C258.906 291.921 256.456 297.766 253.519 303.366C253.455 303.486 253.414 303.621 253.342 303.737C251.432 306.921 250.052 310.379 248.371 313.681C248.103 314.159 247.797 314.612 247.453 315.037C247.387 315.124 247.146 315.194 247.09 315.15C246.913 315.008 246.662 314.802 246.662 314.62C246.643 313.93 246.692 313.246 246.808 312.566C247.041 311.346 247.31 310.132 247.656 308.941C249.269 303.389 250.847 297.827 252.559 292.309C253.783 288.366 255.21 284.487 256.559 280.586C258.397 275.253 260.17 269.893 262.135 264.608C263.528 260.869 264.659 257.051 265.812 253.233C266.058 252.444 266.346 251.671 266.673 250.913C269.559 244.056 271.924 237.015 274.225 229.947C274.567 228.899 274.839 227.823 275.234 226.801C275.548 226.038 275.935 225.314 276.394 224.632C276.586 224.339 276.835 224.108 277.138 223.938C277.439 223.768 277.764 223.677 278.11 223.667C278.516 223.641 278.922 223.667 279.404 223.667C281.132 223.426 282.817 224.122 284.541 224.422C287.205 224.889 289.919 225.122 292.517 225.953C293.16 226.172 293.792 226.423 294.412 226.706Z" fill="#C197D2"/>
<path d="M294.674 220.958C294.76 221.64 294.756 222.323 294.663 223.005C294.641 223.214 294.338 223.521 294.124 223.56C293.594 223.679 293.059 223.703 292.519 223.632C289.456 223.074 286.391 222.507 283.328 221.864C282.131 221.611 280.957 221.261 279.727 221.217C278.755 221.182 277.865 220.856 277.01 220.421C276.759 220.298 276.559 220.118 276.409 219.881C276.26 219.645 276.18 219.386 276.172 219.104C276.155 218.829 276.124 218.554 276.089 218.18C276.069 216.622 276.765 215.015 276.396 213.35C276.796 210.182 276.633 207.001 276.612 203.826C276.59 200.619 277.136 197.524 278.04 194.477C278.549 192.763 279.163 191.078 279.33 189.263C279.393 188.595 279.717 187.948 279.943 187.298C280.25 186.388 280.671 185.505 280.899 184.573C282.108 179.616 283.88 174.823 285.046 169.855C285.136 169.475 285.41 169.133 285.631 168.795C285.736 168.7 285.857 168.654 285.997 168.66C286.102 168.66 286.284 168.72 286.304 168.787C286.667 170.25 287.134 171.697 287.336 173.184C287.763 176.328 288.34 179.444 288.834 182.576C289.347 185.849 289.872 189.113 290.498 192.366C290.733 193.574 290.719 194.839 290.75 196.081C290.797 197.878 291.019 199.654 291.411 201.405C291.831 203.276 292.249 205.164 292.297 207.122C292.33 208.488 292.727 209.84 292.966 211.201C293.537 214.445 294.13 217.696 294.674 220.958Z" fill="#C197D2"/>
<path d="M290.463 271.763C290.49 271.898 290.504 272.034 290.502 272.171C290.443 272.436 290.366 272.697 290.267 272.95C290.146 273.197 289.996 273.424 289.818 273.632C286.549 277.513 284.075 282.008 280.705 285.808C278.31 289.671 275.343 293.086 272.532 296.623C271.51 297.908 270.414 299.132 269.345 300.38C268.9 300.898 268.395 301.371 267.985 301.916C266.09 304.439 263.901 306.699 261.826 309.064C259.573 311.63 257.509 314.361 255.336 317.011C254.819 317.635 254.209 318.189 253.628 318.76C253.41 318.976 252.724 318.946 252.495 318.727C251.902 318.161 251.269 317.627 250.748 317.003C250.075 316.208 249.957 315.316 250.452 314.325C252.11 311 253.749 307.67 255.366 304.332C256.914 301.114 258.296 297.806 259.962 294.65C262.137 290.523 264.133 286.298 266.548 282.296C269.452 277.476 272.322 272.635 275.343 267.884C276.59 265.923 277.556 263.777 278.695 261.741C279.768 259.825 280.895 257.939 282.013 256.046C282.149 255.817 282.382 255.647 282.561 255.441C282.866 255.082 283.762 255.269 283.929 255.764C284.765 258.257 286.024 260.533 287.13 262.892C288.465 265.763 289.577 268.72 290.463 271.763Z" fill="#C197D2"/>
<path d="M283.262 164.299C283.425 164.455 283.661 164.694 283.645 164.88C283.402 167.927 282.481 170.825 281.684 173.744C280.304 178.788 278.823 183.798 277.088 188.731C276.404 190.673 275.949 192.7 275.36 194.679C275.123 195.47 274.802 196.237 274.52 197.006C274.41 197.34 274.237 197.635 273.998 197.89C273.761 198.145 273.481 198.335 273.158 198.463C269.732 199.766 266.387 201.257 263.083 202.853C262.401 203.185 261.316 202.744 260.998 202.05C260.801 201.688 260.646 201.308 260.525 200.915C260.137 199.309 259.824 197.684 259.406 196.085C258.747 193.558 258.395 190.954 257.554 188.468C257.291 187.687 257.247 186.849 257.078 185.918C257.27 185.491 257.394 184.911 257.733 184.526C258.446 183.695 259.227 182.934 260.076 182.246C262.64 180.221 265.347 178.365 267.813 176.221C270.183 174.163 272.894 172.538 275.051 170.22C275.138 170.114 275.236 170.019 275.346 169.936C277.995 168.251 280.343 166.153 282.881 164.326C283.004 164.249 283.13 164.239 283.262 164.299Z" fill="#C197D2"/>
<path d="M273.698 202.303C274.141 204.193 274.27 206.109 274.244 208.138C273.972 212.023 273.71 216.003 273.405 219.981C273.393 220.225 273.348 220.464 273.273 220.695C273.197 220.929 273.092 221.146 272.956 221.348C272.822 221.551 272.661 221.731 272.478 221.888C272.293 222.046 272.091 222.176 271.873 222.277C267.699 224.235 263.509 226.154 259.311 228.07C258.936 228.213 258.549 228.308 258.152 228.353C258.082 228.371 258.013 228.375 257.943 228.363C257.873 228.351 257.807 228.325 257.748 228.284C257.69 228.242 257.641 228.191 257.604 228.128C257.567 228.064 257.546 227.997 257.54 227.926C257.464 227.39 257.354 226.835 257.424 226.309C257.842 223.179 258.257 220.047 258.767 216.931C259.225 214.083 259.839 211.262 260.331 208.419C260.566 207.035 261.404 206.238 262.56 205.7C264.409 204.85 266.251 203.986 268.136 203.22C269.401 202.714 270.587 202.062 271.782 201.429C271.871 201.378 271.965 201.338 272.064 201.308C272.161 201.279 272.262 201.263 272.363 201.257C272.466 201.253 272.567 201.259 272.668 201.279C272.767 201.299 272.865 201.328 272.958 201.372C273.051 201.413 273.139 201.467 273.22 201.53C273.302 201.595 273.374 201.666 273.438 201.747C273.502 201.828 273.556 201.915 273.601 202.01C273.644 202.103 273.677 202.202 273.698 202.303Z" fill="#C197D2"/>
<path d="M272.645 225.923C272.734 226.19 272.74 226.461 272.662 226.732C271.611 230.299 270.56 233.866 269.467 237.421C268.943 239.135 268.293 240.794 267.629 242.457C266.344 245.644 265.332 248.944 264.055 252.139C262.428 256.236 261.178 260.463 259.742 264.626C257.812 270.217 255.684 275.746 253.869 281.377C252.773 284.778 251.243 288.032 250.544 291.567C249.407 294.231 248.779 297.066 247.885 299.812C246.775 303.215 245.695 306.632 244.725 310.078C244.132 312.188 243.778 314.369 243.306 316.516C243.191 317.054 243.044 317.582 242.865 318.102C242.76 318.44 242.577 318.727 242.317 318.962C242.056 319.197 241.755 319.35 241.413 319.415C240.616 319.571 239.814 319.67 239.001 319.709C236.972 319.812 234.963 319.947 232.945 320.334C230.963 320.712 228.897 320.621 226.866 320.738C226.866 320.702 226.866 320.666 226.866 320.631C225.512 320.631 224.155 320.643 222.8 320.631C222.715 320.635 222.631 320.629 222.55 320.611C222.466 320.593 222.387 320.566 222.311 320.528C222.235 320.492 222.163 320.445 222.099 320.39C222.035 320.336 221.976 320.273 221.926 320.204C221.877 320.134 221.837 320.059 221.803 319.98C221.772 319.901 221.751 319.818 221.739 319.733C221.726 319.648 221.726 319.563 221.734 319.478C221.743 319.393 221.761 319.31 221.79 319.229C221.938 318.699 222.111 318.181 222.311 317.671C224.958 311.603 226.835 305.256 228.849 298.96C230.106 295.028 231.031 290.996 231.894 286.951C232.178 285.6 232.557 284.279 233.027 282.986C233.69 281.177 234.442 279.401 235.225 277.64C236.739 274.249 238.271 270.866 239.858 267.51C240.624 265.897 241.571 264.374 242.365 262.775C244.571 258.34 246.779 253.907 248.901 249.432C250.081 246.951 251.076 244.379 252.184 241.86C253.292 239.343 254.434 236.843 255.564 234.336C256.022 233.3 256.706 232.466 257.731 231.958C262.123 229.795 266.523 227.643 270.933 225.5C271.273 225.336 271.735 225.346 272.124 225.399C272.316 225.423 272.555 225.702 272.645 225.923Z" fill="#C197D2"/>
<path d="M257.976 205.769C258.302 208.478 257.453 211.155 257.056 213.872C256.454 217.963 255.647 222.02 254.963 226.099C254.644 227.999 254.151 229.86 253.848 231.768C253.591 233.369 252.905 234.943 252.184 236.416C250.499 239.884 249.195 243.519 247.629 247.036C247.403 247.54 247.277 248.094 247.003 248.564C245.407 251.291 244.323 254.275 242.815 257.049C240.846 260.665 239.007 264.357 237.145 268.036C236.467 269.387 235.946 270.816 235.287 272.177C234.03 274.771 232.728 277.339 231.434 279.916C231.255 280.271 230.643 280.382 230.363 280.163C230.258 280.076 230.133 280.006 230.03 279.925C229.809 279.763 229.605 279.577 229.418 279.374C227.9 277.412 226.048 275.797 224.241 274.128C222.435 272.459 220.622 270.795 218.82 269.12C218.525 268.837 218.247 268.537 217.987 268.22C217.234 267.324 216.935 266.288 217.211 265.136C217.365 264.473 217.542 263.785 217.858 263.188C219.269 260.517 220.377 257.678 222.019 255.127C222.453 254.427 222.839 253.699 223.176 252.946C224.692 249.705 226.186 246.453 228.112 243.432C229.338 240.047 231.599 237.211 232.932 233.874C233.698 231.964 234.755 230.176 235.731 228.359C238.002 224.124 240.164 219.829 242.344 215.545C244.152 211.992 245.984 208.45 247.467 204.733C248.124 203.082 249.045 201.538 249.862 199.954C251.517 196.798 252.996 193.56 254.297 190.238C254.4 189.967 254.707 189.914 255 190.042C255.115 190.105 255.208 190.192 255.282 190.303C255.369 190.408 255.434 190.527 255.47 190.659C256.223 194.018 256.936 197.388 257.725 200.737C258.129 202.376 258.137 204.013 257.976 205.769Z" fill="#C197D2"/>
<path d="M234.646 162.537C234.743 164.04 235.233 165.489 234.965 167.057C234.737 168.395 234.776 169.785 234.733 171.154C234.671 173.22 234.619 175.29 234.597 177.36C234.557 181.499 234.529 185.639 234.516 189.777C234.483 199.578 234.456 209.378 234.432 219.175C234.432 221.109 234.36 223.038 234.333 224.97C234.308 225.809 234.119 226.607 233.766 227.367C233.598 227.742 233.416 228.112 233.235 228.484C231.305 232.432 229.311 236.347 227.092 240.136C226.8 240.594 226.464 241.017 226.087 241.405C225.881 241.632 225.615 241.561 225.391 241.302C224.921 240.754 224.82 240.08 224.736 239.392C224.06 233.911 223.689 228.411 223.619 222.888C223.607 221.239 223.545 219.6 223.222 217.953C222.937 216.482 223.032 214.934 222.968 213.419C222.839 210.392 223.082 207.349 222.447 204.346C222.309 203.699 222.447 202.967 222.569 202.299C222.878 200.652 222.878 199.007 222.569 197.36C222.289 195.851 222.233 194.349 222.221 192.842C222.192 189.115 222.202 185.39 222.163 181.665C222.12 177.524 222.054 173.386 221.965 169.248C221.955 168.279 221.852 167.322 221.658 166.375C221.353 165.012 221.353 163.64 221.277 162.262C221.187 160.435 221.31 158.671 222.46 157.147C223.84 153.701 225.525 150.391 226.969 146.978C228.196 144.071 229.138 141.036 230.254 138.076C231.078 135.894 231.968 133.729 232.858 131.569C232.938 131.376 233.258 131.269 233.486 131.158C233.758 131.026 234.216 131.486 234.269 131.927C234.319 132.337 234.391 132.746 234.411 133.159C234.444 133.847 234.45 134.537 234.459 135.227C234.51 139.229 234.562 143.229 234.613 147.227H234.551C234.551 151.229 234.551 155.229 234.551 159.225C234.566 160.332 234.574 161.438 234.646 162.537Z" fill="#C197D2"/>
<path d="M231.307 126.413C231.904 127.259 232.073 128.157 231.579 129.127C229.958 132.321 228.728 135.686 227.461 139.031C226.971 140.319 226.48 141.608 226.081 142.927C224.789 147.166 222.808 151.097 220.888 155.053C220.754 155.292 220.593 155.512 220.406 155.711C220.21 155.949 219.914 156.024 219.679 155.814C219.176 155.363 218.649 154.909 218.263 154.361C217.878 153.788 217.573 153.177 217.343 152.524C216.078 149.181 214.696 145.887 213.627 142.464C212.481 138.784 211.462 135.063 210.077 131.459C209.721 130.561 209.441 129.64 209.237 128.694C208.844 126.79 208.164 124.995 207.447 123.208C206.427 120.647 205.57 118.031 204.878 115.36C204.318 113.234 203.609 111.141 202.845 109.078C201.313 104.944 199.848 100.798 198.863 96.4853C198.548 95.1447 198.146 93.8298 197.656 92.5446C197.034 90.8739 196.606 89.1161 196.122 87.4038C196.017 87.0143 196.064 86.5852 196.043 86.2076C196.185 85.9901 196.346 85.7904 196.527 85.6065C196.665 85.5551 196.793 85.5749 196.911 85.6599C198.707 87.1428 200.309 88.8195 201.712 90.688C203.869 93.5234 206.1 96.2974 208.372 99.0319C210.906 102.085 213.592 105.005 216.008 108.171C219.25 112.416 222.721 116.475 226.281 120.451C227.65 121.98 228.969 123.556 230.3 125.118C230.658 125.527 230.992 125.964 231.307 126.413Z" fill="#C197D2"/>
<path d="M228.868 286.956C228.975 287.012 229.117 287.156 229.113 287.255C229.037 288.764 228.781 290.243 228.347 291.686C227.482 294.593 226.592 297.489 225.751 300.402C224.907 303.314 224.031 306.203 222.896 309.013C222.282 310.541 221.802 312.129 221.273 313.687C220.478 316.024 219.37 318.246 218.362 320.5C218.278 320.688 217.93 320.775 217.687 320.854C217.629 320.872 217.473 320.698 217.413 320.573C216.587 318.958 216.309 317.173 215.963 315.431C215.322 312.19 214.737 308.933 214.197 305.675C213.993 304.455 213.952 303.205 213.833 301.97C213.808 300.926 214.212 300.085 214.906 299.362C215.948 298.27 216.923 297.112 218.037 296.107C220.367 294.001 222.414 291.567 225.051 289.818C226.299 288.989 227.043 287.542 228.46 286.931C228.6 286.883 228.736 286.891 228.868 286.956Z" fill="#C197D2"/>
<path d="M227.657 281.412C228.184 282.18 228.155 283.403 227.486 284.096C226.064 285.571 224.728 287.182 223.112 288.404C220.157 290.642 217.678 293.379 214.994 295.894C214.496 296.36 213.981 296.799 213.46 297.232C213.079 297.545 212.224 297.43 212.005 297.013C211.305 295.682 210.547 294.363 209.979 292.983C209.53 291.83 208.992 290.721 208.359 289.661C207.764 288.736 207.247 287.767 206.808 286.755C205.276 283.075 203.508 279.508 202.136 275.757C200.717 271.888 199.123 268.088 197.597 264.26C196.733 262.093 195.837 259.938 194.982 257.767C194.676 257.001 194.461 256.209 194.216 255.447C194.249 255.157 194.196 254.824 194.33 254.668C194.467 254.512 194.857 254.38 195.018 254.467C196.575 255.295 198.173 256.04 199.584 257.148C201.834 258.911 204.25 260.454 206.365 262.401C206.654 262.696 206.973 262.951 207.321 263.168C209.375 264.282 210.965 266.018 212.819 267.376C215.59 269.411 217.819 272.009 220.358 274.277C221.277 275.093 222.14 275.977 223.115 276.709C224.773 277.954 226.027 279.587 227.44 281.06C227.521 281.173 227.593 281.29 227.657 281.412Z" fill="#C197D2"/>
<path d="M223.047 246.249C223.16 246.953 223.067 247.629 222.771 248.276C221.592 250.757 220.711 253.373 219.256 255.738C218.185 257.484 217.433 259.435 216.552 261.304C216.142 262.176 215.787 263.071 215.373 263.943C215.009 264.722 214.317 264.981 213.734 264.544C211.664 262.986 209.497 261.575 207.54 259.86C205.692 258.241 203.85 256.588 201.825 255.216C198.888 253.239 195.804 251.487 192.754 249.689C191.514 248.962 190.045 249.249 188.996 250.261C188.1 251.121 187.398 252.131 186.745 253.185C186.397 253.753 185.865 254.219 185.357 254.664C185.204 254.799 184.831 254.791 184.619 254.7C184.405 254.611 184.141 254.354 184.104 254.138C183.799 252.232 183.492 250.324 183.28 248.406C182.874 244.703 182.572 240.99 182.151 237.288C181.622 232.624 181.344 227.938 181.144 223.256C180.47 220.424 180.761 217.474 180.071 214.639C179.848 213.716 179.918 212.715 179.877 211.748C179.69 207.893 179.723 204.031 179.14 200.183C178.765 197.744 178.884 195.225 178.816 192.741C178.779 191.493 178.798 190.248 178.468 189.038C178.392 188.771 178.353 188.498 178.349 188.219C178.336 183.233 177.393 178.329 177.236 173.356C177.179 171.567 177.224 169.764 176.717 168.008C176.563 167.49 176.587 166.918 176.563 166.363C176.392 162.632 175.881 158.95 175.03 155.316C174.991 155.043 174.975 154.768 174.987 154.491C174.962 154.025 175.481 153.335 175.914 153.268L176.973 153.111C177.527 153.141 177.959 153.08 178.338 153.196C180.816 153.954 183.433 153.944 185.921 154.699C187.47 155.166 189.118 155.296 190.71 155.634C193.229 156.172 195.738 156.757 198.251 157.329C201.556 158.098 204.899 158.616 208.281 158.887C210.848 159.083 213.4 159.466 215.942 159.846C216.733 159.962 217.497 160.312 218.261 160.597C218.675 160.753 218.873 161.151 218.927 161.554C219.024 162.234 219.059 162.926 219.098 163.614C219.149 164.443 219.085 165.289 219.23 166.096C220.268 171.854 219.87 177.663 219.928 183.456C219.953 185.805 219.903 188.152 219.907 190.501C219.907 191.329 219.862 192.18 220.021 192.982C220.62 195.99 220.48 199.029 220.525 202.064C220.579 205.793 220.439 209.544 220.853 213.241C221.349 217.654 221.275 222.066 221.399 226.477C221.491 229.65 221.642 232.81 221.977 235.981C222.346 239.39 222.587 242.83 223.047 246.249Z" fill="#C197D2"/>
<path d="M215.693 155.48C215.926 156.364 215.283 157.222 214.453 157.182C214.319 157.182 214.183 157.182 213.806 157.182C211.252 156.473 208.39 156.548 205.546 156.419C203.362 156.318 201.245 155.796 199.131 155.342C194.228 154.27 189.367 153.032 184.481 151.891C183.562 151.678 182.605 151.615 181.667 151.47C179.793 151.182 177.918 150.901 176.048 150.582C175.282 150.45 174.701 149.544 174.81 148.706C174.863 148.156 174.954 147.613 175.082 147.077C175.341 146.142 175.632 145.224 175.965 144.319C177.1 141.218 178.415 138.183 179.274 134.98C181.123 131.569 182.048 127.793 183.465 124.214C184.384 121.897 184.907 119.471 185.703 117.13C186.502 114.787 187.425 112.479 188.183 110.116C188.984 107.623 189.703 105.11 190.368 102.579C190.999 100.181 191.421 97.721 192.115 95.3424C192.614 93.6281 192.649 91.7715 193.617 90.1996C193.685 90.0909 193.847 89.9287 193.915 89.9505C194.128 90.0216 194.391 90.1166 194.503 90.2925C194.727 90.6405 194.902 91.0142 195.024 91.4116C195.988 94.4289 197.016 97.4205 197.891 100.475C198.907 104.044 199.883 107.645 201.428 111.04C201.595 111.417 201.725 111.807 201.823 112.21C202.995 116.9 204.66 121.42 206.256 125.972C207.346 129.09 208.189 132.293 209.153 135.455C209.476 136.508 209.822 137.552 210.176 138.594C210.44 139.374 210.79 140.137 211.002 140.932C211.991 144.673 213.435 148.245 214.679 151.893C215.071 153.074 215.371 154.282 215.693 155.48Z" fill="#C197D2"/>
<path d="M214.813 321.629C214.935 322.3 214.447 322.982 213.756 323.152C212.312 323.506 210.868 323.864 209.424 324.226C208.899 324.356 208.376 324.601 207.851 324.601C205.511 324.601 203.408 325.746 201.098 325.958C200.178 326.043 199.288 326.515 198.425 326.905C196.041 327.984 193.458 328.168 190.943 328.661C190.739 328.698 190.451 328.457 190.247 328.289C190.035 328.113 189.862 327.905 189.724 327.666C188.609 325.756 187.808 323.717 187.322 321.552C186.681 318.59 186.178 315.615 185.651 312.637C185.556 312.105 185.637 311.546 185.637 310.99C185.624 310.276 186.075 309.56 186.728 309.45C188.727 309.116 190.558 308.056 192.62 308.012C195.613 307.144 198.585 306.205 201.448 304.959C203.185 304.176 204.977 303.565 206.825 303.125C207.875 302.889 208.877 302.444 209.904 302.096C210.559 301.875 211.334 302.302 211.462 302.992C211.769 304.611 212.189 306.227 212.302 307.862C212.586 312 213.542 316.004 214.459 320.018C214.582 320.558 214.712 321.084 214.813 321.629Z" fill="#C197D2"/>
<path d="M209.06 298.118C209.307 298.699 208.946 299.554 208.322 299.856C207.591 300.21 206.847 300.542 206.087 300.823C203.926 301.628 201.757 302.415 199.582 303.184C196.898 304.129 194.189 305.003 191.413 305.642C191.011 305.707 190.607 305.74 190.201 305.74C190.032 305.754 189.868 305.734 189.707 305.681C189.548 305.628 189.404 305.543 189.277 305.43C189.151 305.315 189.052 305.181 188.98 305.027C188.906 304.87 188.867 304.706 188.862 304.536C188.862 303.289 188.871 302.055 188.875 300.815C188.875 299.985 188.875 299.158 188.875 298.33H188.797C188.797 297.226 188.784 296.123 188.797 295.02C188.813 294.055 188.714 293.056 188.922 292.133C189.534 289.414 189.283 286.634 189.604 283.906C190.065 280.068 190.191 276.206 190.585 272.375C190.91 269.217 191.141 266.055 191.279 262.892C191.326 261.79 191.332 260.677 191.787 259.643C191.891 259.404 192.057 259.131 192.267 259.02C192.383 258.961 192.737 259.165 192.84 259.333C193.258 260.039 193.707 260.75 193.983 261.514C195.668 266.172 197.751 270.66 199.409 275.336C201.245 280.519 203.269 285.636 205.78 290.543C207.031 292.995 207.987 295.589 209.06 298.118Z" fill="#C197D2"/>
<path d="M192.02 82.9885C192.051 83.2614 192.062 83.5362 192.099 84.0641C192.041 84.6375 192.029 85.4759 191.86 86.2806C190.378 93.2939 188.642 100.246 186.873 107.188C186.261 109.592 185.214 111.852 184.5 114.235C182.503 120.831 180.184 127.31 177.547 133.669C177.078 134.812 176.719 136.006 176.33 137.175C175.199 140.574 174.083 143.976 172.946 147.375C172.863 147.628 172.67 147.842 172.536 148.085C172.356 148.405 171.771 148.573 171.475 148.346C169.403 146.788 167.306 145.264 165.281 143.644C160.802 140.06 156.472 136.297 151.782 132.985C149.331 131.257 147.044 129.297 144.692 127.429C144.09 126.948 144.012 126.29 144.412 125.59C144.618 125.23 144.809 124.864 145.038 124.522C145.267 124.18 145.514 123.85 145.779 123.536C147.085 121.95 148.521 120.481 149.704 118.782C150.182 118.1 150.762 117.523 151.444 117.05C153.043 115.961 154.275 114.484 155.653 113.155C157.428 111.449 159.134 109.669 161.151 108.236C161.917 107.686 162.743 107.087 163.276 106.322C165.114 103.672 167.718 101.903 170.124 99.8998C170.544 99.5499 170.985 99.2256 171.39 98.8559C174.41 96.0818 177.426 93.3018 180.437 90.5139C182.339 88.7462 184.125 86.8619 186.22 85.2999C187.524 84.3271 188.605 83.0478 189.791 81.9109C190.282 81.4443 190.914 81.3197 191.256 81.6005C191.707 81.9505 191.961 82.4132 192.02 82.9885Z" fill="#C197D2"/>
<path d="M189.45 255.281C189.804 256.926 189.711 258.589 189.433 260.215C189.038 262.54 188.998 264.879 188.862 267.226C188.749 269.148 188.78 271.091 188.298 272.991C188.129 273.652 188.135 274.358 188.092 275.046C187.938 277.523 187.977 280.019 187.363 282.449C187.388 287.01 186.444 291.502 186.473 296.066C186.483 297.723 186.52 299.384 186.413 301.035C186.316 302.537 186.051 304.03 185.841 305.525C185.785 305.924 185.087 306.474 184.629 306.515C184.09 306.565 183.546 306.618 183.006 306.626C181.919 306.644 180.833 306.626 179.313 306.626C177.321 306.488 174.87 306.689 172.461 306.075C171.294 305.778 170.035 305.827 168.815 305.784C165.806 305.673 162.916 304.957 160.049 304.095C159.791 304.018 159.538 303.913 159.284 303.815C158.856 303.65 158.518 302.822 158.732 302.413C159.566 300.837 160.36 299.233 161.254 297.693C162.704 295.2 164.207 292.742 165.711 290.282C167.289 287.708 168.914 285.163 170.478 282.579C173.252 278 175.967 273.385 178.763 268.817C180.266 266.364 181.805 263.934 183.612 261.678C184.975 259.975 186.096 258.075 187.357 256.286C187.684 255.845 188.063 255.455 188.492 255.117C188.675 254.963 188.992 254.963 189.248 254.947C189.314 254.941 189.423 255.155 189.45 255.281Z" fill="#C197D2"/>
<path d="M186.329 325.75C186.413 325.969 186.281 326.274 186.246 326.539C186.205 326.861 185.614 326.976 185.194 326.729C179.679 323.49 173.945 320.651 168.702 316.959C166.251 315.231 163.829 313.452 161.526 311.532C160.073 310.318 158.862 308.801 157.556 307.409C157.484 307.33 157.527 307.142 157.513 307.006C157.696 306.838 157.859 306.571 158.063 306.529C158.465 306.448 158.868 306.444 159.27 306.519C159.931 306.654 160.568 306.905 161.227 307.059C163.472 307.575 165.707 308.079 168.041 308.089C169.674 308.089 171.287 308.263 172.882 308.609C174.192 308.896 175.574 308.872 176.925 308.932C178.547 309.003 180.172 309.009 181.795 309.06C182.306 309.078 182.881 309.58 182.965 310.047C183.187 311.265 183.482 312.477 183.6 313.707C183.976 317.845 184.885 321.861 186.329 325.75Z" fill="#C197D2"/>
<path d="M181.564 253.543C181.513 253.952 181.451 254.496 181.366 255.034C181.346 255.162 181.243 255.376 181.173 255.378C180.92 255.39 180.573 255.419 180.427 255.273C179.733 254.621 179.094 253.915 178.509 253.159C177.129 251.275 175.883 249.296 174.48 247.435C172.085 244.262 170.053 240.818 167.456 237.794C167.015 237.28 166.702 236.65 166.344 236.066C165.987 235.481 165.676 234.86 165.287 234.297C161.159 228.314 157.266 222.16 152.798 216.424C152.548 216.1 152.34 215.732 152.083 215.416C150.433 213.427 149.751 211.076 149.619 208.533C149.372 203.713 148.614 198.93 148.612 194.084C148.612 192.168 148.153 190.254 148.013 188.33C147.875 186.408 147.955 184.458 147.774 182.537C147.594 180.615 147.248 178.715 146.9 176.816C146.428 174.236 146.047 171.662 146.018 169.026C146 167.383 145.685 165.734 145.405 164.105C144.869 160.963 144.842 157.787 144.663 154.62C144.585 153.244 144.395 151.875 144.299 150.501C144.134 148.162 144.014 145.817 143.858 143.478C143.784 142.377 143.792 141.252 143.551 140.19C143.087 138.14 143.071 136.087 143.503 134.031C143.689 133.096 143.839 132.151 144.045 131.225C144.113 130.915 144.387 130.82 144.708 130.893C144.84 130.897 144.97 130.917 145.098 130.952C145.468 131.126 145.819 131.33 146.152 131.567C150.464 134.915 154.864 138.151 159.045 141.661C163.124 145.088 167.213 148.492 171.415 151.757C172.212 152.38 172.672 153.184 172.946 154.135C172.993 154.266 173.026 154.4 173.047 154.537C173.343 157.835 174.235 161.054 174.243 164.387C174.243 165.904 174.225 167.426 174.74 168.896C174.859 169.293 174.923 169.702 174.933 170.117C175.24 174.382 175.555 178.647 175.829 182.914C175.935 184.567 176.058 186.206 176.289 187.853C176.583 190.034 176.559 192.261 176.653 194.469C176.754 196.806 176.678 199.161 177.191 201.48C177.368 202.279 177.325 203.131 177.344 203.958C177.447 207.268 177.401 210.586 178.081 213.856C178.248 214.657 178.205 215.505 178.235 216.335C178.293 218.129 178.439 219.916 178.674 221.696C178.938 223.602 178.946 225.549 179.026 227.479C179.096 229.136 179.121 230.791 179.513 232.416C179.653 232.954 179.727 233.5 179.733 234.055C179.696 238.214 180.468 242.299 180.765 246.425C180.843 247.516 181.029 248.608 181.156 249.711C181.286 250.929 181.414 252.163 181.564 253.543Z" fill="#C197D2"/>
<path d="M180.217 259.999C180.318 260.137 180.398 260.29 180.452 260.454C180.507 260.618 180.536 260.788 180.54 260.962C180.542 261.134 180.518 261.304 180.47 261.47C180.421 261.636 180.347 261.79 180.25 261.935C179.307 263.433 178.767 265.207 177.306 266.354C177.072 266.536 176.365 266.577 176.169 266.377C175.972 266.18 175.78 265.998 175.597 265.798C173.576 263.554 171.846 261.074 170.134 258.595C166.708 253.626 163.056 248.833 159.494 243.969C156.095 239.331 152.639 234.734 149.382 229.988C147.444 227.171 145.565 224.292 143.301 221.706C142.492 220.784 141.862 219.703 141.155 218.69C139.507 216.335 137.785 214.042 135.929 211.845C134.164 209.763 132.623 207.481 131.014 205.265C129.646 203.381 128.377 201.419 126.964 199.57C123.798 195.44 120.597 191.339 117.361 187.268C116.397 186.088 115.695 184.765 115.252 183.298C115.017 182.507 114.807 181.708 114.621 180.901C113.972 178.084 113.276 175.28 112.368 172.534C111.754 170.699 111.274 168.84 111.142 166.891C111.085 166.076 110.808 165.277 110.683 164.465C110.648 164.225 110.817 163.956 110.893 163.701C111.453 163.881 111.705 164.399 112.022 164.815C114.934 168.625 117.829 172.445 120.715 176.273C122.449 178.568 124.085 180.949 125.899 183.171C127.63 185.305 129.138 187.598 130.604 189.904C133.037 193.736 135.773 197.322 138.545 200.891C141.066 204.138 143.536 207.422 146.029 210.689C147.607 213.773 149.829 216.401 151.941 219.084C155.681 223.825 158.747 229.043 162.339 233.887C162.584 234.218 162.8 234.576 163.017 234.922C166.37 240.106 169.959 245.122 173.685 250.036C174.929 251.683 175.675 253.62 177.016 255.224C178.235 256.687 179.162 258.401 180.217 259.999Z" fill="#C197D2"/>
<path d="M174.68 268.849C175.205 269.6 175.094 270.407 174.721 271.2C174.664 271.326 174.602 271.447 174.532 271.566C174.379 271.799 174.243 272.034 174.072 272.256C172.521 274.352 171.073 276.511 169.922 278.87C169.625 279.477 169.155 279.997 168.741 280.544C168.49 280.875 167.65 281.049 167.227 280.924C166.412 280.683 165.769 280.173 165.235 279.55C164.162 278.302 163.14 277.015 162.073 275.765C158.512 271.599 155.026 267.36 151.348 263.299C147.568 259.131 144.268 254.573 140.718 250.219C140.372 249.794 140.096 249.308 139.734 248.899C137.107 245.917 134.473 242.941 131.832 239.975C131.469 239.566 131.066 239.196 130.728 238.757C128.534 235.94 126.169 233.279 123.763 230.655C122.746 229.544 121.784 228.381 120.807 227.226C119.829 226.071 118.871 224.937 117.895 223.778C117.544 223.359 117.213 222.918 116.848 222.514C112.998 218.236 109.144 213.963 105.286 209.694C103.908 208.17 102.466 206.7 101.096 205.174C100.474 204.444 99.8968 203.679 99.3663 202.88C99.2244 202.677 99.238 202.362 99.1816 202.101C99.2749 201.846 99.308 201.54 99.4732 201.35C100.012 200.727 100.591 200.148 101.158 199.559C102.017 198.677 102.909 197.823 103.743 196.911C105.786 194.691 107.818 192.476 110.341 190.778C111.464 190.019 112.413 189 113.447 188.109C113.791 187.814 114.617 187.881 114.965 188.203C115.165 188.389 115.416 188.532 115.577 188.745C117.318 191.037 119.03 193.352 120.785 195.636C121.872 197.05 123.007 198.426 124.138 199.802C124.571 200.332 125.152 200.757 125.496 201.332C127.269 204.294 129.605 206.817 131.502 209.674C132.337 210.922 133.329 212.075 134.244 213.275C134.99 214.255 135.738 215.238 136.473 216.235C140.883 222.188 145.277 228.152 149.559 234.202C153.918 240.365 158.471 246.38 163.013 252.404C165.651 255.902 168.255 259.441 170.638 263.139C171.901 265.096 173.343 266.937 174.68 268.849Z" fill="#C197D2"/>
<path d="M165.962 283.749C166.138 283.967 166.245 284.214 166.282 284.495C166.319 284.773 166.28 285.042 166.166 285.299C166.006 285.681 165.822 286.047 165.61 286.401C164.17 288.738 162.729 291.085 161.268 293.414C160.104 295.273 158.844 297.068 158.073 299.166C157.746 300.058 157.154 300.85 156.662 301.679C155.546 303.569 154.439 305.461 153.292 307.334C153.15 307.579 152.958 307.773 152.713 307.913C152.47 308.051 152.207 308.119 151.928 308.113C148.682 307.957 145.423 308.37 142.181 307.698C140.928 307.439 139.884 307.059 138.982 306.122C135.371 302.367 131.995 298.401 128.614 294.434C127.992 293.705 127.387 292.951 126.738 292.253C123.629 288.965 120.892 285.365 118.099 281.802C116.074 279.215 114.051 276.621 111.855 274.168C109.49 271.518 107.436 268.584 105.251 265.768C104.917 265.335 104.67 264.821 104.301 264.424C100.379 260.206 97.2653 255.297 93.2695 251.137C92.1384 249.954 91.1958 248.586 90.1736 247.299C88.8967 245.687 87.6218 244.072 86.3527 242.455C85.9309 241.917 85.4956 241.387 85.1108 240.819C83.0196 237.757 80.668 234.911 78.3475 232.023C76.1203 229.245 74.0718 226.316 72.0545 223.374C68.253 217.82 64.3816 212.327 60.2226 207.042C59.7192 206.406 59.3577 205.65 58.9535 204.939C58.7514 204.583 58.9943 203.986 59.3441 203.942C60.1487 203.835 60.9514 203.703 61.7579 203.63C63.3769 203.473 65.0094 203.533 66.605 203.082C67.2444 202.9 67.9518 202.942 68.6301 202.94C72.0234 202.928 75.4187 202.94 78.8139 202.94C78.8139 202.904 78.8139 202.868 78.8139 202.831C81.3929 202.831 83.9758 202.787 86.5529 202.847C88.4478 202.888 90.3504 202.847 92.222 203.313C93.0246 203.493 93.8292 203.505 94.6358 203.351C95.8466 203.133 96.762 203.584 97.5918 204.355C98.0952 204.822 98.5616 205.324 98.9872 205.862C101.778 209.447 105.092 212.531 108.104 215.902C109.109 217.027 110.191 218.067 111.006 219.364C111.367 219.94 111.869 220.426 112.321 220.94C114.496 223.404 116.688 225.854 118.857 228.325C121.656 231.521 124.472 234.7 127.115 238.034C127.624 238.678 128.171 239.297 128.719 239.904C131.818 243.382 134.922 246.856 138.026 250.326C138.669 251.04 139.274 251.785 139.837 252.566C141.899 255.475 144.22 258.176 146.332 261.051C146.571 261.387 146.832 261.705 147.114 262.006C149.683 264.669 152.12 267.451 154.468 270.324C155.677 271.811 156.928 273.262 158.174 274.719C160.487 277.43 162.572 280.341 165.19 282.776C165.476 283.077 165.732 283.401 165.962 283.749Z" fill="#C197D2"/>
<path d="M112.356 181.995C112.395 182.216 112.284 182.596 112.127 182.685C111.942 182.786 111.63 182.645 111.241 182.594C110.277 181.801 109.223 180.935 108.17 180.073C105.428 177.829 102.655 175.614 99.9492 173.331C97.448 171.225 94.9914 169.062 92.3541 167.124C91.808 166.727 91.3357 166.22 90.8421 165.75C90.2493 165.186 89.7285 164.522 89.0716 164.049C85.6394 161.572 82.8194 158.359 79.4475 155.804C78.0423 154.739 76.7829 153.465 75.4633 152.291C73.3274 150.383 71.1294 148.554 68.8652 146.804C68.1286 146.238 67.3337 145.665 66.914 144.752C66.7624 144.425 66.8615 144.226 67.1588 144.085C67.8274 143.773 68.5037 143.903 69.1276 144.139C71.6638 145.098 74.1826 146.1 76.7071 147.091C79.4844 148.182 82.1333 149.608 84.895 150.699C88.5643 152.152 92.0159 154.047 95.6036 155.65C99.1932 157.254 102.672 159.126 106.355 160.53C107.177 160.842 107.663 161.501 107.902 162.325C108.705 165.099 109.148 167.956 109.713 170.786C110.254 173.481 110.718 176.184 111.666 178.782C112.036 179.8 112.166 180.915 112.356 181.995Z" fill="#C197D2"/>
<path d="M110.314 185.51C110.619 185.904 110.619 186.661 110.314 187.053C109.395 188.261 108.275 189.257 107.088 190.187C105.259 191.616 103.564 193.16 102.105 195.017C100.933 196.514 99.4265 197.742 98.0427 199.068C97.8698 199.234 97.5472 199.242 97.2926 199.321C97.1682 199.286 97.0088 199.292 96.9214 199.213C96.6143 198.946 96.2742 198.693 96.0662 198.358C93.9614 194.983 91.5651 191.796 89.7383 188.237C89.2388 187.262 88.5741 186.367 87.9503 185.471C86.4674 183.326 85.0253 181.162 83.8903 178.79C83.282 177.558 82.5843 176.38 81.7972 175.256C79.397 171.737 77.4069 167.968 75.2904 164.279C73.31 160.829 71.3316 157.374 69.39 153.9C68.7195 152.706 68.1462 151.45 67.5768 150.201C67.5107 149.934 67.567 149.697 67.7478 149.491C67.8858 149.37 68.2647 149.394 68.4494 149.505C69.1549 149.914 69.8292 150.369 70.4764 150.869C71.4385 151.63 72.3577 152.451 73.2867 153.256C77.6168 157.018 81.9119 160.821 86.2827 164.532C88.7821 166.653 91.2561 168.793 93.6233 171.067C94.8924 172.295 96.35 173.327 97.7298 174.448C100.062 176.336 102.478 178.121 104.703 180.136C106.615 181.87 108.705 183.436 110.314 185.51Z" fill="#C197D2"/>
<path d="M93.1996 199.669C93.2521 200 93.1452 200.247 92.8206 200.31C92.1676 200.441 91.503 200.622 90.8441 200.622C88.131 200.622 85.4199 200.531 82.7068 200.533C77.9569 200.533 73.209 200.563 68.4591 200.624C67.1084 200.642 65.7558 200.798 64.4089 200.935C62.7803 201.111 61.173 201.17 59.5561 200.781C57.8711 200.379 57.5309 200.059 57.4921 198.285C57.4357 195.802 57.4221 193.317 57.393 190.833C57.3794 190.556 57.3832 190.281 57.4066 190.005C57.8672 186.454 58.1645 182.881 58.6329 179.334C58.8117 177.963 58.94 176.603 59.043 175.229C59.3481 171.09 59.1946 166.952 59.1149 162.814C59.0371 158.521 59.4258 154.274 60.2829 150.068C60.5064 148.955 60.3879 147.888 60.4034 146.784C60.4054 145.892 60.6774 145.098 61.2255 144.4C61.9232 145.325 62.6034 146.023 63.0465 146.855C64.9609 150.501 67.3047 153.896 69.0208 157.657C69.8779 159.526 71.0401 161.24 72.1245 162.986C74.2099 166.363 76.1145 169.855 78.0988 173.293C78.7868 174.479 79.5234 175.63 80.2152 176.824C81.185 178.483 82.1276 180.158 83.0935 181.819C83.6435 182.768 84.2091 183.709 84.7785 184.644C87.136 188.508 89.507 192.364 91.8547 196.235C92.5077 197.297 93.0033 198.426 93.1996 199.669Z" fill="#C197D2"/>
</svg>
