<svg width="257" height="272" viewBox="0 0 257 272" fill="none" xmlns="http://www.w3.org/2000/svg">
<path d="M92.4328 57.2025C92.4033 58.5 92.0233 60.432 91.6279 61.1791C91.1016 62.1809 90.5752 62.5755 89.4481 62.8438L88.4532 63.0826L89.1696 63.4784C90.9115 64.437 91.9348 66.5099 92.3301 69.9509L92.506 71.4314L92.6228 69.8804C92.8128 66.8909 93.3403 65.3819 94.4957 64.3801C94.8911 64.0424 95.5048 63.6614 95.8706 63.5204L96.5445 63.2805L95.6806 63.0269C94.7294 62.7301 93.8525 62.1104 93.5008 61.4474C93.194 60.8971 92.7255 58.6694 92.696 57.7529C92.6665 56.6249 92.4469 56.1598 92.4328 57.2025Z" fill="white"/>
<path d="M136.648 57.5266C135.376 58.5853 133.356 60.615 132.492 61.701C130.722 63.915 128.981 67.0171 127.943 69.7678C127.548 70.8526 127.387 71.1073 127.051 71.2335C125.909 71.6986 124.446 74.0684 123.788 76.5223C123.349 78.1439 123.188 80.5967 123.408 82.2194C123.481 82.797 123.524 83.2905 123.509 83.319C123.495 83.3326 123.232 82.9664 122.939 82.5014C122.47 81.7679 122.339 81.3585 121.958 79.4266C121.709 78.2144 121.359 76.4234 121.169 75.45C120.291 71.0641 118.477 67.4969 116.003 65.2966C114.614 64.056 112.624 62.7585 111.483 62.3219C109.99 61.7715 107.328 61.9273 106.288 62.6323L105.894 62.9143L104.197 61.701C102.777 60.6719 102.441 60.4888 102.031 60.5309C101.622 60.573 101.563 60.6298 101.519 61.0096C101.489 61.3633 101.592 61.5748 102.075 62.0683C103.187 63.2236 103.626 64.3528 104.343 67.9336C105.265 72.5174 106.215 74.5756 108.424 76.8316C110.926 79.3708 113.999 81.0481 118.798 82.5287C120.714 83.1075 120.744 83.1211 121.695 84.0376C123.188 85.4909 123.524 86.0117 124.183 88.0574C124.519 89.0717 124.987 90.285 125.236 90.7501C126.347 92.8936 128.293 95.4044 130.928 98.0971C131.762 98.9579 132.698 99.9586 133.005 100.311L133.546 100.946L133.224 108.194L132.888 115.428L134.893 127.838C135.989 134.676 136.897 140.345 136.897 140.459C136.897 140.981 137.365 139.88 139.897 133.407C141.389 129.572 144.271 122.211 146.276 117.078L149.933 107.715L149.83 95.3759L149.729 83.037L148.631 82.5571L147.534 82.0784L140.95 84.4049C137.322 85.674 134.322 86.7599 134.278 86.8156C134.175 86.9146 134 90.0451 133.985 92.1317C133.971 93.6555 133.971 93.6691 133.517 94.0785C133.283 94.29 132.668 94.7414 132.171 95.0507L131.264 95.6432L130.971 95.277C130.811 95.0792 130.255 94.2752 129.743 93.486L128.821 92.0476L129.142 90.9764C129.318 90.3839 129.844 89.1286 130.328 88.17C132.566 83.643 135.858 79.9769 139.047 78.4259C139.545 78.186 139.998 77.9881 140.043 77.9881C140.087 77.9881 140.116 78.4395 140.116 78.9899V79.9906L138.39 81.8384C136.151 84.2639 135.083 85.4624 135.156 85.5182C135.2 85.5466 146.656 81.5143 147.007 81.3449C147.065 81.3165 146.509 73.2508 146.422 72.9256C146.407 72.8983 145.88 73.5044 145.222 74.2651C144.579 75.0407 143.511 76.2676 142.852 76.9874L141.652 78.327L141.535 77.6924C140.833 73.899 140.599 73.095 139.633 71.2904C138.857 69.8235 137.263 68.2725 135.77 67.5106C135.2 67.2286 134.629 66.9898 134.498 66.9898C134.088 66.9898 134.088 66.6793 134.555 64.9441C135.112 62.8006 136.238 60.5593 137.541 58.9514C138.536 57.7529 138.682 57.3151 138.272 56.9205C137.906 56.568 137.702 56.6385 136.648 57.5266ZM133.459 63.3089C133.341 63.6466 133.064 64.7053 132.858 65.6775C132.435 67.6516 132.478 68.0473 133.195 68.1883C134.322 68.4135 134.834 68.5965 135.55 69.048C135.961 69.3163 136.312 69.5836 136.312 69.6541C136.312 69.7246 136.092 69.8519 135.815 69.9509C133.883 70.557 129.801 74.0968 127.913 76.7759C127.46 77.4389 127.445 77.3115 127.826 75.4364C128.455 72.4184 129.391 69.753 130.781 67.0603C131.616 65.4524 133.487 62.5334 133.62 62.6596C133.649 62.688 133.576 62.9848 133.459 63.3089ZM109.757 64.6905C109.757 65.4103 109.741 66.0016 109.712 66.0016C109.61 66.0016 107.049 63.8161 107.049 63.7171C107.049 63.6614 107.298 63.5761 107.605 63.534C107.898 63.4783 108.22 63.4215 108.293 63.393C108.38 63.3646 108.732 63.351 109.098 63.3646L109.757 63.393V64.6905ZM111.278 63.7603C111.731 63.915 111.746 63.9286 111.629 64.5779C111.57 64.9304 111.511 65.7765 111.511 66.4531C111.511 67.6379 111.497 67.68 111.248 67.4401C110.663 66.8624 110.253 63.6045 110.78 63.6045C110.795 63.6045 111.015 63.6751 111.278 63.7603ZM106.903 65.5934C107.884 66.3826 108.659 67.0319 108.629 67.0455C108.6 67.0603 107.927 67.0455 107.122 67.0171L105.645 66.9614L105.396 65.7901C105.249 65.1283 105.103 64.5074 105.059 64.3801C105.016 64.2675 105.016 64.1686 105.059 64.1686C105.103 64.1686 105.937 64.8179 106.903 65.5934ZM113.633 65.2409C114.072 65.5786 114.731 66.1005 115.081 66.3973L115.74 66.9466L115.491 67.9905C115.346 68.5681 115.184 69.5984 115.126 70.2749L115.024 71.5156L113.853 70.2044C112.975 69.2026 112.653 68.7239 112.506 68.1883C112.185 67.0319 112.316 64.3528 112.668 64.5495C112.755 64.6064 113.194 64.9168 113.633 65.2409ZM108 67.8495C109.83 68.1735 110.283 68.4271 111.687 69.9645C112.389 70.74 113.004 71.4451 113.034 71.5303C113.063 71.6008 112.799 71.5303 112.463 71.3609C111.483 70.881 109.741 70.5001 108 70.4023L106.406 70.3034L106.127 69.2174C105.967 68.6113 105.878 68.0189 105.937 67.9063C106.04 67.6516 106.772 67.6243 108 67.8495ZM116.472 69.0343C116.355 69.4994 116.252 70.557 116.238 71.3893C116.223 72.3195 116.165 72.8699 116.076 72.813C115.886 72.7004 116.048 69.0616 116.268 68.343C116.545 67.4401 116.721 68.0473 116.472 69.0343ZM118.564 71.7134C119.061 72.9256 119.603 74.9429 119.911 76.6486C120.057 77.4662 120.159 78.1291 120.13 78.1291C120.042 78.1291 117.54 74.6745 117.437 74.3925C117.087 73.4896 116.954 70.2181 117.247 69.3869C117.32 69.1469 117.993 70.3455 118.564 71.7134ZM137.439 70.6411C137.599 70.8958 137.526 70.9663 136.561 71.4166C134.98 72.1364 133.078 73.518 131.41 75.0975C129.801 76.6349 128.601 78.2701 127.68 80.1179C127.051 81.4154 126.86 81.2175 127.372 79.7791C128.513 76.5781 132.215 72.6584 135.785 70.8674C136.911 70.3034 137.19 70.2613 137.439 70.6411ZM109.039 71.2904C109.757 71.4166 110.678 71.6145 111.072 71.7418C111.893 71.9954 113.839 72.8983 113.75 72.9825C113.721 73.0109 113.253 72.8835 112.697 72.6868C111.248 72.1785 109.229 71.8828 107.986 71.9806C106.991 72.0511 106.932 72.0375 106.845 71.7418C106.64 70.98 106.845 70.9379 109.039 71.2904ZM138.638 72.5174C139.092 73.4475 139.531 74.7586 139.531 75.1817C139.531 75.3511 139.193 75.591 138.463 75.9299C137.892 76.1971 136.502 76.9874 135.39 77.7061C131.996 79.8644 129.816 82.2751 127.957 85.8707L127.124 87.4786L127.021 86.3926C126.875 84.9974 126.978 84.3481 127.591 82.5719C128.542 79.8644 129.684 78.0586 131.776 75.9583C133.43 74.3083 135.229 72.9688 136.824 72.2069C137.468 71.8965 138.038 71.6429 138.097 71.6429C138.155 71.6429 138.39 72.0375 138.638 72.5174ZM110.21 72.9256C111.497 73.1371 112.828 73.5885 114.219 74.2651C115.843 75.0554 116.208 75.309 116.632 75.9015L116.984 76.4086L115.989 76.0709C113.94 75.3795 112.156 75.3511 110.386 75.9583L109.757 76.1698L109.068 75.4216C108.41 74.7029 107.605 73.5465 107.401 73.0109C107.328 72.7994 107.415 72.7709 108.323 72.7709C108.878 72.7709 109.727 72.8414 110.21 72.9256ZM126.421 75.027C125.997 77.0011 125.66 79.7791 125.514 82.5014L125.397 84.5459L125.148 83.5441C124.607 81.3301 124.68 78.4395 125.338 76.3813C125.645 75.4364 126.626 73.2645 126.713 73.3486C126.743 73.377 126.612 74.1389 126.421 75.027ZM115.111 76.6633C116.165 76.9454 118.139 77.8334 118.228 78.0586C118.257 78.1575 117.862 78.0586 117.262 77.8334C115.053 76.959 113.048 76.7191 111.776 77.1841C111.19 77.3957 111.161 77.3957 110.853 77.0716C110.663 76.8748 110.59 76.7191 110.692 76.6633C111.351 76.2676 113.707 76.2676 115.111 76.6633ZM139.824 76.4939C139.824 76.6065 139.852 76.7759 139.897 76.8885C139.955 77.0159 139.604 77.2546 138.843 77.6219C137.175 78.4111 136.122 79.1866 134.482 80.8366C131.849 83.4736 129.625 86.9293 128.557 90.0451L128.22 91.0321L128.001 90.5386C127.46 89.298 127.635 88.3815 128.806 86.097C130.781 82.2466 133.576 79.5391 138.141 77.0159C139.502 76.2676 139.824 76.1698 139.824 76.4939ZM114.965 77.9745C115.564 78.1155 116.282 78.327 116.56 78.4395C117.057 78.6374 117.043 78.6374 115.828 78.6374C115.14 78.6226 114.321 78.6658 113.985 78.7215C113.473 78.8205 113.297 78.7784 112.668 78.3838C111.98 77.9597 111.966 77.9324 112.316 77.8334C112.975 77.6504 113.853 77.7061 114.965 77.9745ZM118.388 79.9622C119.529 80.3294 119.852 80.4989 120.174 80.8935C120.378 81.1618 120.51 81.4154 120.467 81.4575C120.349 81.5701 116.501 80.301 115.463 79.8075L114.585 79.3981L115.784 79.455C116.618 79.4971 117.409 79.6529 118.388 79.9622ZM133.722 97.1942C133.679 97.9982 133.62 98.6759 133.59 98.6895C133.546 98.7464 132.171 97.0816 132.112 96.9122C132.083 96.8144 133.517 95.799 133.707 95.7705C133.766 95.7569 133.766 96.405 133.722 97.1942Z" fill="white"/>
<path d="M78.8844 59.5723C78.4891 59.8395 77.2605 60.6014 76.1771 61.2779C69.8715 65.2124 67.2373 68.1178 65.8624 72.7004C64.8239 76.1414 65.0575 78.1859 66.96 82.656L67.6622 84.306L67.1795 86.6894C66.9163 87.9868 66.6378 89.3685 66.5646 89.763L66.4478 90.4681L66.0961 89.5515C65.2039 87.1829 63.9022 85.152 62.3951 83.7556C60.698 82.2045 59.3514 81.6269 57.3321 81.5848L55.9714 81.5564L54.0407 79.7233C50.7775 76.6485 47.8223 74.322 47.1496 74.322C46.2562 74.322 46.2421 75.2101 47.1201 76.1971C47.9687 77.1705 48.6272 78.1859 49.5053 79.8916C50.7492 82.3035 50.7338 82.0783 49.8263 83.0369C48.8904 84.024 48.1882 85.1236 47.6618 86.421C47.3101 87.2955 47.2806 87.5354 47.296 89.5515C47.296 91.3425 47.3538 91.9634 47.617 93.0061C48.9341 98.055 52.1382 101.369 57.1575 102.864C59.1756 103.47 60.7417 103.596 62.5709 103.314C63.4041 103.188 64.458 102.92 64.8817 102.737C65.3207 102.539 65.7019 102.384 65.7314 102.384C65.7597 102.384 65.7893 102.934 65.7893 103.611C65.7893 104.302 65.8624 105.599 65.9509 106.502L66.0961 108.165L65.3502 109.604C64.268 111.719 63.9895 112.89 63.9753 115.217C63.9753 118.037 64.4722 120.011 65.8919 122.747C67.15 125.172 68.8176 127.231 70.6905 128.655C71.3054 129.12 71.5249 129.417 72.0217 130.517L72.6224 131.828L70.7058 130.206C67.209 127.259 65.2476 126.216 61.4002 125.271C58.3565 124.524 56.5131 124.594 55.065 125.525C54.187 126.075 53.6453 126.738 52.9868 128.063L52.4604 129.12L50.7492 129.29C48.2024 129.543 46.2279 130.037 44.355 130.94C42.5257 131.799 41.5013 132.632 41.5013 133.266C41.5013 133.76 41.9699 134.169 42.4089 134.07C42.5989 134.028 43.1406 133.887 43.6233 133.775C45.2035 133.379 49.2562 133.563 49.2562 134.028C49.2562 134.112 49.1831 134.621 49.1099 135.142C48.7582 137.496 49.8121 140.106 51.9482 142.179C53.8506 144.012 56.2936 145.323 59.1909 146.057C60.3758 146.367 60.9317 146.423 62.7173 146.438C65.087 146.438 66.0524 146.253 67.6327 145.506L68.5402 145.07L69.0229 145.422C69.3014 145.619 69.7393 145.845 70.0178 145.944C70.72 146.169 72.5929 146.141 73.5878 145.887C75.1091 145.506 77.29 144.308 78.5917 143.123L79.0449 142.715L80.5673 144.561C84.6779 149.54 90.4725 153.953 95.7396 156.083C96.4418 156.378 96.9977 156.957 97.8899 158.354C97.9926 158.508 97.8462 158.522 97.0118 158.451C96.456 158.396 95.4764 158.268 94.8321 158.156C90.5457 157.422 85.7318 157.281 82.6149 157.803C80.5225 158.142 78.7086 158.579 78.2696 158.861C78.0654 158.988 77.5827 159.072 76.982 159.072C76.4556 159.072 75.5481 159.171 74.9627 159.284C74.3773 159.396 73.3246 159.552 72.5929 159.636C70.7932 159.848 70.281 160.002 69.7546 160.469C69.3746 160.806 69.3014 160.976 69.3014 161.54C69.3014 162.132 69.3746 162.26 70.0768 162.978C71.0127 163.937 72.1539 164.699 73.7342 165.417C74.9344 165.981 77.2605 166.688 77.8459 166.688C78.0205 166.688 78.2849 166.772 78.4454 166.871C79.4698 167.534 85.1606 169.466 87.2235 169.845C92.0233 170.735 94.1735 171.114 95.5933 171.354C96.5008 171.51 97.9489 171.848 98.8116 172.103C101.519 172.92 104.108 173.568 106.757 174.09C108.161 174.359 109.434 174.626 109.581 174.668C109.83 174.738 112.814 178.659 112.712 178.772C112.579 178.884 106.523 177.446 103.465 176.558C92.0528 173.273 92.1259 173.286 87.8089 173.202C82.7613 173.103 82.4249 173.117 81.7369 173.456C79.674 174.471 80.7574 176.855 84.1952 178.913C84.8101 179.28 86.0103 180.111 86.8588 180.761C88.8038 182.241 92.7113 184.68 94.4957 185.513C95.2416 185.865 96.4123 186.317 97.1004 186.528C97.7884 186.725 98.3584 186.909 98.3879 186.923C98.4174 186.936 98.2711 187.205 98.0516 187.487C97.8462 187.782 97.6857 188.064 97.6857 188.135C97.6857 188.206 97.4367 188.319 97.144 188.403C96.456 188.586 96.3096 188.672 96.0901 189.095C95.8423 189.546 95.9886 190.223 96.5008 190.913C96.9387 191.492 99.0311 192.93 100.129 193.395C100.48 193.55 100.758 193.706 100.758 193.762C100.758 193.988 103.568 196.061 105.016 196.907C106.845 197.993 108.015 198.57 111.658 200.22C114.76 201.63 116.648 202.35 118.651 202.857C121.169 203.52 127.269 204.592 129.361 204.761C132.332 204.987 136.371 205.763 139.794 206.735C141.432 207.201 143.744 207.779 144.915 208.004C146.1 208.244 148.222 208.695 149.626 208.992C151.031 209.302 153.708 209.81 155.552 210.12C157.409 210.43 159.707 210.839 160.673 211.022C165.37 211.953 168.954 212.376 174.207 212.658C180.337 212.982 181.917 213.293 184.492 214.632C187.55 216.226 191.822 219.427 195.671 223.008C197.104 224.334 198.157 225.209 198.333 225.209C198.699 225.209 199.065 224.715 198.977 224.348C198.889 224.052 194.69 220.118 192.993 218.75C189.496 215.958 185.107 213.236 182.882 212.503C180.776 211.812 178.127 211.473 172.597 211.178C168.998 210.994 165.457 210.529 160.38 209.556C159.18 209.33 157.263 208.977 156.137 208.78C150.811 207.821 142.106 206.002 140.481 205.494C139.399 205.156 137.057 204.536 136.165 204.353C134.482 204 130.795 203.478 129.142 203.337C127.065 203.182 120.627 201.998 118.447 201.363C114.701 200.291 107.694 197.061 104.298 194.847L103.669 194.439L103.932 194.072C104.314 193.523 104.284 191.787 103.859 190.998C103.289 189.912 101.972 189.053 100.261 188.629C99.1338 188.347 99.0169 188.206 100.026 188.333C101.548 188.531 104.854 189.39 108.41 190.505C118.096 193.565 120.949 194.157 128.996 194.75C132.961 195.032 134.454 194.904 134.834 194.213C135.653 192.747 133.62 191.928 126.187 190.73C122.441 190.124 119.939 189.8 115.463 189.32C112.463 188.996 111.205 188.77 107.21 187.769C100.801 186.176 96.8077 185.033 95.3738 184.37C94.6126 184.032 93.004 183.143 91.7742 182.382L89.5355 181.014L89.9745 180.732C90.2093 180.563 90.5457 180.21 90.692 179.942C91.3352 178.814 90.633 176.811 89.1118 175.43C88.6728 175.035 88.3211 174.683 88.3211 174.641C88.3211 174.5 90.4135 174.597 91.5547 174.795C92.2274 174.908 93.7062 175.26 94.8321 175.586C95.9591 175.91 97.773 176.403 98.8564 176.699C99.9387 176.996 102.016 177.573 103.465 178.011C106.098 178.787 112.053 180.153 114.658 180.578C116.442 180.873 121.725 181.028 122.749 180.816C123.173 180.732 124.08 180.563 124.782 180.45C126.04 180.252 127.533 179.717 128.293 179.195C128.675 178.928 128.703 178.928 129.625 179.166C130.708 179.448 131.278 179.378 131.424 178.928C131.63 178.293 131.088 178.095 125.983 176.868C123.334 176.234 120.012 175.487 118.608 175.205C117.203 174.923 115.024 174.456 113.78 174.161C112.536 173.865 109.873 173.286 107.854 172.892C104.021 172.13 102.909 171.863 99.4406 170.847C98.2711 170.508 96.6908 170.127 95.9296 170.001C95.1684 169.874 93.9104 169.649 93.1491 169.508C92.3891 169.352 90.5162 169.014 88.9796 168.746C87.1515 168.422 85.4686 168.012 84.0784 167.561L81.9564 166.871L82.4403 166.631C83.4352 166.137 84.5315 163.796 84.2837 162.696C84.0347 161.582 83.0693 160.469 81.8396 159.918L80.991 159.524L81.6932 159.368C83.4635 158.988 84.5174 158.903 87.443 158.918C89.8281 158.918 91.0425 158.988 92.4918 159.213C93.5445 159.368 95.1543 159.594 96.076 159.72C96.9977 159.834 98.8411 160.187 100.172 160.496C101.504 160.806 103.845 161.315 105.366 161.61C108.41 162.231 109.61 162.513 113.092 163.487C115.696 164.219 121.022 165.432 123.216 165.798C125.368 166.151 130.093 166.151 131.161 165.798C132.053 165.488 133.21 164.459 133.341 163.853C133.386 163.628 133.503 163.443 133.59 163.443C133.679 163.443 134.205 163.641 134.775 163.866C136.238 164.474 136.897 164.403 136.897 163.641C136.897 163.232 136.78 163.161 135.068 162.498C131.396 161.046 126.978 159.636 122.573 158.522C117.613 157.239 114.365 156.111 109.757 154.023C105.878 152.276 104.972 151.937 102.075 151.175C98.3443 150.188 94.5984 148.694 92.4328 147.326L91.4969 146.748L92.0374 146.634C92.3301 146.579 92.755 146.438 92.9886 146.324C93.5303 146.042 94.4367 145.07 94.5547 144.618C94.6857 144.083 94.3789 142.757 93.9257 141.882C93.515 141.107 93.4713 141.078 91.6574 140.063C91.2774 139.851 90.9552 139.64 90.9552 139.569C90.9552 139.217 98.0952 139.697 99.7333 140.177C100.012 140.261 101.139 140.472 102.221 140.67C105.118 141.177 106.537 141.587 110.093 142.911C114.205 144.449 116.325 145.098 119.559 145.817C122.822 146.537 122.777 146.522 126.948 147.974C131.103 149.412 134.555 150.513 135.946 150.822C138.374 151.359 142.676 152.148 144.359 152.375C145.368 152.501 147.314 152.769 148.675 152.952C150.05 153.15 152.113 153.417 153.284 153.573C154.454 153.728 156.167 154.01 157.088 154.208C158.01 154.404 159.927 154.785 161.345 155.039C162.75 155.307 164.652 155.688 165.56 155.9C167.286 156.294 167.842 156.281 167.988 155.829C168.193 155.208 167.872 155.025 165.618 154.503C164.418 154.235 162.823 153.911 162.063 153.785C161.302 153.657 159.854 153.375 158.843 153.15C157.834 152.924 156.533 152.657 155.961 152.571C155.376 152.472 154.834 152.331 154.747 152.234C154.66 152.135 155.215 150.258 156.459 146.508C157.468 143.448 158.346 140.895 158.42 140.825C158.551 140.684 160.146 141.924 163.16 144.477C165.969 146.889 168.062 148.425 169.846 149.412C172.231 150.725 173.592 151.626 176.211 153.671C179.986 156.59 181.756 158.085 185.253 161.286C190.447 166.052 193.724 169.578 198.173 175.205C201.216 179.069 202.971 180.732 208.151 184.652C212.657 188.079 214.603 189.137 215.174 188.488C215.525 188.064 215.277 187.656 214.442 187.218C213.242 186.612 211.428 185.385 208.883 183.453C204.274 179.957 202.138 177.968 199.826 175.007C194.895 168.732 191.486 165.051 185.97 160.046C182.049 156.492 180.922 155.547 177.265 152.712C174.118 150.287 173.285 149.723 171.426 148.707C168.867 147.297 167.198 146.085 163.671 143.067C162.662 142.221 161.199 141.008 160.424 140.402C159.634 139.796 158.99 139.217 158.99 139.119C158.99 139.005 160.54 134.268 162.443 128.585L165.896 118.248L166.247 115.583C166.612 112.791 167.008 110.464 167.476 108.194C167.637 107.447 167.739 106.826 167.71 106.798C167.696 106.77 166.832 107.968 165.809 109.449L163.936 112.128L157.892 124.496C143.495 153.968 145.018 150.963 144.49 151.007C144.11 151.049 144.051 151.02 144.124 150.795C144.169 150.654 148.529 141.728 153.796 130.953C159.371 119.532 163.321 111.296 163.262 111.212C163.189 111.127 161.638 109.238 159.795 106.995L156.444 102.948L156.005 103.343C150.898 107.898 150.87 107.926 150.562 108.645C150.387 109.04 147.373 116.697 143.876 125.652L137.512 141.939L136.604 145.605C136.107 147.621 135.682 149.286 135.668 149.315C135.536 149.427 134.863 149.046 134.921 148.89C134.951 148.793 135.317 147.312 135.726 145.619C136.4 142.841 136.458 142.461 136.327 141.882C136.238 141.53 135.376 136.284 134.409 130.235L132.654 119.235L129.04 108.165C127.065 102.074 125.397 97.0395 125.324 96.969C125.265 96.9122 124.387 97.0964 123.378 97.3784C121.885 97.8151 121.535 97.9561 121.535 98.1676C121.535 98.3086 122.061 101.298 122.704 104.81C123.363 108.321 124.709 115.668 125.718 121.139C126.729 126.611 127.767 132.279 128.046 133.76C129.596 142.052 130.605 147.692 130.562 147.749C130.415 147.876 129.713 147.438 129.654 147.171C129.611 147.002 129.26 145.098 128.865 142.926C128.455 140.754 127.767 137.003 127.328 134.606C126.875 132.195 125.368 123.945 123.948 116.274C122.544 108.588 121.212 101.397 121.007 100.269C120.759 98.9715 120.524 98.1255 120.364 97.9424C120.232 97.7866 118.843 95.277 117.291 92.3716C115.74 89.4674 114.438 87.0555 114.423 87.0271C114.365 86.9566 107.298 87.7185 107.196 87.8026C107.138 87.8731 107.269 92.3864 108.059 117.05L108.469 129.389L110.4 135.791C111.468 139.302 112.316 142.193 112.287 142.221C112.258 142.235 112.039 142.164 111.79 142.065C111.351 141.897 111.321 141.812 109.931 137.172C108.922 133.802 108.307 132.026 107.795 130.953C107.386 130.136 107.035 129.459 107.006 129.459C106.962 129.459 103.289 131.42 98.8116 133.817C90.8525 138.075 90.6767 138.159 89.7113 138.23C89.1696 138.273 88.7896 138.273 88.8628 138.216C88.9218 138.159 92.886 136.031 97.6562 133.478L106.333 128.838L105.366 127.992C104.826 127.527 99.9977 123.324 94.6421 118.643C89.2723 113.961 84.8396 110.14 84.7664 110.14C84.7074 110.14 84.6637 116.627 84.6779 124.551L84.6932 138.963L84.0193 139.146C83.2003 139.386 82.1759 140.274 82.1759 140.754C82.1913 141.276 82.4686 141.671 83.7267 142.884C84.9859 144.096 86.5508 145.211 87.7652 145.746C88.9796 146.282 89.8871 147.242 91.8474 149.976C92.8281 151.373 93.8962 152.853 94.203 153.248C94.5099 153.657 94.7152 153.996 94.6421 153.996C94.4662 153.996 92.0374 152.628 90.882 151.88C87.7805 149.864 84.8242 147.255 82.2644 144.323C79.733 141.417 77.4068 137.849 74.9486 133.125C73.5878 130.488 71.6417 126.089 71.6417 125.595C71.6417 125.483 71.8612 125.37 72.2129 125.313C74.2759 125.003 76.5288 123.748 78.6212 121.746C81.299 119.179 83.552 114.822 84.0784 111.17C84.3852 108.969 83.8447 104.979 82.9808 103.301L82.6303 102.609L83.0835 101.609C83.3325 101.073 83.8883 99.987 84.312 99.1967C84.7664 98.3791 85.1027 97.5899 85.1027 97.35C85.1027 97.0111 85.2196 96.8417 85.6586 96.5597C86.8872 95.7841 88.8038 94.1069 89.4918 93.2324C90.3993 92.076 91.3789 90.2566 91.9064 88.776C92.6086 86.7735 92.5355 84.2639 91.7164 81.9225L91.4379 81.1618L92.1106 80.3999C92.4764 79.9769 93.6472 78.8773 94.6857 77.946C95.7396 77.0158 96.6318 76.1414 96.6908 75.9856C96.8372 75.6479 96.6023 75.2101 96.2518 75.1111C95.8128 74.9701 90.8384 75.9719 88.8769 76.5928C87.122 77.142 87.063 77.1568 86.1413 76.9874C85.5418 76.8748 84.4737 76.8464 83.1425 76.9021C81.05 76.9874 79.6008 77.2546 77.4364 77.9881L76.5725 78.2701L77.4505 77.3956C79.3081 75.5205 80.362 73.8148 81.2259 71.3188C81.8986 69.3436 82.0886 67.9199 81.9859 65.5934C81.8986 63.6045 81.7086 62.6459 81.05 60.7139C80.4493 58.923 80.1283 58.7535 78.8844 59.5723ZM77.1873 63.6193C76.5288 64.662 75.8266 65.7628 75.6508 66.0584L75.3286 66.6088L75.2271 66.0584C75.1091 65.3534 74.8895 64.4085 74.7727 64.1265C74.7149 63.9718 75.1681 63.6045 76.4851 62.7733C77.4647 62.1388 78.2991 61.6452 78.3286 61.6873C78.3581 61.7157 77.8459 62.5754 77.1873 63.6193ZM80.3478 63.8444C80.7137 66.1426 80.7278 66.0721 79.6008 66.3404C78.6212 66.5804 77.4647 67.0739 76.733 67.5811C76.4993 67.7368 76.3235 67.821 76.3235 67.7653C76.3235 67.7221 76.9088 66.7771 77.611 65.6775C78.3132 64.5779 79.1181 63.3089 79.3813 62.8438C79.982 61.842 80.0398 61.9125 80.3478 63.8444ZM74.2322 64.9725C74.3773 65.6218 74.3632 67.8915 74.2322 68.4271C74.0563 69.0764 73.8805 68.8785 73.8073 67.9336C73.7637 67.4548 73.5583 66.6509 73.3541 66.1426L72.9729 65.2408L73.4415 64.8463C73.7047 64.6348 73.9537 64.4653 74.0127 64.4505C74.0705 64.4505 74.1732 64.6905 74.2322 64.9725ZM72.5788 66.453C72.9588 67.4128 73.0756 68.4703 72.9446 69.753C72.8419 70.74 72.7098 71.1494 72.1681 72.1648C71.7881 72.8983 71.4954 73.3213 71.4517 73.1939C71.408 73.0814 71.2912 72.5173 71.1885 71.9385C71.0127 70.9663 70.3695 69.4573 69.7983 68.7239C69.5788 68.4271 69.6083 68.3714 70.8522 67.1444C71.5544 66.4394 72.1681 65.8606 72.2412 65.8606C72.3003 65.8606 72.4608 66.1289 72.5788 66.453ZM80.5673 67.4685C80.5673 68.2588 80.4493 68.3998 79.8356 68.3998C78.9139 68.3998 77.8164 68.7091 76.4851 69.33L75.2271 69.9224L76.1039 69.1469C77.3478 68.0609 79.353 67.017 80.2452 66.9897C80.5225 66.9897 80.5673 67.0603 80.5673 67.4685ZM69.7251 70.1203C69.9883 70.6274 70.2668 71.5303 70.3837 72.2069C70.6173 73.5328 70.72 75.2521 70.5737 75.4079C70.5158 75.45 70.471 75.3374 70.471 75.1396C70.471 74.9428 70.3105 74.181 70.1205 73.4475C69.7983 72.2353 69.4324 71.4029 68.7597 70.3591C68.5402 70.035 68.5402 69.9793 68.7892 69.6256C68.9202 69.4141 69.0961 69.2458 69.1693 69.2458C69.2283 69.2458 69.4761 69.6404 69.7251 70.1203ZM80.2747 69.372C80.2747 69.9361 79.1771 72.6868 78.5622 73.6738C78.1669 74.3083 78.1386 74.322 77.421 74.322C75.9729 74.322 74.0268 75.027 72.4903 76.1129C72.0949 76.3813 71.7881 76.5496 71.7881 76.4791C71.7881 76.4234 72.2707 75.3795 72.8561 74.181C73.851 72.15 73.9678 71.967 74.7585 71.3461C75.7829 70.5569 76.792 70.0066 78.0654 69.5835C79.0308 69.2458 80.2747 69.1321 80.2747 69.372ZM68.6866 71.8828C69.9741 74.6324 69.8715 77.5366 68.3207 81.7963C68.218 82.1056 67.8085 81.1334 67.2668 79.314C66.711 77.3535 66.5941 76.3381 66.7995 75.027C66.9895 73.9126 67.9407 70.9379 68.1307 70.9379C68.1885 70.9379 68.4376 71.3609 68.6866 71.8828ZM76.9088 75.8594C75.9729 76.9169 74.1142 78.4964 72.0512 79.9348C71.0422 80.6399 70.1641 81.2323 70.1346 81.2323C69.9741 81.2323 70.7932 78.8909 71.1 78.4395C72.0666 77.0431 75.4171 75.1964 77.0257 75.1816L77.5095 75.168L76.9088 75.8594ZM91.7601 78.7079C90.823 79.6528 90.004 80.5546 89.945 80.724C89.8576 80.9219 89.9603 81.4006 90.2235 82.1488C90.4572 82.7686 90.6767 83.5862 90.7357 83.9534L90.8384 84.63L89.624 83.7419C87.751 82.3876 85.5559 81.5416 83.244 81.2744C82.8203 81.2323 82.4686 81.147 82.4686 81.0913C82.4686 80.9639 84.9269 79.6801 86.3608 79.0604C88.1747 78.2849 89.4045 77.8618 91.1747 77.4241C93.7345 76.7759 93.7203 76.7475 91.7601 78.7079ZM84.6637 78.1859C84.6637 78.2144 84.0193 78.5805 83.244 78.9751C82.4544 79.3845 81.1964 80.0895 80.4352 80.5409C79.6893 81.006 79.0603 81.3733 79.0449 81.3733C79.0449 81.3733 79.0308 80.8366 79.0154 80.1884V79.0035L79.8203 78.7784C80.7574 78.5248 82.3223 78.2985 83.493 78.228C83.932 78.1996 84.3852 78.1711 84.4879 78.1575C84.5764 78.1439 84.6637 78.1575 84.6637 78.1859ZM54.9329 82.6696C57.1858 85.0394 58.6787 86.8304 58.2539 86.6746C56.7468 86.1254 54.8892 86.0264 53.5285 86.4347C51.6992 86.985 49.6799 88.3814 49.0072 89.5936L48.744 90.0451L48.7004 89.298C48.6709 88.8749 48.7299 88.212 48.8172 87.8026C49.1536 86.2095 50.5143 84.0808 51.5977 83.4179C52.065 83.1211 52.1819 82.9801 52.1819 82.6276C52.1819 82.1488 51.6555 80.7945 50.8943 79.3276L50.3975 78.3554L51.6992 79.5118C52.4309 80.1463 53.8802 81.57 54.9329 82.6696ZM78.2259 80.1316C78.2117 81.2039 78.0359 82.0499 77.7432 82.3319C77.5532 82.5013 77.5237 82.3455 77.5237 80.9776C77.5378 79.3845 77.5378 79.356 78.1232 79.2719C78.1822 79.2719 78.2259 79.6528 78.2259 80.1316ZM76.7625 80.6819C76.7625 81.147 76.6598 81.9646 76.5288 82.5013C76.3093 83.4315 76.2656 83.502 75.3286 84.2491C74.7881 84.6721 74.0858 85.2793 73.7637 85.5886C73.4556 85.9139 73.1488 86.1674 73.091 86.1674C73.0461 86.1674 73.0615 85.8286 73.1488 85.4203C73.222 85.0246 73.2515 84.0524 73.1925 83.2621L73.1051 81.852L74.1 81.2323C75.1681 80.5546 76.4851 79.8211 76.6598 79.8211C76.7188 79.8211 76.7625 80.2021 76.7625 80.6819ZM84.4442 82.3455C85.1027 82.5013 85.9949 82.7549 86.4481 82.9243C87.3698 83.2484 89.1696 84.3344 90.2672 85.2088C90.8525 85.6876 90.9552 85.8434 90.9552 86.28C90.9552 87.1408 90.7794 87.2113 90.2093 86.6462C88.3659 84.7858 84.2542 83.0085 81.0795 82.6981C80.552 82.6423 80.1283 82.5571 80.1283 82.515C80.1283 82.4581 80.303 82.3171 80.5378 82.1761C81.0347 81.8668 82.6881 81.9373 84.4442 82.3455ZM72.3734 83.7419C72.3734 85.1383 72.1539 86.28 71.7149 87.2113L71.3785 87.93L71.349 86.3084C71.3349 85.4203 71.2759 84.489 71.218 84.2639C71.1295 83.9114 71.2027 83.7419 71.6122 83.2336C71.8907 82.9096 72.1681 82.6423 72.2412 82.6423C72.3144 82.6423 72.3734 83.1359 72.3734 83.7419ZM59.4246 83.4179C60.4348 83.9114 60.7712 84.2491 60.5363 84.5311C60.449 84.63 60.259 85.0531 60.1126 85.4624L59.8495 86.1959L59.4541 85.6171C59.2346 85.293 58.7082 84.6448 58.2834 84.1513C57.1421 82.8538 57.1421 82.8675 57.9329 82.9516C58.3129 82.9948 58.9856 83.2064 59.4246 83.4179ZM81.6059 83.6146C84.8832 84.1786 87.6779 85.434 89.4186 87.0976C90.5894 88.2404 90.5894 88.2256 90.0772 89.4242C89.4918 90.7921 88.4969 92.2875 87.6779 93.063L87.0193 93.6839L86.2876 93.0346C85.3223 92.1601 84.2105 91.4835 82.1027 90.5249C78.9139 89.058 76.1488 88.2825 74.1 88.2825H73.0461L73.91 87.4228C74.3927 86.943 75.6803 85.8434 76.7625 84.9541C79.0449 83.1074 78.9139 83.1495 81.6059 83.6146ZM70.2668 88.5645C70.1051 89.1422 69.7393 89.8199 69.0666 90.7501C68.5402 91.4972 68.0717 92.0896 68.0575 92.0612C67.9407 91.9634 68.2912 89.9325 68.6276 88.5782C68.9639 87.3091 69.7688 85.4624 70.2232 84.9121C70.5005 84.588 70.53 87.5491 70.2668 88.5645ZM61.7507 85.152C61.9702 85.4056 61.9702 85.4624 61.6339 86.0401C61.4439 86.3789 61.2397 86.9009 61.1948 87.1965C61.1075 87.6616 61.0638 87.7185 60.8585 87.5638C60.5812 87.3375 60.6543 86.2095 61.0048 85.4203C61.268 84.8279 61.4002 84.7858 61.7507 85.152ZM63.2141 86.9714C63.5068 87.4228 63.7405 87.8311 63.7405 87.9016C63.7405 87.9721 63.6095 88.1836 63.449 88.3814C63.2873 88.5929 63.0536 89.1001 62.9214 89.5231L62.6878 90.285L62.3809 89.8199C61.9702 89.1854 61.8534 87.4365 62.1897 86.6894C62.3077 86.4074 62.4683 86.1674 62.5556 86.1674C62.6288 86.1674 62.9368 86.5336 63.2141 86.9714ZM58.0497 87.5354C59.0882 88.0141 60.449 89.0865 59.7904 88.917C57.9612 88.4372 57.3038 88.3666 56.0894 88.5361C53.1048 88.9454 50.8943 90.2713 49.6516 92.3716L49.1831 93.1471L49.0072 92.3716C48.8314 91.6109 48.8467 91.5825 49.3436 90.6796C50.237 89.1001 51.5529 88.0289 53.3963 87.3375C54.1728 87.0555 54.5092 87.0135 55.7082 87.0555C56.9085 87.0976 57.259 87.1681 58.0497 87.5354ZM64.4722 89.5515C64.4722 89.6789 64.399 89.8483 64.3258 89.9188C64.2385 90.003 64.0485 90.3839 63.8868 90.7649L63.6095 91.4551L63.5953 90.7216C63.5953 90.3134 63.6968 89.721 63.8431 89.3969C64.0627 88.8602 64.0922 88.8329 64.2822 89.0717C64.3848 89.2127 64.4722 89.4242 64.4722 89.5515ZM76.5725 89.4105C79.6456 90.1156 84.0193 92.1601 85.9654 93.768L86.4635 94.191L86.0386 94.5435C85.3223 95.1496 85.1901 95.136 83.991 94.2752C82.7176 93.345 80.991 92.4706 78.8703 91.6666C76.2798 90.6944 74.1873 90.3839 72.1834 90.6796C71.5544 90.7649 70.9985 90.8069 70.9537 90.7649C70.8227 90.6375 71.8612 89.5095 72.3003 89.3264C72.9729 89.0444 75.1681 89.0865 76.5725 89.4105ZM59.4541 89.7346C60.888 90.2986 61.2397 90.6375 62.3361 92.5411C62.8919 93.4997 63.4926 94.5299 63.6826 94.854L64.019 95.4316L62.6583 95.3611C61.6492 95.3191 61.0934 95.3611 60.4348 95.5453C58.3719 96.1094 56.2204 97.6456 55.1677 99.2956C54.875 99.747 54.567 100.128 54.4938 100.128C54.2602 100.128 53.1048 99.3104 52.4167 98.6327C51.5245 97.7866 50.5143 96.4187 50.0611 95.4316C49.7248 94.7266 49.6953 94.5856 49.8416 94.0364C50.807 90.5386 55.8109 88.3109 59.4541 89.7346ZM65.3361 92.3011C65.5851 93.5702 65.8046 95.4748 65.6866 95.4748C65.5402 95.4748 64.3258 92.8651 64.3258 92.5274C64.3258 91.977 64.7802 90.6375 64.9265 90.7785C64.9844 90.8354 65.1744 91.5256 65.3361 92.3011ZM76.543 91.7792C78.6649 92.3295 81.5906 93.6407 83.303 94.8255C84.4005 95.5726 84.5032 95.6716 84.1952 95.7989C84.0925 95.841 83.7715 95.9684 83.4788 96.0946L82.9513 96.3061L82.0154 95.6716C80.6252 94.713 78.7676 93.8669 76.5878 93.1619C74.2605 92.4137 72.6661 92.0896 71.1449 92.0475C70.5442 92.0339 70.032 91.977 70.032 91.9202C70.032 91.8781 70.5158 91.7655 71.1 91.6666C71.6712 91.5825 72.2566 91.4835 72.3734 91.4551C72.8998 91.3289 75.6071 91.5404 76.543 91.7792ZM73.91 93.2745C75.7381 93.7112 78.1527 94.5151 79.3081 95.0791C80.3915 95.6011 81.7369 96.4471 81.7369 96.6029C81.7369 96.7575 80.6547 96.9975 79.1039 97.1669C77.5095 97.3352 75.8703 97.1669 74.9781 96.7291C74.2168 96.3629 74.0705 96.3914 73.4273 97.0111C72.3593 98.055 70.4427 98.055 68.2334 97.0111C67.6622 96.7439 67.5595 96.6302 67.6327 96.3914C67.8522 95.6864 68.6134 94.0785 69.0229 93.4439L69.4761 92.7526L70.9537 92.8378C71.7739 92.8936 73.1051 93.0766 73.91 93.2745ZM64.1795 96.5324C65.028 97.0259 64.897 97.1237 63.2731 97.1942C61.9997 97.251 61.5902 97.3352 60.6248 97.7309C59.0446 98.3654 57.8738 99.1546 57.0548 100.128C56.3231 100.988 56.0741 101.101 55.6209 100.776C55.3577 100.593 55.3719 100.565 55.7672 99.9017C56.6453 98.4496 58.6492 96.9406 60.4348 96.3629C61.3412 96.0809 63.5505 96.1935 64.1795 96.5324ZM65.3502 98.5064C65.4671 98.7316 65.5851 99.3945 65.6134 99.9449C65.6583 100.791 65.6287 100.974 65.4529 100.974C65.3361 100.974 64.8239 101.157 64.3117 101.383C63.0973 101.919 61.1512 102.173 59.7173 101.975C58.4002 101.792 57.1575 101.425 57.1575 101.242C57.1575 100.959 58.8546 99.4935 59.6594 99.0841C61.2102 98.2665 62.2192 98.0129 63.7405 98.055C65.1166 98.0834 65.1307 98.0834 65.3502 98.5064ZM75.3734 98.3791C76.2361 98.6474 79.3671 98.7032 80.421 98.4644L81.0795 98.3086L80.3478 98.901C79.9525 99.2251 79.0886 99.9722 78.4454 100.565C77.5095 101.425 77.1578 101.665 76.6893 101.736C73.91 102.201 70.1936 103.95 68.2771 105.712L67.4427 106.473L67.3553 105.528C67.2232 104.302 67.2232 99.5219 67.3553 98.8169C67.4132 98.3939 67.4863 98.2949 67.6763 98.3791C68.4671 98.7179 69.9446 99.1125 70.7058 99.2115C71.7881 99.324 73.2078 99.0284 73.9832 98.5064C74.5969 98.0971 74.4954 98.1107 75.3734 98.3791ZM82.1323 100.212C81.8691 100.748 81.4891 101.552 81.3132 101.989L80.9769 102.807L81.2837 103.314C81.4596 103.596 81.5906 103.836 81.5622 103.851C81.5327 103.879 81.1964 104.006 80.7869 104.147C79.0308 104.767 76.9525 105.951 75.1681 107.362C74.1437 108.165 74.1142 108.194 74.349 107.729C75.1976 106.163 77.6405 103.216 79.5276 101.51C80.7137 100.424 82.4686 99.0841 82.5571 99.183C82.5854 99.2115 82.3954 99.6765 82.1323 100.212ZM74.6995 104.626L73.7932 105.768L73.5288 105.035C73.3825 104.626 73.281 104.274 73.2951 104.259C73.3825 104.189 75.5339 103.413 75.5634 103.442C75.5917 103.455 75.1976 103.992 74.6995 104.626ZM72.6803 105.021C73.0025 105.839 73.1193 106.883 72.9446 107.207C72.7829 107.503 72.7534 107.46 72.5198 106.685C72.3876 106.22 72.1681 105.642 72.0371 105.402C71.8034 104.979 71.8176 104.951 72.1244 104.81C72.3003 104.725 72.4608 104.655 72.4903 104.655C72.5056 104.64 72.5929 104.81 72.6803 105.021ZM82.2208 105.585C82.6149 107.292 82.6586 107.742 82.4403 107.799C78.5481 108.828 75.5339 110.493 72.2707 113.439C71.8471 113.82 71.4954 114.06 71.4954 113.976C71.4954 113.891 71.7739 113.115 72.0949 112.255L72.7098 110.69L74.1873 109.35C75.8844 107.799 76.982 106.981 78.4312 106.149C79.5135 105.543 81.5327 104.64 81.8396 104.64C81.9281 104.64 82.1027 105.063 82.2208 105.585ZM71.5544 106.332C71.9934 107.588 71.9486 108.885 71.4222 110.097C71.1885 110.661 70.9395 111.127 70.8805 111.127C70.8073 111.127 70.7637 110.859 70.7637 110.52C70.7637 109.703 70.3978 108.279 69.9305 107.292L69.5493 106.473L69.9741 106.163C70.1936 105.98 70.4863 105.755 70.6032 105.669C71.0127 105.36 71.2759 105.543 71.5544 106.332ZM69.6083 108.843C69.7983 109.52 69.9305 110.591 69.9883 111.691C70.0615 113.384 70.032 113.525 69.5493 115.203L69.0524 116.951L68.5839 114.638C68.0575 111.973 67.6917 109.647 67.6917 108.956C67.6917 108.617 67.8522 108.279 68.3066 107.742L68.9061 107.01L69.1103 107.376C69.2283 107.588 69.4478 108.236 69.6083 108.843ZM82.6444 109.181C82.6881 110.309 82.6008 111.198 82.3813 112.142L82.1476 113.101H80.8742C77.3042 113.101 73.851 114.878 70.9395 118.206C70.6905 118.502 70.4568 118.686 70.4132 118.629C70.281 118.431 70.7637 116.19 71.0127 115.823C71.159 115.626 72.0512 114.765 73.032 113.905C74.7585 112.396 77.0847 110.775 78.5776 110.041C79.4261 109.618 82.1618 108.603 82.4403 108.588C82.5418 108.588 82.6303 108.815 82.6444 109.181ZM66.6531 112.298C66.8726 113.792 66.8726 113.792 66.3156 112.974L65.8188 112.255L66.0524 111.55C66.3309 110.704 66.4336 110.817 66.6531 112.298ZM66.3746 114.708C66.8431 115.682 67.2822 116.867 67.6327 118.107C67.6917 118.29 67.5748 118.22 67.2963 117.896C67.0768 117.627 66.5351 117.008 66.1256 116.528C65.3066 115.583 65.2476 115.4 65.4387 114.046C65.4966 113.666 65.5992 113.426 65.6866 113.482C65.7597 113.525 66.0819 114.074 66.3746 114.708ZM81.6354 114.582L81.4159 115.217H80.4493C78.6059 115.217 76.4993 115.935 74.5685 117.191C73.6173 117.811 71.6122 119.658 70.7932 120.645L70.3246 121.209L70.6173 120.448C71.5839 118.023 74.8164 115.344 77.9332 114.399C79.2644 113.99 79.3234 113.976 80.6688 113.961L81.8691 113.948L81.6354 114.582ZM80.86 116.063C80.86 116.147 80.7278 116.457 80.5673 116.768L80.2747 117.318L79.543 117.233C78.1822 117.078 75.8998 117.713 74.3042 118.7C73.281 119.32 73.2078 119.292 74.0705 118.587C75.6366 117.332 77.7432 116.373 79.5571 116.076C80.6688 115.908 80.86 115.908 80.86 116.063ZM66.5646 118.361C67.4285 119.517 68.6429 121.675 68.5249 121.802C68.4812 121.83 68.3066 121.647 68.1154 121.393C67.9254 121.139 67.3258 120.434 66.7841 119.828C66.2283 119.207 65.7893 118.643 65.7893 118.559C65.7751 118.46 65.7161 118.122 65.6583 117.783C65.5851 117.459 65.5697 117.191 65.6287 117.191C65.6724 117.191 66.0961 117.713 66.5646 118.361ZM79.6893 118.122C79.6893 118.178 79.5571 118.431 79.3813 118.686C79.1618 119.038 78.9718 119.165 78.6791 119.165C78.0205 119.165 76.0308 119.7 75.0217 120.152C74.0268 120.603 72.4903 121.605 72.0076 122.126C71.8471 122.295 71.5839 122.507 71.4375 122.577C70.9832 122.817 71.9049 121.76 73.1488 120.617C74.8022 119.109 77.1283 118.079 79.0013 118.051C79.3813 118.037 79.6893 118.079 79.6893 118.122ZM77.4942 120.801C76.6161 121.647 75.0949 122.789 74.29 123.183C73.6905 123.465 71.9934 123.96 71.5685 123.96C70.9537 123.96 73.6315 121.746 75.1539 120.984C75.7381 120.702 77.7727 120.039 78.1527 120.025C78.2259 120.011 77.9332 120.363 77.4942 120.801ZM67.589 122.154C68.4517 123.423 69.3593 125.073 69.2566 125.186C69.1103 125.327 66.6673 121.464 66.6673 121.097C66.6673 120.872 66.8431 121.068 67.589 122.154ZM57.5233 126.906C57.6402 127.274 57.947 127.88 58.1807 128.246C58.8546 129.261 58.445 129.008 57.698 127.936C56.938 126.864 56.7031 126.216 57.0548 126.216C57.2011 126.216 57.377 126.483 57.5233 126.906ZM60.888 126.611L62.4978 126.992L62.5851 127.866C62.6441 128.457 62.8188 128.966 63.1268 129.516C63.39 129.939 63.5953 130.319 63.5953 130.347C63.5953 130.475 60.7558 129.741 60.4348 129.53C59.7468 129.107 58.1807 126.893 58.1807 126.357C58.1807 126.117 59.1909 126.216 60.888 126.611ZM56.1768 127.02C56.2499 127.372 56.689 128.077 57.377 128.994L57.6107 129.29L55.8841 129.219C54.9329 129.177 54.128 129.107 54.0843 129.078C53.8506 128.88 55.5772 126.639 55.9714 126.639C56.0446 126.639 56.1331 126.808 56.1768 127.02ZM63.9022 127.485C64.0485 127.569 64.1795 127.752 64.1795 127.88C64.1795 128.316 64.7802 129.854 65.1461 130.376C65.6134 131.052 65.3361 130.997 64.707 130.277C64.019 129.501 63.449 128.387 63.449 127.809C63.449 127.302 63.4773 127.274 63.9022 127.485ZM65.9946 128.486C67.2668 129.248 69.0961 130.686 70.8073 132.294L72.4466 133.845L70.6905 133.013C69.7251 132.548 68.5544 132.026 68.0717 131.843C67.0331 131.433 66.1256 130.53 65.4966 129.248C65.0575 128.373 64.9702 128.049 65.1461 128.049C65.2039 128.049 65.5851 128.246 65.9946 128.486ZM56.2063 130.715C56.1178 130.785 55.7967 130.911 55.4746 131.01C54.3628 131.363 53.0021 132.011 52.0804 132.646C51.2318 133.224 51.1138 133.266 50.9675 133.055C50.617 132.603 46.6953 131.87 45.7299 132.068C45.1304 132.195 45.2035 132.039 45.8621 131.786C46.7543 131.42 48.4077 131.01 49.8558 130.812C51.3924 130.587 56.4104 130.517 56.2063 130.715ZM60.1563 131.151L60.449 131.279H60.1563C59.9958 131.292 58.9419 131.517 57.8302 131.786C54.9187 132.477 53.0316 133.394 51.3333 134.916C50.7197 135.48 50.5733 135.551 50.5733 135.326C50.5733 134.973 51.8172 133.802 52.9584 133.069C55.1087 131.702 58.9856 130.671 60.1563 131.151ZM64.5454 132.138C64.9702 132.308 64.9702 132.321 63.7405 132.576C61.268 133.112 59.5863 133.775 57.9612 134.888C56.2063 136.086 53.3231 139.245 52.7094 140.655C52.5194 141.107 50.7197 138.188 50.7197 137.426C50.7197 136.835 51.0855 136.326 52.1972 135.326C53.9238 133.788 56.4104 132.801 60.449 132.054C61.6492 131.828 63.9163 131.885 64.5454 132.138ZM68.9202 133.76C70.6032 134.507 72.6956 135.678 73.5146 136.341L73.91 136.65L73.5146 136.566C72.9446 136.439 70.2515 136.749 69.0229 137.088C65.5851 138.005 62.3219 140.67 60.5953 143.984C60.3758 144.407 60.1716 144.788 60.1421 144.816C60.0395 144.929 57.4643 144.068 56.4258 143.561C55.2255 142.968 53.5285 141.84 53.4116 141.516C53.1768 140.952 55.1087 138.428 57.0985 136.665C59.0446 134.945 60.5363 134.198 63.331 133.548C66.6673 132.787 66.7405 132.787 68.9202 133.76ZM73.6905 137.496C73.6905 137.567 73.4556 137.637 73.163 137.637C72.3593 137.637 70.6622 138.061 69.4478 138.555C66.5646 139.71 63.9022 142.052 62.7019 144.449C62.3656 145.125 62.3514 145.125 61.7661 145.028C61.4439 144.984 61.1512 144.914 61.1217 144.887C60.947 144.731 62.1614 142.884 63.2731 141.615C64.648 140.049 66.8573 138.626 68.8624 137.991C70.3837 137.511 73.6905 137.172 73.6905 137.496ZM76.1334 138.653C76.602 139.076 76.5583 139.19 75.9139 139.19C75.0217 139.19 73.1783 139.697 72.0949 140.247C70.8227 140.895 69.5646 141.869 68.7444 142.856C67.7212 144.068 66.2578 144.746 64.078 145.041C63.5953 145.098 63.3026 145.083 63.3026 144.999C63.3026 144.647 64.6339 142.968 65.7161 141.939C68.1449 139.64 71.2464 138.399 74.6264 138.357C75.6366 138.343 75.8408 138.386 76.1334 138.653ZM77.5827 140.811C77.7869 141.248 77.919 141.686 77.8742 141.798C77.729 142.193 75.4607 143.673 74.3195 144.125C73.4415 144.491 72.8998 144.605 71.9781 144.66C70.5737 144.731 70.0768 144.59 69.5929 143.955C69.1834 143.42 69.2283 143.321 70.5595 142.25C72.2707 140.853 74.3042 140.063 76.222 140.049L77.2168 140.036L77.5827 140.811ZM117.174 158.48C117.218 158.537 117.599 159.678 117.993 161.018L118.725 163.458L118.257 163.359C118.008 163.317 117.789 163.26 117.775 163.247C117.759 163.247 117.437 162.189 117.057 160.905C116.691 159.623 116.341 158.495 116.296 158.381C116.238 158.226 116.311 158.213 116.648 158.283C116.881 158.339 117.116 158.424 117.174 158.48ZM122.793 177.516C122.953 177.602 123.481 179.096 123.392 179.181C123.378 179.195 123.188 179.252 122.983 179.307C122.631 179.393 122.603 179.351 122.31 178.406L122.002 177.404H122.324C122.486 177.404 122.704 177.461 122.793 177.516ZM115.637 190.73C118.886 191.082 121.286 191.364 121.636 191.435C121.915 191.505 122.704 192.395 122.704 192.648C122.704 192.888 116.838 191.646 114.365 190.886C113.034 190.463 113.077 190.463 115.637 190.73ZM127.269 192.38C127.387 192.479 127.533 192.704 127.577 192.873C127.635 193.155 127.591 193.197 127.225 193.197C126.904 193.197 126.758 193.113 126.655 192.831C126.567 192.633 126.509 192.408 126.509 192.338C126.509 192.155 127.006 192.183 127.269 192.38Z" fill="white"/>
<path d="M147.344 73.4339C147.387 73.8149 147.534 75.6059 147.651 77.4241C147.783 79.2435 147.914 80.8787 147.959 81.0629C148.002 81.3029 148.309 81.5144 149.143 81.8805L150.255 82.3604L152.391 81.1471C153.562 80.4841 154.571 79.8917 154.63 79.836C154.703 79.7655 152.231 73.8285 152.04 73.6454C151.952 73.5465 148.002 72.7846 147.607 72.771C147.271 72.771 147.255 72.8131 147.344 73.4339Z" fill="white"/>
<path d="M173.928 77.142C173.899 79.2434 173.489 82.9516 173.182 84.1229C172.494 86.6325 171.134 88.5508 169.524 89.2695C169.13 89.4526 168.793 89.6368 168.793 89.6925C168.793 89.7494 169.071 89.8756 169.407 89.9609C170.3 90.2281 171.397 90.9479 172.202 91.8076C173.475 93.1619 174.338 95.3475 174.85 98.4359L175.026 99.4935L175.113 97.8719C175.289 94.7414 176.197 91.7234 177.279 90.6796C177.587 90.3839 178.303 89.9325 178.874 89.6505L179.927 89.1422L179.312 88.8465C178.113 88.2541 176.27 86.28 175.596 84.87C175.069 83.7556 174.865 82.8254 174.514 80.1031C174.338 78.7499 174.148 77.2546 174.075 76.7895L173.958 75.9435L173.928 77.142Z" fill="white"/>
<path d="M152.801 81.8941L150.651 83.1075V94.9245C150.651 102.144 150.708 106.755 150.782 106.755C150.855 106.755 152.113 105.698 153.576 104.387L156.24 102.032L156.137 99.6345C155.961 94.8119 155.186 81.2596 155.083 80.9776C154.967 80.6956 154.834 80.7525 152.801 81.8941Z" fill="white"/>
<path d="M114.496 82.5571C114.468 82.5855 112.653 82.7549 110.488 82.9096C108.307 83.079 106.127 83.2485 105.631 83.3042C104.563 83.4031 104.533 83.22 106.011 85.4204C106.845 86.6746 107.035 86.8725 107.371 86.8725C107.825 86.8725 114.205 86.1811 114.438 86.1106C114.569 86.0685 115.097 83.2905 115.097 82.6697C115.097 82.515 114.642 82.4309 114.496 82.5571Z" fill="white"/>
<path d="M115.637 84.9269C115.491 85.8002 115.389 86.6326 115.389 86.7736C115.389 87.1261 120.788 97.167 120.979 97.167C121.096 97.167 124.211 96.2925 124.723 96.1094C124.856 96.0662 124.563 95.5591 123.875 94.6005C123.289 93.7965 121.3 90.948 119.442 88.2541C117.569 85.5614 116.003 83.3474 115.959 83.3474C115.916 83.3474 115.769 84.0661 115.637 84.9269Z" fill="white"/>
<path d="M103.845 84.2218C103.772 84.4049 101.768 88.9455 99.3969 94.332L95.0669 104.118L101.27 116.049L107.474 127.979V126.851C107.488 126.23 107.328 120.801 107.122 114.794C106.932 108.786 106.669 100.156 106.523 95.6159L106.288 87.366L105.513 86.2232C105.089 85.6034 104.606 84.8279 104.43 84.5038C104.255 84.1786 104.079 83.9114 104.05 83.9114C104.005 83.9114 103.918 84.0524 103.845 84.2218Z" fill="white"/>
<path d="M159.019 102.032C158.112 102.285 157.352 102.511 157.322 102.539C157.249 102.609 163.804 110.563 163.936 110.563C164.023 110.563 166.891 106.473 167.008 106.191C167.037 106.135 166.598 105.755 166.056 105.331C165.516 104.922 164.228 103.907 163.204 103.061C161.931 102.018 161.258 101.538 161.009 101.552C160.833 101.566 159.927 101.778 159.019 102.032Z" fill="white"/>
<path d="M93.3687 105.501C92.8129 105.81 90.8668 106.841 89.0682 107.799C87.2531 108.744 85.7613 109.59 85.746 109.661C85.7177 109.773 104.606 126.329 105.894 127.344C106.26 127.626 105.235 125.538 100.451 116.303C97.2031 110.042 94.51 104.922 94.4663 104.922C94.4226 104.922 93.9399 105.191 93.3687 105.501Z" fill="white"/>
<path d="M170.066 120.152C170.022 120.35 169.919 121.167 169.817 121.971C169.306 126.371 167.52 129.713 165.281 130.446L164.521 130.7L165.384 131.151C166.584 131.814 167.973 132.914 168.647 133.76C169.949 135.396 170.607 137.328 171.426 141.939C171.675 143.334 171.879 144.519 171.909 144.576C171.924 144.647 171.953 143.307 171.968 141.615C171.997 137.172 172.363 135.339 173.724 132.984C174.324 131.94 175.801 130.389 176.519 130.037L177.016 129.798L176.138 129.558C174.982 129.248 173.08 127.893 172.378 126.893C171.661 125.835 171.046 124.101 170.564 121.788C170.285 120.491 170.125 119.927 170.066 120.152Z" fill="white"/>
</svg>
