<svg xmlns="http://www.w3.org/2000/svg" width="810" viewBox="0 0 810 810" height="810" version="1.0"><path d="M 670.691406 610.867188 C 627.5 505.851562 556.621094 491.597656 532.667969 477.042969 C 578.835938 438.558594 613.464844 379.695312 588.671875 286.765625 C 573.417969 229.476562 469.96875 125.707031 480.835938 42.421875 C 482.191406 31.988281 471.269531 24.128906 461.789062 28.65625 C 363.460938 75.867188 214.03125 203.945312 199.886719 311.863281 C 191.976562 372.378906 207.503906 437.203125 249.011719 477.015625 C 190.1875 517.910156 149.65625 528.101562 119.472656 637.941406 C 108.660156 677.238281 102.183594 734.125 98.960938 769.382812 C 97.875 781.171875 111.476562 788.40625 120.664062 780.953125 C 153.421875 754.339844 208.800781 721.984375 239.121094 721.984375 C 277.136719 721.984375 332.84375 780.195312 394.671875 780.195312 C 472.570312 780.195312 511.75 720.953125 553.449219 720.953125 C 567.132812 720.953125 640.234375 750.898438 669.984375 779.113281 C 678.765625 787.40625 693.125 781.117188 692.933594 769.03125 C 692.367188 726.941406 688.570312 654.339844 670.691406 610.867188 Z M 387.601562 453.925781 C 316.695312 449.425781 261.882812 403.84375 266.378906 332.921875 C 270.878906 261.996094 386.789062 193.890625 386.789062 193.890625 C 386.789062 193.890625 527.628906 278.257812 523.128906 349.179688 C 518.632812 420.105469 458.507812 458.425781 387.601562 453.925781 Z M 387.601562 453.925781"/></svg>