<svg xmlns="http://www.w3.org/2000/svg" xmlns:xlink="http://www.w3.org/1999/xlink" width="1500" viewBox="0 0 1500 750" height="750" version="1.0"><defs><g id="a"><path d="M 63.128906 46.5 C 134.875 46.5 179.835938 -36.644531 206.011719 -94.535156 C 207.550781 -97.925781 206.011719 -101.3125 202.621094 -102.542969 C 199.234375 -104.082031 195.847656 -102.234375 194.617188 -99.15625 C 173.0625 -44.035156 121.328125 30.179688 76.675781 30.179688 C 42.1875 30.179688 33.875 -32.640625 39.109375 -86.222656 C 45.882812 -158.585938 84.066406 -268.828125 130.257812 -268.828125 C 168.441406 -268.828125 171.519531 -166.59375 130.257812 -165.671875 C 114.859375 -165.363281 105.621094 -182.914062 116.707031 -199.542969 C 118.554688 -202.316406 117.941406 -206.011719 114.859375 -207.859375 C 111.78125 -209.707031 108.394531 -208.78125 106.546875 -205.394531 C 92.382812 -178.910156 102.851562 -153.351562 130.257812 -153.351562 C 183.53125 -153.351562 194 -282.996094 115.785156 -282.996094 C 48.347656 -282.996094 7.699219 -164.746094 1.230469 -84.375 C -4.925781 -16.9375 7.082031 46.5 63.128906 46.5 Z M 63.128906 46.5"/></g><g id="b"><path d="M 158.28125 -101.925781 C 155.199219 -103.773438 151.195312 -102.851562 149.964844 -99.464844 C 138.265625 -67.4375 121.636719 -51.425781 97.308594 -52.964844 C 105.929688 -94.535156 105.929688 -143.191406 69.59375 -143.191406 C 48.039062 -143.191406 36.335938 -125.945312 34.796875 -105.929688 C 29.871094 -108.394531 24.636719 -109.933594 21.554688 -109.933594 C -19.707031 -109.933594 -23.09375 1.847656 41.878906 1.847656 C 66.824219 1.847656 84.992188 -17.550781 94.535156 -40.648438 C 119.171875 -40.648438 143.191406 -50.195312 160.742188 -94.230469 C 161.976562 -97.308594 161.359375 -100.078125 158.28125 -101.925781 Z M 84.683594 -53.273438 C 43.726562 -53.273438 33.257812 -130.875 69.59375 -130.875 C 93.613281 -130.875 92.074219 -90.226562 84.683594 -53.273438 Z M 53.582031 -13.855469 C 29.253906 -13.855469 24.019531 -61.28125 35.722656 -88.992188 C 39.722656 -66.824219 55.121094 -45.265625 81.910156 -41.261719 C 75.753906 -26.789062 64.976562 -13.855469 53.582031 -13.855469 Z M 53.582031 -13.855469"/></g><g id="c"><path d="M 44.035156 47.113281 C 71.441406 47.113281 92.382812 12.933594 105.929688 -40.648438 C 130.566406 -40.648438 159.203125 -50.195312 176.757812 -94.230469 C 177.988281 -97.308594 177.371094 -100.078125 174.292969 -101.925781 C 171.214844 -103.773438 167.210938 -102.851562 165.976562 -99.464844 C 154.277344 -67.4375 133.027344 -51.425781 108.703125 -52.964844 C 117.324219 -94.535156 126.253906 -185.992188 86.839844 -185.992188 C 36.644531 -185.992188 34.488281 -50.195312 93.304688 -41.261719 C 84.066406 -3.386719 68.054688 25.867188 48.347656 25.867188 C 25.558594 24.636719 31.71875 -56.351562 37.875 -96.078125 C 39.722656 -109.007812 3.386719 -115.167969 0.921875 -97.925781 C -6.773438 -40.03125 -2.769531 47.113281 44.035156 47.113281 Z M 96.078125 -53.273438 C 55.121094 -53.273438 50.5 -173.675781 86.839844 -173.675781 C 113.9375 -173.675781 103.46875 -90.226562 96.078125 -53.273438 Z M 96.078125 -53.273438"/></g><g id="d"><path d="M 31.410156 40.957031 C 51.425781 40.957031 87.453125 -3.386719 116.398438 -88.992188 C 118.554688 -95.152344 121.019531 -101.003906 114.246094 -102.851562 C 107.46875 -104.699219 107.164062 -100.078125 104.699219 -92.6875 C 82.21875 -22.480469 50.5 28.945312 33.875 28.945312 C 19.09375 28.945312 21.863281 -29.5625 21.863281 -54.195312 C 40.957031 -54.195312 105.929688 -135.800781 44.34375 -135.800781 C 12.316406 -135.800781 -7.699219 -102.234375 -7.699219 -65.28125 C -7.699219 -27.097656 -11.394531 40.957031 31.410156 40.957031 Z M 22.789062 -65.28125 C 27.714844 -109.316406 48.960938 -117.324219 53.890625 -117.324219 C 72.980469 -117.324219 39.109375 -67.4375 22.789062 -65.28125 Z M 22.789062 -65.28125"/></g><g id="e"><path d="M 107.46875 82.835938 C 133.027344 82.835938 153.351562 39.414062 169.058594 -8.007812 C 177.679688 -35.105469 184.144531 -59.738281 190.921875 -87.453125 C 193.078125 -97.308594 195.230469 -100.386719 187.535156 -102.542969 C 181.375 -103.773438 180.757812 -98.539062 178.910156 -90.226562 C 173.984375 -68.976562 162.898438 -28.636719 157.355469 -11.703125 C 148.734375 13.855469 130.257812 58.816406 121.941406 58.816406 C 114.550781 58.816406 118.863281 1.230469 122.558594 -35.105469 C 127.792969 -83.144531 132.414062 -133.644531 94.535156 -133.644531 C 61.28125 -133.644531 49.578125 -96.691406 36.335938 -56.96875 L 37.261719 -96.691406 C 37.261719 -113.320312 0.308594 -110.242188 0.308594 -97 L -1.847656 -4.617188 C -2.464844 8.007812 31.71875 8.621094 34.796875 -2.769531 C 42.804688 -31.101562 62.820312 -116.09375 80.679688 -116.09375 C 94.535156 -116.09375 88.992188 -84.066406 81.601562 2.15625 C 77.601562 41.878906 79.753906 82.835938 107.46875 82.835938 Z M 107.46875 82.835938"/></g><g id="f"><path d="M 99.464844 49.886719 L 99.773438 49.886719 C 137.03125 49.886719 172.445312 -25.558594 193.691406 -88.992188 C 196.15625 -95.152344 198.3125 -101.003906 191.535156 -102.851562 C 184.761719 -104.082031 184.144531 -100.078125 181.992188 -92.6875 C 166.285156 -51.734375 134.570312 27.714844 116.398438 27.714844 C 103.160156 27.714844 106.855469 -34.179688 116.09375 -100.078125 C 159.511719 -130.566406 184.453125 -210.320312 185.992188 -249.429688 C 186.917969 -271.910156 177.0625 -294.695312 156.433594 -294.695312 C 101.003906 -294.695312 89.300781 -203.238281 76.984375 -108.085938 C 70.824219 -119.480469 66.824219 -134.261719 43.726562 -134.261719 C -19.398438 -134.261719 -29.5625 5.234375 14.472656 5.234375 C 33.875 5.234375 56.042969 -5.851562 71.75 -27.097656 C 70.519531 -8.929688 70.824219 5.542969 72.367188 16.628906 C 75.445312 39.109375 84.992188 49.886719 99.464844 49.886719 Z M 117.324219 -119.480469 C 122.867188 -156.125 129.640625 -268.519531 165.363281 -273.757812 C 173.984375 -274.988281 174.292969 -261.4375 173.675781 -250.046875 C 171.828125 -218.328125 149.347656 -149.964844 117.324219 -119.480469 Z M 35.722656 -13.855469 C 28.636719 -13.855469 25.558594 -26.789062 25.558594 -43.417969 C 25.558594 -70.519531 38.800781 -113.011719 53.273438 -113.011719 C 67.4375 -113.011719 68.976562 -96.078125 76.984375 -72.058594 L 76.984375 -71.75 L 74.828125 -56.042969 C 67.4375 -41.878906 49.886719 -13.855469 35.722656 -13.855469 Z M 35.722656 -13.855469"/></g></defs><g fill="#FFF"><use x="87.611" y="292.251" xmlns:xlink="http://www.w3.org/1999/xlink" xlink:href="#a" xlink:type="simple" xlink:actuate="onLoad" xlink:show="embed"/></g><g fill="#FFF"><use x="279.13" y="292.251" xmlns:xlink="http://www.w3.org/1999/xlink" xlink:href="#b" xlink:type="simple" xlink:actuate="onLoad" xlink:show="embed"/></g><g fill="#FFF"><use x="425.078" y="292.251" xmlns:xlink="http://www.w3.org/1999/xlink" xlink:href="#c" xlink:type="simple" xlink:actuate="onLoad" xlink:show="embed"/></g><g fill="#FFF"><use x="587.038" y="292.251" xmlns:xlink="http://www.w3.org/1999/xlink" xlink:href="#d" xlink:type="simple" xlink:actuate="onLoad" xlink:show="embed"/></g><g fill="#FFF"><use x="690.495" y="292.251" xmlns:xlink="http://www.w3.org/1999/xlink" xlink:href="#e" xlink:type="simple" xlink:actuate="onLoad" xlink:show="embed"/></g><g fill="#FFF"><use x="386.526" y="672.76" xmlns:xlink="http://www.w3.org/1999/xlink" xlink:href="#a" xlink:type="simple" xlink:actuate="onLoad" xlink:show="embed"/></g><g fill="#FFF"><use x="578.045" y="672.76" xmlns:xlink="http://www.w3.org/1999/xlink" xlink:href="#b" xlink:type="simple" xlink:actuate="onLoad" xlink:show="embed"/></g><g fill="#FFF"><use x="723.993" y="672.76" xmlns:xlink="http://www.w3.org/1999/xlink" xlink:href="#f" xlink:type="simple" xlink:actuate="onLoad" xlink:show="embed"/></g><g fill="#FFF"><use x="904.736" y="672.76" xmlns:xlink="http://www.w3.org/1999/xlink" xlink:href="#d" xlink:type="simple" xlink:actuate="onLoad" xlink:show="embed"/></g><path fill="#FFF" d="M 1435.066406 455.992188 C 1403.054688 378.183594 1350.527344 367.621094 1332.773438 356.839844 C 1366.992188 328.328125 1392.65625 284.714844 1374.28125 215.859375 C 1362.976562 173.414062 1286.308594 96.527344 1294.359375 34.824219 C 1295.363281 27.09375 1287.269531 21.269531 1280.242188 24.621094 C 1207.371094 59.601562 1096.625 154.496094 1086.144531 234.453125 C 1080.28125 279.292969 1091.785156 327.320312 1122.550781 356.820312 C 1078.953125 387.121094 1048.914062 394.667969 1026.542969 476.050781 C 1018.53125 505.167969 1013.734375 547.3125 1011.34375 573.4375 C 1010.539062 582.171875 1020.621094 587.535156 1027.429688 582.011719 C 1051.707031 562.292969 1092.75 538.320312 1115.21875 538.320312 C 1143.394531 538.320312 1184.679688 581.449219 1230.503906 581.449219 C 1288.234375 581.449219 1317.273438 537.554688 1348.175781 537.554688 C 1358.316406 537.554688 1412.496094 559.742188 1434.542969 580.644531 C 1441.050781 586.789062 1451.691406 582.132812 1451.550781 573.175781 C 1451.128906 541.992188 1448.316406 488.199219 1435.066406 455.992188 Z M 1225.261719 339.710938 C 1172.710938 336.378906 1132.089844 302.605469 1135.421875 250.054688 C 1138.753906 197.507812 1224.660156 147.046875 1224.660156 147.046875 C 1224.660156 147.046875 1329.039062 209.554688 1325.707031 262.105469 C 1322.371094 314.652344 1277.8125 343.042969 1225.261719 339.710938 Z M 1225.261719 339.710938"/></svg>