<svg width="283" height="299" viewBox="0 0 195 188" fill="none" xmlns="http://www.w3.org/2000/svg">
<path d="M96.5496 50.2285C96.548 33.5089 96.5593 16.8203 96.5802 0.627166C96.5802 0.33057 96.8291 0.0914307 97.1358 0.0914307H97.1374C97.4457 0.0914307 97.6947 0.332123 97.693 0.630271C97.6722 16.8203 97.6609 33.5089 97.6625 50.2285C97.6625 50.5251 97.412 50.7658 97.1053 50.7658C96.7986 50.7658 96.5496 50.5266 96.5496 50.2285ZM87.7172 51.1742C87.7702 51.4304 88.003 51.6074 88.2616 51.6074C88.2985 51.6074 88.3355 51.6027 88.3724 51.5965C88.6727 51.5375 88.8686 51.2549 88.8076 50.963C87.3478 43.927 85.8463 36.7264 84.3496 29.5615C84.2886 29.2696 83.9963 29.0817 83.6944 29.1407C83.3941 29.1997 83.1982 29.4823 83.2592 29.7743C84.7575 36.9391 86.2558 44.1397 87.7172 51.1742ZM92.5381 50.9894C92.5574 50.9894 92.5766 50.9878 92.5959 50.9863C92.9026 50.9568 93.1243 50.6928 93.0937 50.3962C91.3979 34.3381 90.0875 22.0519 88.8445 10.5577C88.8124 10.2626 88.5378 10.0483 88.2327 10.0794C87.9259 10.1105 87.7043 10.3744 87.7364 10.671C88.981 22.1637 90.2914 34.4499 91.9857 50.5064C92.0146 50.7828 92.2555 50.9894 92.5381 50.9894ZM83.5579 52.2254C83.6285 52.4599 83.8502 52.6105 84.091 52.6105C84.1424 52.6105 84.197 52.6028 84.25 52.5873C84.5439 52.5018 84.7125 52.2021 84.6242 51.918C83.7056 48.9458 82.8818 46.2609 82.1029 43.7049C82.0162 43.4207 81.7079 43.2561 81.4124 43.3416C81.1169 43.4254 80.9483 43.7251 81.035 44.0093C81.8155 46.5653 82.6393 49.2533 83.5579 52.2254ZM105.943 51.6043C105.98 51.6121 106.015 51.6152 106.05 51.6152C106.31 51.6152 106.543 51.4381 106.596 51.1819C108.005 44.3261 109.506 37.0261 111.012 29.7727C111.073 29.4823 110.878 29.1981 110.577 29.1391C110.275 29.0817 109.983 29.2696 109.92 29.5615C108.414 36.8149 106.913 44.1164 105.504 50.9707C105.445 51.2642 105.641 51.5484 105.943 51.6043ZM101.698 50.9894C101.717 50.9909 101.737 50.9909 101.756 50.9909C102.037 50.9909 102.28 50.7844 102.308 50.508C103.795 36.4143 105.14 23.6886 106.535 10.6695C106.567 10.3744 106.346 10.1105 106.039 10.0794C105.734 10.0483 105.461 10.2626 105.429 10.5592C104.033 23.5784 102.687 36.3056 101.202 50.3993C101.17 50.6943 101.393 50.9583 101.698 50.9894ZM110.014 52.5857C110.067 52.6012 110.12 52.6074 110.174 52.6074C110.413 52.6074 110.633 52.4584 110.707 52.2239C111.584 49.393 112.435 46.6305 113.238 44.0093C113.325 43.7251 113.158 43.4254 112.862 43.3416C112.569 43.2561 112.259 43.4192 112.17 43.7049C111.369 46.323 110.518 49.0856 109.641 51.9149C109.551 52.2006 109.72 52.5003 110.014 52.5857ZM97.1053 137.306C96.797 137.306 96.5496 137.547 96.5496 137.844C96.5496 154.571 96.5593 171.239 96.5802 187.387C96.5802 187.684 96.8291 187.925 97.1358 187.925H97.1374C97.4441 187.925 97.6947 187.683 97.693 187.384C97.6722 171.239 97.6625 154.571 97.6625 137.844C97.6625 137.546 97.412 137.306 97.1053 137.306ZM106.823 137.952L106.611 136.89C106.551 136.598 106.259 136.407 105.957 136.465C105.655 136.521 105.458 136.803 105.517 137.095L105.731 138.157C107.12 145.086 108.432 151.63 109.924 158.459C109.98 158.712 110.211 158.886 110.468 158.886C110.507 158.886 110.545 158.883 110.584 158.874C110.884 158.813 111.077 158.528 111.012 158.237C109.522 151.416 108.21 144.875 106.823 137.952ZM102.344 137.561C102.313 137.266 102.04 137.05 101.735 137.08C101.428 137.109 101.207 137.373 101.236 137.67L101.806 143.123C102.981 154.385 104.197 166.03 105.427 177.455C105.458 177.733 105.698 177.938 105.98 177.938C105.999 177.938 106.018 177.938 106.037 177.935C106.344 177.906 106.566 177.64 106.534 177.345C105.303 165.921 104.089 154.276 102.912 143.015L102.344 137.561ZM110.686 135.851C110.596 135.567 110.287 135.407 109.993 135.493C109.699 135.578 109.533 135.878 109.622 136.163C110.47 138.879 111.319 141.597 112.17 144.313C112.244 144.544 112.464 144.695 112.703 144.695C112.756 144.695 112.811 144.687 112.864 144.672C113.158 144.585 113.325 144.285 113.235 144.001C112.384 141.285 111.536 138.567 110.686 135.851ZM88.2792 136.457C87.9789 136.398 87.6851 136.586 87.624 136.878C85.8864 145.218 84.4989 152.007 83.2576 158.245C83.1998 158.537 83.3989 158.82 83.6992 158.876C83.7345 158.882 83.7699 158.885 83.8052 158.885C84.067 158.885 84.2998 158.706 84.3512 158.448C85.591 152.214 86.9769 145.428 88.7144 137.091C88.7755 136.8 88.5812 136.516 88.2792 136.457ZM92.6007 137.086C92.2956 137.053 92.0226 137.269 91.9905 137.566L91.3321 143.668C90.1421 154.709 88.912 166.127 87.7364 177.347C87.7059 177.643 87.9292 177.907 88.2343 177.937C88.2535 177.938 88.2712 177.94 88.2905 177.94C88.5731 177.94 88.8156 177.733 88.8429 177.455C90.0184 166.239 91.2486 154.821 92.4385 143.78L93.0953 137.678C93.1291 137.381 92.9075 137.115 92.6007 137.086ZM84.4636 136.469C84.5279 136.179 84.3351 135.892 84.0348 135.83C83.7345 135.767 83.4391 135.954 83.3748 136.244C83.2399 136.858 83.0408 137.496 82.5622 139.036C82.2137 140.151 81.74 141.679 81.035 144.005C80.9483 144.291 81.1169 144.589 81.4124 144.673C81.4654 144.687 81.5184 144.695 81.5698 144.695C81.8107 144.695 82.0323 144.543 82.1029 144.307C82.8063 141.987 83.2801 140.46 83.6269 139.347C84.1167 137.777 84.3191 137.126 84.4636 136.469ZM51.8317 94.5749C52.1384 94.5749 52.3873 94.3342 52.3873 94.0376C52.3873 93.741 52.1384 93.4988 51.8317 93.4988C34.5233 93.5003 17.2775 93.4895 0.569657 93.4693H0.568051C0.261324 93.4693 0.0108032 93.71 0.0108032 94.0066C0.0108032 94.3047 0.259718 94.5438 0.566446 94.5454C16.4842 94.5656 32.8917 94.5749 49.373 94.5749C50.1937 94.5749 51.0111 94.5749 51.8317 94.5749ZM30.4892 106.37C30.1889 106.429 29.993 106.714 30.054 107.004C30.107 107.26 30.3399 107.437 30.5984 107.437C30.6354 107.437 30.6723 107.433 30.7092 107.426C38.0851 105.985 45.5189 104.536 52.8065 103.123C53.1084 103.064 53.3027 102.782 53.2433 102.488C53.1822 102.198 52.8884 102.008 52.5865 102.067C45.3005 103.482 37.8651 104.929 30.4892 106.37ZM52.6138 98.4011C52.5816 98.1061 52.3102 97.8902 52.0035 97.9213C35.5061 99.5487 22.8098 100.814 10.8362 102.025C10.5295 102.057 10.3095 102.321 10.3416 102.617C10.3705 102.894 10.613 103.099 10.894 103.099C10.9133 103.099 10.9325 103.097 10.9518 103.095C22.9238 101.886 35.6201 100.619 52.1159 98.9912C52.4226 98.9617 52.6443 98.6977 52.6138 98.4011ZM44.74 109.212C44.8123 109.447 45.0339 109.597 45.2732 109.597C45.3262 109.597 45.3792 109.589 45.4305 109.575C48.0498 108.83 50.8167 108.035 53.8921 107.147C54.1859 107.061 54.3546 106.762 54.2662 106.476C54.1779 106.192 53.868 106.03 53.5725 106.116C50.4988 107.002 47.7334 107.797 45.1158 108.543C44.8219 108.627 44.6533 108.926 44.74 109.212ZM30.4892 81.6443C38.0723 83.1164 45.6008 84.5636 52.6073 85.91C52.6443 85.9177 52.6812 85.9208 52.7165 85.9208C52.9767 85.9208 53.2095 85.7423 53.2609 85.4876C53.322 85.1957 53.126 84.913 52.8241 84.854C45.8176 83.5077 38.2891 82.0604 30.7076 80.5883C30.4073 80.5309 30.1134 80.7188 30.0524 81.0107C29.993 81.3026 30.1889 81.5853 30.4892 81.6443ZM10.8362 85.9892C24.6919 87.379 38.5798 88.7486 52.0115 90.0747C52.0308 90.0763 52.0485 90.0763 52.0694 90.0763C52.3504 90.0763 52.5929 89.8698 52.6218 89.5933C52.6523 89.2967 52.4307 89.0343 52.124 89.0033C38.6938 87.6787 24.8059 86.3091 10.9502 84.9192C10.6451 84.8913 10.3721 85.104 10.34 85.4006C10.3095 85.6941 10.5311 85.9581 10.8362 85.9892ZM44.74 78.8026C44.6533 79.0867 44.8219 79.3864 45.1158 79.4703C47.6692 80.2017 50.3607 80.9781 53.5869 81.9114C53.6399 81.9269 53.6929 81.9347 53.7475 81.9347C53.9868 81.9347 54.2068 81.784 54.2807 81.5496C54.369 81.2654 54.202 80.9657 53.9065 80.8803C50.6786 79.9455 47.9871 79.1706 45.4322 78.4392C45.1367 78.3538 44.8283 78.5184 44.74 78.8026ZM193.705 93.4693C193.705 93.4693 193.704 93.4693 193.705 93.4693C177.025 93.4895 159.777 93.4988 142.442 93.4988C142.135 93.4988 141.884 93.741 141.884 94.0376C141.884 94.3358 142.135 94.5749 142.442 94.5749C159.777 94.5749 177.026 94.5656 193.707 94.5454C194.013 94.5438 194.262 94.3047 194.261 94.0066C194.261 93.71 194.012 93.4693 193.705 93.4693ZM141.555 85.9208C141.59 85.9208 141.627 85.9177 141.663 85.91L143.06 85.6475C149.822 84.3789 156.816 83.0667 163.789 81.6427C164.089 81.5806 164.282 81.2964 164.218 81.0045C164.153 80.7141 163.858 80.5278 163.559 80.5899C156.594 82.0123 149.605 83.3229 142.846 84.5916L141.449 84.854C141.147 84.9099 140.951 85.1925 141.009 85.4845C141.062 85.7423 141.295 85.9208 141.555 85.9208ZM142.146 88.9738C141.841 89.0033 141.618 89.2672 141.648 89.5638C141.677 89.8402 141.92 90.0483 142.202 90.0483C142.22 90.0483 142.239 90.0468 142.258 90.0452L147.362 89.5468C159.196 88.393 171.431 87.1988 183.437 85.9907C183.742 85.9597 183.964 85.6957 183.933 85.4006C183.901 85.104 183.628 84.8897 183.323 84.9208C171.319 86.1289 159.083 87.3231 147.251 88.4768L142.146 88.9738ZM140.537 81.9688C140.59 81.9688 140.645 81.9611 140.698 81.944C143.519 81.121 146.341 80.2964 149.159 79.4703C149.455 79.3833 149.62 79.0836 149.53 78.7979C149.442 78.5137 149.13 78.3538 148.836 78.4392C146.016 79.2669 143.196 80.0914 140.376 80.9144C140.081 80.9998 139.915 81.3011 140.004 81.5853C140.076 81.8182 140.298 81.9688 140.537 81.9688ZM163.779 106.37C157.258 105.158 150.233 103.814 141.669 102.147C141.369 102.088 141.073 102.276 141.014 102.567C140.953 102.859 141.147 103.142 141.449 103.203C150.015 104.872 157.044 106.215 163.569 107.428C163.603 107.434 163.639 107.437 163.673 107.437C163.935 107.437 164.168 107.259 164.219 107.001C164.279 106.707 164.081 106.426 163.779 106.37ZM183.435 102.025C171.805 100.887 159.967 99.6931 148.518 98.5393L142.271 97.9104C141.966 97.8794 141.692 98.0952 141.661 98.3903C141.629 98.6869 141.851 98.9508 142.157 98.9819L148.404 99.6108C159.853 100.765 171.691 101.957 183.323 103.097C183.342 103.099 183.362 103.1 183.379 103.1C183.662 103.1 183.904 102.894 183.932 102.616C183.964 102.319 183.741 102.055 183.435 102.025ZM149.143 108.54C146.67 107.892 144.06 107.165 140.677 106.187C140.383 106.102 140.071 106.263 139.984 106.547C139.896 106.833 140.063 107.133 140.359 107.218C143.75 108.2 146.37 108.929 148.852 109.579C148.9 109.593 148.95 109.597 148.998 109.597C149.243 109.597 149.469 109.44 149.535 109.2C149.615 108.914 149.44 108.617 149.143 108.54ZM128.742 62.6435C128.525 62.8547 128.525 63.1948 128.742 63.4044C128.851 63.51 128.994 63.5628 129.135 63.5628C129.278 63.5628 129.419 63.51 129.528 63.4044C141.86 51.4785 154.068 39.6877 165.812 28.3596C166.031 28.15 166.031 27.8099 165.814 27.5987C165.595 27.3891 165.244 27.3875 165.027 27.5987C153.283 38.9252 141.073 50.7161 128.742 62.6435ZM121.953 58.0253C122.048 58.0875 122.154 58.117 122.26 58.117C122.44 58.117 122.617 58.0316 122.726 57.8763C126.747 52.0329 130.834 46.0854 135.221 39.6939C135.392 39.4454 135.323 39.1116 135.067 38.9485C134.81 38.7839 134.465 38.8507 134.296 39.0992C129.909 45.4907 125.822 51.4381 121.799 57.28C121.629 57.5269 121.698 57.8623 121.953 58.0253ZM125.387 60.4789C125.49 60.5612 125.615 60.6 125.739 60.6C125.901 60.6 126.06 60.5332 126.171 60.4028C133.895 51.2363 143.039 40.3756 152.297 29.3301C152.49 29.0988 152.453 28.7602 152.215 28.5723C151.976 28.386 151.626 28.4202 151.433 28.6515C142.175 39.697 133.031 50.5561 125.308 59.7226C125.114 59.9524 125.149 60.291 125.387 60.4789ZM118.313 55.9088C118.398 55.9538 118.488 55.974 118.576 55.974C118.775 55.974 118.966 55.8715 119.068 55.6914C120.572 52.9972 121.953 50.5328 123.29 48.1601C123.436 47.8992 123.338 47.5715 123.066 47.4302C122.797 47.2889 122.459 47.3836 122.312 47.6461C120.975 50.0204 119.593 52.4848 118.088 55.179C117.942 55.4414 118.043 55.7691 118.313 55.9088ZM154.076 57.3297C153.906 57.0828 153.561 57.016 153.304 57.1806C146.877 61.3158 140.319 65.5551 134.531 69.2944C134.276 69.459 134.206 69.7944 134.378 70.0413C134.486 70.1951 134.663 70.2805 134.841 70.2805C134.947 70.2805 135.054 70.251 135.151 70.1889C140.937 66.4511 147.495 62.2118 153.921 58.0766C154.177 57.912 154.247 57.5781 154.076 57.3297ZM164.807 40.7483C164.613 40.5169 164.263 40.4827 164.023 40.6691C153.376 49.0312 142.756 57.398 131.907 65.9465C131.669 66.1344 131.634 66.4729 131.828 66.7027C131.937 66.8331 132.098 66.9015 132.26 66.9015C132.384 66.9015 132.507 66.8611 132.612 66.7803C143.46 58.2319 154.08 49.8651 164.725 41.5045C164.964 41.3182 165 40.9797 164.807 40.7483ZM145.305 68.9342C145.159 68.6733 144.82 68.577 144.55 68.7183C142.175 69.9653 139.63 71.296 136.768 72.7883C136.498 72.9297 136.397 73.2558 136.543 73.5182C136.644 73.6983 136.835 73.8008 137.033 73.8008C137.123 73.8008 137.213 73.7791 137.296 73.7356C140.16 72.2433 142.705 70.9109 145.082 69.664C145.351 69.5227 145.451 69.195 145.305 68.9342ZM65.4578 124.596C65.241 124.385 64.8877 124.385 64.6709 124.596C51.8959 136.948 40.0508 148.415 28.4578 159.655C28.241 159.866 28.2426 160.206 28.4594 160.416C28.5686 160.522 28.7099 160.573 28.8528 160.573C28.9957 160.573 29.1387 160.52 29.2479 160.414C40.8393 149.176 52.686 137.709 65.4594 125.356C65.6762 125.146 65.6762 124.806 65.4578 124.596ZM72.482 130.801C72.6538 130.555 72.5864 130.221 72.331 130.053C72.0773 129.887 71.732 129.952 71.5586 130.199L70.8697 131.185C66.9834 136.749 62.9654 142.502 59.047 148.324C58.8784 148.572 58.9522 148.906 59.2108 149.068C59.3039 149.127 59.4099 149.155 59.5127 149.155C59.6942 149.155 59.874 149.069 59.98 148.911C63.8952 143.097 67.7317 137.603 71.793 131.788L72.482 130.801ZM68.9763 128.359C69.1706 128.129 69.1353 127.789 68.8976 127.601C68.6599 127.413 68.3082 127.447 68.1139 127.677L66.1226 130.036C58.1927 139.424 49.9913 149.131 41.9779 158.685C41.7835 158.914 41.8205 159.254 42.0582 159.441C42.1625 159.522 42.2862 159.562 42.4098 159.562C42.572 159.562 42.7326 159.494 42.8418 159.362C50.8553 149.812 59.055 140.103 66.9834 130.716L68.9763 128.359ZM75.8945 132.128C75.6231 131.988 75.2859 132.086 75.1414 132.348C73.7522 134.851 72.3647 137.353 70.9821 139.858C70.8375 140.12 70.9387 140.445 71.2101 140.586C71.2936 140.629 71.3835 140.65 71.4719 140.65C71.671 140.65 71.8637 140.547 71.9633 140.365C73.3476 137.862 74.7335 135.359 76.121 132.857C76.2671 132.595 76.1659 132.269 75.8945 132.128ZM40.1985 130.688C40.3061 130.842 40.4812 130.926 40.661 130.926C40.7686 130.926 40.8762 130.895 40.9726 130.833C46.4391 127.252 52.3873 123.397 59.6894 118.705C59.9447 118.54 60.0138 118.206 59.8451 117.959C59.6749 117.712 59.328 117.644 59.0727 117.809C51.7674 122.503 45.8176 126.357 40.3479 129.941C40.0925 130.107 40.0267 130.443 40.1985 130.688ZM29.4679 147.268C29.5771 147.398 29.7377 147.465 29.8983 147.465C30.0219 147.465 30.1472 147.426 30.25 147.344C39.1627 140.311 48.2585 133.176 57.0541 126.276L62.3568 122.116C62.5944 121.93 62.6314 121.591 62.4371 121.36C62.2443 121.129 61.8943 121.095 61.655 121.281L56.3523 125.441C47.5568 132.34 38.4609 139.476 29.5466 146.51C29.3089 146.698 29.2736 147.038 29.4679 147.268ZM56.9128 114.222C53.8744 115.802 51.4174 117.116 49.1803 118.357C48.9138 118.504 48.8222 118.834 48.9748 119.091C49.0776 119.265 49.2638 119.362 49.4582 119.362C49.5513 119.362 49.6476 119.338 49.7344 119.29C51.9634 118.056 54.4108 116.745 57.4411 115.169C57.7109 115.028 57.8121 114.701 57.6675 114.441C57.5198 114.178 57.1825 114.079 56.9128 114.222ZM129.601 124.596C129.384 124.387 129.031 124.387 128.815 124.596C128.597 124.807 128.597 125.148 128.815 125.357C141.261 137.392 153.445 149.187 165.027 160.416C165.136 160.522 165.279 160.574 165.422 160.574C165.563 160.574 165.706 160.522 165.814 160.418C166.032 160.206 166.034 159.866 165.815 159.657C154.232 148.428 142.05 136.631 129.601 124.596ZM134.536 118.773C140.739 122.765 147.054 126.823 153.305 130.836C153.399 130.896 153.506 130.926 153.612 130.926C153.792 130.926 153.969 130.84 154.076 130.685C154.247 130.437 154.176 130.103 153.919 129.94C147.669 125.927 141.354 121.869 135.152 117.879C134.897 117.712 134.552 117.781 134.38 118.028C134.211 118.275 134.28 118.608 134.536 118.773ZM164.023 147.346C164.126 147.426 164.251 147.465 164.375 147.465C164.537 147.465 164.696 147.397 164.807 147.266C165.001 147.035 164.964 146.696 164.725 146.51C155.48 139.265 145.581 131.482 132.626 121.273C132.389 121.085 132.038 121.121 131.844 121.351C131.65 121.581 131.685 121.919 131.924 122.107C144.878 132.315 154.778 140.098 164.023 147.346ZM136.572 114.501C136.426 114.764 136.527 115.09 136.797 115.231C139.636 116.716 142.172 118.045 144.55 119.296C144.635 119.34 144.725 119.362 144.817 119.362C145.013 119.362 145.205 119.261 145.306 119.081C145.453 118.82 145.353 118.494 145.083 118.352C142.705 117.099 140.168 115.768 137.328 114.285C137.055 114.142 136.718 114.24 136.572 114.501ZM122.716 130.201C122.546 129.954 122.199 129.887 121.944 130.051C121.688 130.218 121.619 130.551 121.791 130.798C126.008 136.9 130.139 142.878 134.295 148.917C134.401 149.072 134.577 149.158 134.759 149.158C134.865 149.158 134.971 149.128 135.067 149.068C135.323 148.903 135.392 148.568 135.221 148.321C131.065 142.28 126.935 136.303 122.716 130.201ZM126.183 127.662C125.989 127.432 125.637 127.396 125.4 127.584C125.162 127.772 125.127 128.112 125.321 128.342C134.619 139.376 143.002 149.325 151.433 159.365C151.542 159.495 151.703 159.563 151.865 159.563C151.989 159.563 152.112 159.523 152.215 159.442C152.454 159.256 152.49 158.917 152.297 158.686C143.866 148.647 135.482 138.696 126.183 127.662ZM119.1 132.364C118.954 132.101 118.616 132.005 118.345 132.145C118.075 132.286 117.974 132.612 118.12 132.875C119.559 135.457 120.971 137.979 122.312 140.369C122.413 140.547 122.604 140.65 122.801 140.65C122.89 140.65 122.981 140.629 123.066 140.584C123.336 140.443 123.436 140.115 123.29 139.855C121.949 137.468 120.539 134.946 119.1 132.364ZM64.7303 63.3734C64.8379 63.4774 64.9808 63.5302 65.1237 63.5302C65.2667 63.5302 65.408 63.4774 65.5172 63.3734C65.734 63.1622 65.734 62.8221 65.5172 62.6125C53.7877 51.2735 41.5844 39.4936 29.2447 27.5987C29.0279 27.3891 28.6746 27.3891 28.4578 27.5987C28.2426 27.8099 28.2426 28.15 28.4594 28.3596C40.7975 40.256 53.0008 52.0344 64.7303 63.3734ZM59.8805 70.0072C60.0523 69.7603 59.9848 69.4264 59.7311 69.2587L58.6519 68.5553C52.9092 64.8082 46.969 60.9307 40.9597 57.1511C40.7028 56.9896 40.3575 57.0595 40.1889 57.3079C40.0219 57.5579 40.0957 57.8903 40.3527 58.0533C46.3539 61.8283 52.026 65.5303 58.0305 69.4497L59.108 70.1531C59.2028 70.2153 59.312 70.2448 59.4196 70.2448C59.5962 70.2448 59.7729 70.1609 59.8805 70.0072ZM61.9826 66.889C62.1432 66.889 62.3038 66.8207 62.413 66.6903C62.6073 66.4605 62.572 66.1219 62.3343 65.934L58.2392 62.7025C49.0663 55.4616 39.5819 47.9768 30.2483 40.6582C30.0091 40.4719 29.659 40.506 29.4663 40.7374C29.272 40.9672 29.3089 41.3073 29.5466 41.4937C38.8785 48.8107 48.3629 56.297 57.5342 63.5349L61.6293 66.7664C61.7337 66.8487 61.8589 66.889 61.9826 66.889ZM57.5085 72.7154C54.748 71.2836 52.1962 69.9621 49.7119 68.6795C49.4405 68.5397 49.1032 68.6376 48.9571 68.9C48.8126 69.1624 48.9154 69.4885 49.1851 69.6283C51.6711 70.9125 54.2213 72.2324 56.9818 73.6642C57.0653 73.7076 57.1552 73.7278 57.2452 73.7278C57.4427 73.7278 57.6354 73.6253 57.7366 73.4436C57.8811 73.1828 57.7799 72.8567 57.5085 72.7154ZM71.5987 57.8048C71.7063 57.9617 71.883 58.0455 72.0644 58.0455C72.1688 58.0455 72.2764 58.016 72.3712 57.9555C72.6281 57.7909 72.6972 57.457 72.5269 57.2101C67.7157 50.2098 63.7234 44.4503 59.9624 39.0852C59.7905 38.8383 59.4437 38.7746 59.1899 38.9408C58.9346 39.1069 58.8687 39.4423 59.0406 39.6892C62.7984 45.0512 66.7891 50.8077 71.5987 57.8048ZM63.444 54.8606L68.077 60.3795C68.1862 60.5099 68.3484 60.5782 68.509 60.5782C68.6326 60.5782 68.7563 60.5394 68.8591 60.4587C69.0983 60.2723 69.1337 59.9323 68.941 59.7009L64.3079 54.1805C57.2757 45.8028 50.0042 37.1394 42.8338 28.6484C42.6395 28.4186 42.2894 28.3845 42.0517 28.5723C41.8124 28.7602 41.7771 29.0988 41.973 29.3286C49.1402 37.8196 56.4117 46.483 63.444 54.8606ZM75.2522 55.6324C75.3533 55.8125 75.5444 55.915 75.7436 55.915C75.8319 55.915 75.9218 55.8948 76.0053 55.8498C76.2767 55.7085 76.3779 55.3824 76.2318 55.1215C74.5424 52.0903 73.2191 49.775 71.9376 47.6166C71.785 47.3588 71.4446 47.2703 71.178 47.4178C70.9114 47.5653 70.8199 47.8945 70.9724 48.1523C72.2475 50.303 73.5676 52.609 75.2522 55.6324ZM59.5529 94.0081C59.5529 73.9685 76.4132 57.6651 97.1358 57.6651C117.862 57.6651 134.72 73.9685 134.72 94.0081C134.72 114.046 117.862 130.35 97.1358 130.35C76.4132 130.35 59.5529 114.046 59.5529 94.0081ZM97.1358 127.94C104.321 127.94 111.006 125.837 116.574 122.242L97.1358 108.586L77.6996 122.242C83.2672 125.837 89.9526 127.94 97.1358 127.94ZM97.1358 64.6172L91.0591 82.7018H103.214L97.1358 64.6172ZM90.2497 85.1118L85.994 97.7784L97.1358 105.606L108.279 97.7784L104.022 85.1118H90.2497ZM110.399 96.2893L126.309 85.1118H106.643L110.399 96.2893ZM109.089 100.188L99.2556 107.096L115.165 118.273L109.089 100.188ZM87.6289 85.1118H67.9646L83.8743 96.2893L87.6289 85.1118ZM79.1079 118.273L95.0176 107.097L85.1847 100.188L79.1079 118.273ZM132.228 94.0081C132.228 90.8325 131.765 87.7625 130.919 84.8463C130.905 84.8587 130.892 84.8711 130.877 84.882L111.208 98.6993L118.636 120.796C126.898 114.585 132.228 104.889 132.228 94.0081ZM98.2037 60.1C98.2503 60.1776 98.292 60.2568 98.321 60.3453L105.833 82.7018H130.144C130.169 82.7018 130.193 82.7064 130.219 82.708C125.507 69.8457 112.992 60.5301 98.2037 60.1ZM64.0526 82.708C64.0783 82.7064 64.104 82.7033 64.1281 82.7033H88.4382L95.9506 60.3453C95.9795 60.2584 96.0229 60.1776 96.0695 60.1015C81.2791 60.5301 68.7659 69.8457 64.0526 82.708ZM62.0452 94.0081C62.0452 104.889 67.3768 114.585 75.6392 120.798L83.0649 98.6993L63.3974 84.882C63.3813 84.8727 63.3701 84.8587 63.3556 84.8478C62.5077 87.7625 62.0452 90.8325 62.0452 94.0081Z" fill="white"/>
</svg>
