<svg width="300" height="259" viewBox="0 0 263 299" fill="none" xmlns="http://www.w3.org/2000/svg">
<g clip-path="url(#clip0_434_164)">
<g clip-path="url(#clip1_434_164)">
<path d="M218.005 134.832L218 134.813C218.024 134.811 218.047 134.813 218.069 134.811C218.048 134.82 218.027 134.825 218.005 134.832ZM204.707 132.929C203.785 132.511 202.859 132.008 201.964 131.52C200.599 130.778 199.188 130.011 197.688 129.486C194.862 128.5 191.732 128.432 188.877 129.295C187.398 129.741 185.996 130.425 184.639 131.085C183.763 131.512 182.856 131.954 181.956 132.315C179.488 133.307 177.385 133.482 175.697 132.833C175.636 130.182 175.385 127.584 174.961 125.056C176.803 126.28 178.931 126.572 180.531 126.572C181.081 126.572 181.65 126.54 182.218 126.473C184.03 126.26 185.81 125.733 187.532 125.222C189.441 124.653 191.419 124.066 193.418 123.925C193.715 123.903 194.019 123.892 194.32 123.892C197.736 123.892 201.039 125.223 203.625 127.638C204.221 128.195 204.791 128.816 205.342 129.415C206.022 130.157 206.728 130.925 207.498 131.591C208.716 132.646 210.108 133.445 211.632 133.966C212.445 134.243 213.305 134.45 214.225 134.593C210.997 134.848 207.714 134.287 204.707 132.929ZM209.302 136.681C206.914 136.875 204.646 136.767 202.565 136.36C201.519 136.156 200.471 135.837 199.457 135.53C198.353 135.194 197.211 134.848 196.055 134.643C195.47 134.538 194.879 134.485 194.302 134.485C191.092 134.485 188.306 136.128 185.775 137.904L185.546 138.064C183.973 139.167 182.349 140.308 180.584 141.011C178.944 141.661 177.158 141.987 175.137 142.01C175.48 139.661 175.672 137.255 175.704 134.806C177.643 135.374 179.926 135.139 182.511 134.098C183.462 133.717 184.394 133.264 185.295 132.824C186.656 132.162 187.942 131.536 189.302 131.125C191.862 130.352 194.668 130.412 197.201 131.295C198.581 131.777 199.876 132.483 201.247 133.228C202.166 133.728 203.118 134.246 204.092 134.687C206.326 135.696 208.7 136.291 211.101 136.478C210.494 136.563 209.895 136.632 209.302 136.681ZM179.709 150.597C182.143 152.437 184.736 153.004 187.881 153.289C190.916 153.564 194.042 154.266 196.328 157.507C197.171 158.699 197.914 160.24 198.561 161.728C195.191 158.472 191.373 156.396 186.767 155.287C185.483 154.978 184.018 154.906 182.601 154.837C181.242 154.771 179.838 154.702 178.684 154.421C176.576 153.908 174.474 152.174 173.084 150.813C173.662 149.04 174.148 147.217 174.542 145.352C175.854 147.202 177.678 149.061 179.709 150.597ZM187.897 160.105H187.721C186.638 160.105 185.546 160.162 184.492 160.217C183.447 160.271 182.368 160.326 181.306 160.326C180.223 160.326 179.27 160.268 178.388 160.147C175.627 159.768 172.913 158.921 170.306 157.636C171.098 156.034 171.812 154.376 172.44 152.668C173.965 154.09 176.113 155.731 178.336 156.272C179.628 156.587 181.102 156.658 182.53 156.727C183.877 156.794 185.275 156.862 186.423 157.138C190.593 158.142 194.074 159.992 197.155 162.86C194.335 161.083 191.164 160.125 187.897 160.105ZM172.428 165.071C173.323 166.938 173.854 169.023 174.368 171.04L174.443 171.334C175.581 175.793 176.986 179.246 180.141 181.596C181.12 182.324 182.171 182.938 183.187 183.533C184.121 184.078 185.086 184.642 185.983 185.288C187.765 186.575 189.509 188.223 191.167 190.191C191.719 190.847 192.259 191.536 192.793 192.264C192.068 191.663 191.35 191.171 190.701 190.777C188.008 189.146 185.029 188.263 182.214 187.552L182.004 187.499C180.2 187.044 178.335 186.575 176.982 185.329C175.264 183.747 174.576 181.21 173.847 178.523C173.611 177.657 173.368 176.764 173.089 175.907C171.669 171.55 169.077 167.784 165.726 165.152C166.898 163.572 167.982 161.906 168.971 160.163C170.476 161.739 171.586 163.315 172.428 165.071ZM191.292 193.982C189.852 193.204 188.349 192.735 186.825 192.587C186.39 192.545 185.915 192.525 185.37 192.525C184.892 192.525 184.409 192.541 183.94 192.556C183.476 192.57 182.996 192.586 182.524 192.586C182.194 192.586 181.899 192.579 181.618 192.563C177.991 192.366 174.434 190.532 171.858 187.529C170.461 185.899 169.341 183.956 168.26 182.078C167.285 180.385 166.278 178.635 165.06 177.097C163.883 175.611 161.643 173.268 158.819 172.604C160.914 170.804 162.856 168.789 164.624 166.586C167.77 169.003 170.204 172.504 171.528 176.566C171.792 177.372 172.027 178.241 172.256 179.08C173.026 181.919 173.822 184.856 175.935 186.8C177.592 188.325 179.651 188.844 181.643 189.346L181.852 189.398C184.553 190.081 187.401 190.923 189.918 192.448C191.006 193.107 192.305 194.071 193.458 195.394C192.78 194.875 192.058 194.394 191.292 193.982ZM133.256 180.468C110.765 180.468 92.4658 159.666 92.4658 134.094C92.4658 108.524 110.765 87.719 133.256 87.719C155.749 87.719 174.047 108.524 174.047 134.094C174.047 159.666 155.749 180.468 133.256 180.468ZM157.357 184.697C157.659 187.009 157.619 189.359 157.579 191.631C157.559 192.896 157.536 194.206 157.572 195.504C157.683 199.518 158.761 203.373 160.656 206.711C157.53 203.638 155.355 199.271 154.75 194.634C154.562 193.175 154.513 191.649 154.466 190.174C154.408 188.335 154.349 186.436 154.023 184.567C153.593 182.105 152.708 179.756 151.444 177.701C152.639 177.053 153.805 176.345 154.936 175.576C156.135 178.506 156.95 181.569 157.357 184.697ZM155.52 205.166C153.167 202.884 151.987 200.044 151.577 195.666C151.244 192.1 150.678 189.169 148.995 186.45C147.59 184.183 145.907 182.159 144.245 180.717C146.188 180.125 148.074 179.382 149.895 178.496C151.126 180.404 151.985 182.612 152.39 184.935C152.69 186.654 152.745 188.396 152.804 190.242C152.851 191.769 152.902 193.35 153.106 194.91C153.751 199.891 156.055 204.582 159.368 207.94C157.98 207.173 156.677 206.287 155.52 205.166ZM139.34 187.897C138.723 189.907 137.719 191.754 136.749 193.541L136.608 193.799C134.463 197.752 133.155 201.253 133.738 205.489C133.919 206.803 134.225 208.101 134.52 209.356C134.791 210.508 135.07 211.7 135.251 212.891C135.608 215.256 135.703 217.833 135.531 220.55C135.436 222.066 135.259 223.617 134.993 225.245C135.005 221.107 134.368 216.96 133.089 213.102C132.765 212.121 132.395 211.14 132.037 210.193C130.948 207.306 129.921 204.579 129.965 201.668C130.002 199.162 130.836 196.797 131.72 194.292C132.004 193.487 132.299 192.652 132.56 191.819C133.412 189.118 134.085 185.469 132.995 182.356C133.083 182.357 133.169 182.36 133.256 182.36C135.628 182.36 137.953 182.134 140.221 181.706C140.201 184.028 139.918 186.015 139.34 187.897ZM133.144 223.199C132.685 221.464 131.983 219.882 131.056 218.498C130.468 217.623 129.794 216.821 129.142 216.046C128.615 215.419 128.069 214.771 127.579 214.094C125.272 210.903 124.082 206.674 124.311 202.49C124.437 200.217 124.953 197.97 125.452 195.798C125.902 193.84 126.367 191.816 126.553 189.758C126.732 187.771 126.758 184.327 125.308 181.508C127.208 181.919 129.151 182.188 131.129 182.299C132.472 184.985 131.816 188.573 130.994 191.181C130.741 191.981 130.453 192.798 130.175 193.588C129.274 196.142 128.343 198.781 128.3 201.637C128.249 204.952 129.397 207.995 130.508 210.939C130.859 211.867 131.22 212.828 131.532 213.768C132.6 216.991 133.194 220.429 133.308 223.886C133.256 223.657 133.205 223.427 133.144 223.199ZM117.841 186.574C116.175 189.306 115.627 192.241 115.315 195.81C114.932 200.19 113.77 203.04 111.43 205.342C110.058 206.691 108.474 207.709 106.785 208.586C108.509 206.748 109.527 204.756 110.617 202.025C111.938 198.719 112.85 194.876 113.491 189.934C113.531 189.622 113.57 189.31 113.608 188.997C113.853 187.04 114.083 185.19 114.649 183.441C115.043 182.228 115.953 180.095 117.711 179.009C119.281 179.714 120.898 180.315 122.552 180.805C120.9 182.259 119.231 184.296 117.841 186.574ZM109.318 195.697C109.347 194.397 109.317 193.089 109.287 191.823C109.236 189.551 109.181 187.201 109.468 184.888C109.854 181.756 110.652 178.688 111.833 175.749C113.141 176.621 114.493 177.419 115.886 178.132C114.692 179.23 113.723 180.829 113.088 182.786C112.46 184.725 112.206 186.762 111.96 188.732C111.923 189.041 111.884 189.35 111.844 189.658C111.227 194.42 110.356 198.102 109.102 201.244C108.467 202.833 107.875 204.124 107.145 205.271C108.493 202.326 109.246 199.063 109.318 195.697ZM103.156 178.654C101.999 180.251 101.06 182.049 100.153 183.79C99.1443 185.72 98.1033 187.717 96.7693 189.417C94.3134 192.545 90.8314 194.557 87.2135 194.936C86.4456 195.017 85.6577 195.031 84.8947 195.045C83.9509 195.062 82.976 195.08 82.0148 195.222C80.4964 195.446 79.0128 195.99 77.6066 196.838C77.0942 197.148 76.6055 197.487 76.1355 197.846C77.7213 195.87 79.5265 194.119 81.4925 192.662C83.0459 191.513 84.7376 190.517 86.3745 189.553C87.322 188.994 88.3031 188.417 89.2556 187.812C91.5158 186.374 94.3707 184.326 96.3966 181.222C97.3503 179.76 98.0671 178.143 98.7615 176.58C99.1293 175.749 99.5095 174.892 99.916 174.083C101.184 171.557 102.561 169.943 104.119 169.163C105.706 170.87 107.41 172.437 109.214 173.852C106.42 174.655 104.276 177.107 103.156 178.654ZM77.5841 193.045C79.1637 190.997 80.8417 189.261 82.5721 187.889C83.4435 187.196 84.3848 186.585 85.2961 185.994C86.2885 185.349 87.3145 184.683 88.2645 183.905C91.3251 181.399 92.5942 177.88 93.5579 173.367L93.6215 173.069C94.0565 171.028 94.5066 168.919 95.3282 167.009C96.1011 165.212 97.1483 163.582 98.592 161.93C99.8823 164 101.312 165.947 102.866 167.76C101.217 168.782 99.7713 170.555 98.4698 173.146C98.0434 173.996 97.6532 174.876 97.2755 175.728C96.5823 177.29 95.9291 178.764 95.0601 180.094C93.6264 182.29 91.5856 184.163 88.4427 186.16C87.514 186.752 86.5453 187.322 85.609 187.872C83.936 188.857 82.2068 189.876 80.5849 191.078C78.9143 192.314 77.3548 193.752 75.936 195.354C76.4746 194.54 77.0219 193.774 77.5841 193.045ZM88.8068 161.621C87.2771 161.882 85.7723 161.916 84.6316 161.916C83.9908 161.916 83.3388 161.905 82.708 161.892C82.0734 161.879 81.4177 161.868 80.7694 161.868C80.2321 161.868 79.7509 161.877 79.3008 161.894C75.5371 162.04 71.9317 163.431 68.8723 165.868C69.8921 164.17 71.0802 162.572 72.6074 161.518C74.7305 160.052 77.2575 159.753 79.9316 159.436C80.9863 159.311 82.0772 159.184 83.1394 158.975C87.1774 158.189 91.0919 156.135 94.2585 153.163C95.0053 155.127 95.863 157.025 96.8229 158.846C94.2485 160.215 91.557 161.152 88.8068 161.621ZM70.7972 159.586C72.7994 156.903 75.2952 155.555 79.145 155.079C82.2804 154.691 84.8573 154.039 87.2434 152.12C89.2356 150.517 91.0109 148.598 92.275 146.705C92.649 148.274 93.0916 149.814 93.5978 151.316C90.5858 154.29 86.7859 156.345 82.8576 157.11C81.8503 157.307 80.7869 157.433 79.7596 157.555C77.0194 157.88 74.1869 158.214 71.7434 159.901C70.69 160.628 69.7961 161.546 69.0095 162.561C69.5281 161.504 70.1128 160.505 70.7972 159.586ZM87.4653 115.354C85.1016 113.397 82.5335 112.705 79.403 112.267C75.5595 111.731 73.0799 110.345 71.1101 107.631C70.3571 106.594 69.7313 105.455 69.1828 104.251C70.6925 105.998 72.575 107.454 74.7841 108.561C76.8361 109.588 79.135 109.645 81.3566 109.7C82.799 109.736 84.1616 109.77 85.442 110.05C88.4627 110.712 91.8911 112.8 94.1463 115.316C93.4793 117.106 92.9046 118.951 92.4284 120.842C91.1879 118.931 89.4363 116.985 87.4653 115.354ZM90.8301 132.429C88.0239 133.055 85.0056 131.806 82.3901 130.578L81.9924 130.389C79.125 129.038 76.1592 127.641 72.9814 127.937C70.3185 128.187 67.971 129.593 65.6995 130.953C64.5613 131.636 63.3844 132.342 62.2051 132.872C59.6793 134.009 56.802 134.494 53.6055 134.335C54.0443 134.229 54.4682 134.107 54.8796 133.966C56.4055 133.445 57.7968 132.646 59.0148 131.591C59.7853 130.925 60.4896 130.157 61.1716 129.415C61.7226 128.816 62.2923 128.195 62.8883 127.638C65.4726 125.223 68.7776 123.892 72.1922 123.892C72.4939 123.892 72.7969 123.903 73.0948 123.925C75.0945 124.066 77.0705 124.653 78.9817 125.222C80.7033 125.733 82.4836 126.26 84.2938 126.473C84.8635 126.54 85.4308 126.572 85.9818 126.572C87.5825 126.572 89.7094 126.28 91.5507 125.056C91.1493 127.457 90.9049 129.919 90.8301 132.429ZM85.9307 141.011C84.1641 140.308 82.5397 139.167 80.9689 138.064L80.7395 137.904C78.2075 136.128 75.4211 134.485 72.2097 134.485C71.6325 134.485 71.0416 134.538 70.4569 134.643C69.3012 134.848 68.1592 135.194 67.0559 135.53C66.0424 135.837 64.9939 136.156 63.9467 136.36C61.8672 136.767 59.5983 136.875 57.2096 136.681C56.1549 136.596 55.0778 136.448 53.9658 136.243C54.2388 136.251 54.5106 136.257 54.7786 136.257C57.7208 136.257 60.4086 135.715 62.8172 134.633C64.0813 134.064 65.2981 133.334 66.4762 132.629C68.6965 131.296 70.7935 130.04 73.1173 129.824C75.8949 129.564 78.6712 130.872 81.3554 132.138L81.7543 132.325C84.4957 133.614 87.6586 134.919 90.804 134.358C90.8164 136.961 91.0121 139.518 91.3762 142.01C89.3541 141.987 87.5688 141.661 85.9307 141.011ZM79.6412 105.457C80.5575 105.505 81.475 105.512 82.2517 105.512L83.8437 105.509C85.5292 105.509 87.327 105.538 89.1421 105.876C91.8886 106.389 94.5689 107.367 97.1259 108.778C96.2993 110.296 95.5463 111.867 94.8694 113.492C92.3872 110.919 88.9339 108.888 85.7574 108.192C84.3387 107.882 82.8414 107.845 81.3928 107.81C79.2385 107.756 77.2039 107.705 75.4548 106.829C72.6672 105.434 70.5117 103.517 69.0132 101.11C72.095 103.723 75.7752 105.246 79.6412 105.457ZM95.1898 101.385C94.3607 99.4786 93.902 97.3724 93.4581 95.3343L93.3933 95.0353C92.4109 90.5296 91.1268 87.016 88.0563 84.5258C87.1038 83.7533 86.074 83.0942 85.0792 82.455C84.1654 81.8683 83.2216 81.2616 82.3465 80.5742C80.6111 79.2108 78.9256 77.4845 77.3373 75.4449C76.4671 74.3266 75.6318 73.1205 74.8103 71.7939C76.8823 73.9766 79.4205 75.8673 82.2068 77.2364C83.0783 77.6659 83.9771 78.0287 84.8473 78.3802C86.3782 79.001 87.8244 79.5864 89.1334 80.4935C92.2613 82.6591 94.2859 86.476 96.0924 90.2007L96.3953 90.8244C98.1083 94.3677 99.881 98.0244 102.644 100.686C101.129 102.479 99.7364 104.405 98.476 106.448C97.0261 104.802 95.9702 103.178 95.1898 101.385ZM77.3435 71.6507C78.7535 72.4926 80.2396 73.0284 81.7593 73.2438C82.7192 73.3799 83.6954 73.3926 84.6391 73.4054C85.4021 73.4153 86.19 73.4252 86.9592 73.5018C90.5771 73.8618 94.069 75.8545 96.5374 78.9684C97.8776 80.6621 98.9286 82.652 99.9446 84.5782C100.86 86.313 101.806 88.1073 102.969 89.699C104.095 91.2382 106.25 93.6789 109.047 94.4669C107.194 95.9353 105.447 97.5652 103.826 99.3411C101.236 96.8962 99.5158 93.3501 97.8539 89.9116L97.551 89.2866C95.6361 85.3407 93.4756 81.2843 89.9998 78.8777C88.5437 77.8686 86.948 77.2237 85.4046 76.5986C84.5606 76.257 83.6879 75.9027 82.8676 75.4988C80.7308 74.45 78.7249 73.0425 76.9932 71.4282C77.1104 71.5019 77.2239 71.5799 77.3435 71.6507ZM109.155 83.4897C108.856 81.1794 108.895 78.8295 108.933 76.5575C108.954 75.2904 108.976 73.9808 108.939 72.684C108.836 68.945 107.895 65.3436 106.237 62.1702C107.581 63.7959 108.639 65.7234 109.317 67.8268C110.023 70.0151 110.316 72.314 110.626 74.7462C110.927 77.1074 111.237 79.5495 111.963 81.8711C112.899 84.8687 114.455 87.4809 116.014 89.991C114.486 90.7677 113.005 91.6436 111.577 92.6102C110.378 89.6806 109.562 86.6192 109.155 83.4897ZM110.991 63.022C113.346 65.3039 114.526 68.1457 114.935 72.5224C115.268 76.087 115.835 79.0194 117.518 81.7364C118.922 84.0056 120.606 86.0295 122.266 87.471C120.667 87.9585 119.104 88.5481 117.584 89.237C116.021 86.7269 114.434 84.1275 113.531 81.2375C112.86 79.0931 112.575 76.8495 112.273 74.474C111.965 72.0532 111.646 69.5502 110.881 67.1762C109.995 64.4351 108.533 61.9647 106.658 59.9861C108.229 60.8124 109.701 61.7705 110.991 63.022ZM124.311 65.6979C124.082 61.5126 125.272 57.2832 127.579 54.0928C128.069 53.4153 128.615 52.7676 129.142 52.1412C129.794 51.3659 130.468 50.5651 131.056 49.6892C131.983 48.3045 132.685 46.7227 133.144 44.9879C133.253 44.574 133.344 44.1573 133.427 43.7421C133.422 45.7547 133.201 47.8481 132.68 50.266C132.282 52.11 131.458 53.7909 130.587 55.5711C129.652 57.4803 128.686 59.4546 128.267 61.6756C127.434 66.0976 128.475 70.4942 129.481 74.7462C130.35 78.4171 131.249 82.2113 130.866 85.8793L130.989 85.8963C129.058 86.0125 127.163 86.2776 125.308 86.6801C126.758 83.8596 126.732 80.4169 126.553 78.4284C126.367 76.3718 125.902 74.3465 125.452 72.3892C124.953 70.2178 124.437 67.9713 124.311 65.6979ZM134.296 50.7167C134.868 48.0706 135.095 45.7575 135.085 43.5436C135.298 44.9525 135.449 46.3103 135.531 47.6383C135.703 50.3553 135.608 52.9306 135.251 55.2961C135.07 56.4867 134.791 57.6801 134.52 58.831C134.225 60.0867 133.919 61.3836 133.738 62.6989C133.155 66.9338 134.463 70.4361 136.608 74.3876L136.749 74.647C137.719 76.4328 138.723 78.281 139.34 80.2894C139.918 82.1716 140.201 84.1601 140.221 86.4803C137.953 86.0536 135.628 85.8283 133.256 85.8283C133.017 85.8283 132.778 85.834 132.54 85.8382C132.896 81.898 131.979 78.0131 131.088 74.2544C130.089 70.0336 129.146 66.0466 129.894 62.071C130.261 60.1264 131.125 58.3604 132.04 56.491C132.927 54.6796 133.846 52.8073 134.296 50.7167ZM148.995 81.7364C150.678 79.0194 151.244 76.087 151.577 72.5224C151.987 68.1457 153.167 65.3039 155.52 63.022C156.639 61.9378 157.893 61.0732 159.229 60.3234C157.526 61.9278 155.926 63.8157 154.863 66.1373C153.674 68.7353 153.497 71.6139 153.326 74.3961C153.234 75.8829 153.139 77.4221 152.887 78.8678C152.269 82.4168 150.904 86.4717 149.351 89.434C147.698 88.6615 145.995 88.0039 144.245 87.471C145.907 86.0295 147.59 84.0056 148.995 81.7364ZM157.572 72.684C157.536 73.9808 157.559 75.2904 157.579 76.5575C157.619 78.8295 157.659 81.1794 157.357 83.4897C156.95 86.6192 156.135 89.682 154.936 92.6102C153.63 91.7258 152.279 90.9165 150.888 90.1908C152.506 87.05 153.871 82.9568 154.521 79.2349C154.792 77.673 154.891 76.0742 154.986 74.5279C155.153 71.8194 155.31 69.2597 156.34 67.0104C157.353 64.7965 158.976 62.9738 160.689 61.4162C158.773 64.7667 157.685 68.646 157.572 72.684ZM162.441 91.1759C164.126 90.2532 165.984 89.7557 167.782 89.2724L168.043 89.2029C172.019 88.1343 175.122 86.7141 177.346 83.2487C178.036 82.1744 178.628 81.0122 179.2 79.8882C179.726 78.8564 180.27 77.7892 180.883 76.8027C182.103 74.8426 183.639 72.9462 185.451 71.1646C186.363 70.2646 187.344 69.3986 188.41 68.5496C185.701 71.6153 183.718 74.9829 182.413 78.7374C182.12 79.5821 181.869 80.5374 181.628 81.4601C181.233 82.9639 180.826 84.5201 180.222 85.671C178.478 88.9988 175.439 91.2141 172.414 93.1134C172.071 93.3274 171.719 93.5471 171.357 93.771C168.564 95.5072 165.432 97.4561 163.134 99.8372C161.527 98.0258 159.795 96.3605 157.951 94.8567C159.414 93.2253 160.855 92.0433 162.441 91.1759ZM188.787 71.2113C188.031 72.8058 187.544 74.4896 187.337 76.2131C187.207 77.3059 187.185 78.4142 187.164 79.4871C187.148 80.3531 187.13 81.2503 187.054 82.1234C186.699 86.2322 184.908 90.1795 182.142 92.9518C180.639 94.4584 178.876 95.6305 177.17 96.7644C175.636 97.7849 174.047 98.8408 172.635 100.146C171.267 101.41 169.099 103.831 168.375 107.002C167.145 104.948 165.779 103.008 164.292 101.198C166.44 98.9854 169.461 97.106 172.156 95.4307C172.519 95.2068 172.874 94.9857 173.218 94.7688C176.447 92.742 179.705 90.3552 181.652 86.6404C182.362 85.2869 182.799 83.6144 183.222 82.0001C183.465 81.0746 183.694 80.2015 183.96 79.4333C185.133 76.0615 186.898 73.0142 189.297 70.2206C189.121 70.5438 188.949 70.8726 188.787 71.2113ZM177.821 106.806C178.963 106.619 180.171 106.534 181.738 106.534C182.465 106.534 183.204 106.552 183.92 106.569C184.642 106.587 185.387 106.605 186.123 106.605C186.557 106.605 186.951 106.598 187.327 106.587C190.593 106.477 193.742 105.43 196.525 103.573C195.952 104.259 195.368 104.908 194.772 105.488C193.224 106.992 191.249 108.103 188.899 108.789C187.464 109.21 185.979 109.289 184.409 109.374C183.702 109.411 182.971 109.451 182.247 109.525C179.267 109.825 175.149 110.871 171.877 114.059C171.251 112.507 170.554 110.999 169.794 109.54C172.372 108.184 175.068 107.263 177.821 106.806ZM198.577 103.833C197.829 105.688 196.963 107.426 195.821 108.941C193.809 111.612 191.308 112.947 187.455 113.402C184.319 113.774 181.738 114.412 179.345 116.318C177.346 117.91 175.563 119.819 174.292 121.704C173.825 119.714 173.251 117.773 172.574 115.893C174.933 113.402 178.4 111.814 182.396 111.41C183.085 111.339 183.798 111.301 184.487 111.264C186.074 111.179 187.714 111.091 189.314 110.622C191.911 109.862 194.11 108.619 195.853 106.925C196.793 106.012 197.708 104.931 198.577 103.833ZM223.731 133.533C223.692 133.187 223.445 132.96 223.111 132.984C221.916 133.064 220.51 133.147 219.122 133.147C216.799 133.147 214.905 132.923 213.167 132.441C211.384 131.95 209.831 131.139 208.552 130.033C207.818 129.4 207.138 128.657 206.48 127.939C205.901 127.305 205.303 126.652 204.663 126.065C202.185 123.796 199.19 122.39 196.005 122.001C195.507 121.94 194.988 121.911 194.463 121.911C191.929 121.911 189.438 122.626 187.03 123.32C186.52 123.465 186.009 123.613 185.499 123.753C183.594 124.276 182.044 124.52 180.62 124.52C178.749 124.52 177.12 124.085 175.672 123.195C176.007 122.782 176.328 122.356 176.642 121.935C177.044 121.395 177.46 120.836 177.892 120.335C179.153 118.869 180.28 117.827 181.435 117.056C183.264 115.837 185.216 115.56 187.285 115.265C188.428 115.102 189.611 114.933 190.768 114.592C196.751 112.821 199.46 106.102 201.497 99.1044C201.573 98.838 201.511 98.6565 201.442 98.5517C201.317 98.3532 201.054 98.2611 200.789 98.315C200.519 98.3702 200.164 98.6169 199.882 98.9443C199.301 99.6175 198.613 100.286 197.84 100.931C196.452 102.091 194.912 103.011 193.266 103.67C191.161 104.51 188.848 104.938 186.392 104.938C185.935 104.938 185.467 104.923 185.003 104.891C183.664 104.806 182.573 104.765 181.571 104.765C179.659 104.765 177.959 104.918 176.38 105.23C174.3 105.641 172.22 106.327 170.173 107.275C171.333 103.536 174.183 101.144 176.645 99.4361C177.096 99.1243 177.547 98.8181 177.999 98.512C180.564 96.7757 183.217 94.98 185.167 92.2318C187.18 89.3985 188.424 85.9998 188.766 82.4026C188.855 81.4728 188.872 80.5289 188.888 79.6161C188.907 78.5786 188.927 77.5071 189.051 76.4696C189.269 74.6611 189.864 72.8399 190.819 71.0583C192.563 67.8055 195.084 65.1381 197.517 62.6847C197.716 62.4863 197.782 62.2184 197.698 61.9675C197.607 61.6897 197.343 61.497 197.06 61.497C196.929 61.497 196.799 61.5381 196.683 61.6146C196.66 61.6288 196.567 61.6855 196.414 61.779C190.989 65.0899 186.897 67.9246 184.891 69.7586C183.08 71.4169 181.514 73.18 180.233 75.0027C179.295 76.3364 178.504 77.7948 177.741 79.2051C177.411 79.8117 177.071 80.4424 176.723 81.0519C175.346 83.4656 173.787 84.9991 171.813 85.8821C170.428 86.5001 168.937 86.8757 167.496 87.2371C167.166 87.3207 166.834 87.4044 166.505 87.4894C162.099 88.6388 158.789 90.6571 156.398 93.6477C156.389 93.642 156.381 93.6349 156.372 93.6293C157.5 90.8414 158.298 87.9869 158.742 85.1324C159.268 81.7322 159.204 78.4114 159.059 75.3287C158.896 71.9469 159.265 68.7877 160.153 65.9389C160.735 64.068 161.549 62.3219 162.57 60.7458C163.139 59.8656 163.73 59.0861 164.323 58.427C164.611 58.1053 164.829 57.7028 164.879 57.3995C164.918 57.1472 164.874 56.9034 164.757 56.7447C164.626 56.5661 164.414 56.5065 164.187 56.5916C158.026 58.8905 152.11 61.9562 150.54 68.7537C150.237 70.069 150.086 71.4126 149.94 72.7123C149.676 75.0622 149.427 77.2818 148.351 79.3582C147.669 80.672 146.75 81.9505 145.46 83.3791C145.016 83.8695 144.523 84.3415 144.05 84.7965C143.386 85.4328 142.701 86.0905 142.115 86.8261C142.102 86.8431 142.091 86.8615 142.079 86.8785C142.077 86.8771 142.075 86.8771 142.072 86.8771C142.24 82.8462 141.156 78.7629 138.761 74.4145C138.583 74.09 138.4 73.7654 138.219 73.4408C137.425 72.0249 136.605 70.5608 136.011 69.0088C135.165 66.7978 135.018 64.4578 135.546 61.6472C135.681 60.9357 135.832 60.2171 135.976 59.5226C136.314 57.9111 136.663 56.2458 136.831 54.5464C137.06 52.229 137.05 49.7232 136.802 47.0955C136.527 44.1857 135.398 38.8905 133.624 32.1866C133.574 31.9981 133.544 31.8833 133.536 31.8549C133.45 31.4864 133.166 31.2285 132.845 31.2285C132.681 31.2285 132.534 31.2979 132.429 31.424C132.355 31.5148 132.266 31.6792 132.281 31.94C132.473 35.6307 132.595 39.5439 131.804 43.246C131.37 45.2728 130.657 47.0374 129.685 48.4915C129.128 49.3263 128.475 50.0988 127.843 50.8457C127.286 51.5048 126.71 52.1851 126.195 52.9136C124.198 55.7298 122.962 59.1329 122.621 62.7556C122.289 66.2663 123.047 69.6679 123.779 72.9589C123.908 73.54 124.037 74.1197 124.16 74.7008C124.87 78.0401 125.411 82.2509 123.628 85.953C123.248 85.5519 122.852 85.1706 122.463 84.7965C121.988 84.3415 121.496 83.8695 121.053 83.3791C119.763 81.9505 118.843 80.672 118.162 79.3582C117.087 77.2818 116.837 75.0622 116.573 72.7123C116.427 71.4126 116.276 70.069 115.973 68.7537C114.402 61.9562 108.486 58.8905 102.326 56.5916C102.099 56.5065 101.887 56.5661 101.755 56.7461C101.639 56.9034 101.594 57.1472 101.634 57.3995C101.684 57.7014 101.901 58.1053 102.19 58.427C102.783 59.0861 103.374 59.867 103.943 60.7458C104.964 62.3219 105.778 64.068 106.36 65.9389C107.248 68.7863 107.615 71.9469 107.455 75.3287C107.308 78.4114 107.245 81.7322 107.771 85.1324C108.159 87.6311 108.821 90.1285 109.735 92.5833C106.166 91.4395 103.9 88.0563 102.3 85.1465C102.022 84.6391 101.747 84.1275 101.473 83.6158C99.9172 80.7202 98.309 77.724 95.8717 75.5356C93.3559 73.2792 90.3527 71.903 87.1861 71.5529C86.3683 71.4622 85.538 71.4523 84.7351 71.4438C83.8225 71.4353 82.88 71.4254 81.965 71.2936C80.3717 71.0654 78.7635 70.4091 77.1864 69.3433C74.3066 67.3959 71.9329 64.5584 69.7487 61.8187C69.5904 61.6217 69.4221 61.5792 69.3099 61.5792C69.1042 61.5792 68.9147 61.7124 68.8025 61.9378C68.6716 62.1985 68.6766 62.5132 68.8162 62.7797C68.8287 62.8052 68.8798 62.9115 68.9633 63.083C71.9342 69.2157 74.4712 73.8362 76.1081 76.0969C77.5854 78.1364 79.1537 79.8982 80.7694 81.3339C81.955 82.387 83.2453 83.2686 84.4945 84.1218C85.0331 84.4903 85.5891 84.8716 86.1301 85.2599C88.267 86.7963 89.6333 88.5538 90.4312 90.7875C90.991 92.3551 91.3363 94.046 91.6704 95.6816C91.7477 96.0557 91.825 96.4313 91.9035 96.8041C92.6889 100.513 93.892 103.531 95.5451 105.939C93.9132 105.233 92.2626 104.693 90.6082 104.329C88.7993 103.933 86.8831 103.749 84.5768 103.749C83.8026 103.749 82.981 103.767 81.9924 103.81C79.0266 103.939 76.234 103.466 73.7518 102.414C72.1162 101.721 70.5927 100.767 69.2226 99.5806C68.4597 98.9216 67.7827 98.237 67.213 97.551C66.9362 97.2179 66.5834 96.9642 66.3179 96.9033C66.0498 96.8424 65.7855 96.9302 65.6559 97.1287C65.5886 97.2321 65.5237 97.4121 65.596 97.6772C67.5197 104.716 70.119 111.492 76.0719 113.387C77.2239 113.754 78.4032 113.947 79.5439 114.134C81.6059 114.471 83.5533 114.79 85.3622 116.047C86.5066 116.844 87.6162 117.908 88.8517 119.399C89.2768 119.911 89.6832 120.478 90.0759 121.025C90.506 121.624 90.9486 122.237 91.426 122.802C89.8353 123.956 88.0214 124.52 85.8933 124.52C84.4696 124.52 82.9187 124.276 81.0138 123.753C80.5039 123.613 79.9927 123.465 79.4816 123.32C77.0742 122.626 74.5846 121.911 72.0489 121.911C71.5253 121.911 71.0066 121.94 70.5067 122.001C67.3215 122.39 64.3269 123.796 61.8498 126.065C61.2102 126.652 60.6118 127.305 60.0321 127.939C59.3751 128.657 58.6957 129.4 57.9614 130.033C56.6823 131.139 55.1289 131.95 53.3462 132.441C51.607 132.923 49.7146 133.147 47.3908 133.147C46.0032 133.147 44.5957 133.064 43.4026 132.984C43.0673 132.96 42.8217 133.187 42.7818 133.533C42.7431 133.867 42.9214 134.29 43.3266 134.413C43.3527 134.42 43.4537 134.455 43.6183 134.511C49.5151 136.529 54.1727 137.812 56.7334 138.124C59.0485 138.407 61.2464 138.418 63.2872 138.158C64.782 137.966 66.2468 137.571 67.663 137.187C68.2739 137.021 68.906 136.849 69.5318 136.698C70.508 136.46 71.3956 136.345 72.2446 136.345C73.5786 136.345 74.809 136.632 76.0071 137.225C77.3722 137.9 78.6613 138.834 79.9067 139.735C80.1922 139.942 80.4764 140.149 80.7619 140.352C84.3437 142.901 87.6985 144.14 91.0171 144.14C91.2528 144.14 91.4884 144.132 91.7253 144.119C91.7327 144.161 91.7415 144.202 91.7489 144.244C91.734 144.259 91.7178 144.269 91.7028 144.285C91.0558 144.952 90.4798 145.733 89.9226 146.489C89.5224 147.03 89.1097 147.59 88.6796 148.094C87.4242 149.567 86.3034 150.614 85.149 151.391C83.3251 152.621 81.3741 152.911 79.3083 153.215C78.1651 153.385 76.9832 153.56 75.8276 153.908C69.8522 155.711 67.1719 162.445 65.1647 169.454C65.0886 169.719 65.1522 169.9 65.2183 170.005C65.3205 170.164 65.5013 170.254 65.7145 170.254C65.7681 170.254 65.8229 170.249 65.8753 170.237C66.1433 170.181 66.4974 169.933 66.7779 169.604C67.3576 168.926 68.042 168.255 68.8125 167.605C70.1975 166.44 71.7322 165.511 73.3753 164.843C75.5097 163.977 77.8597 163.538 80.3593 163.538C80.7781 163.538 81.207 163.55 81.6334 163.576C82.885 163.65 83.9098 163.684 84.8585 163.684C86.8856 163.684 88.5998 163.526 90.2542 163.19C92.4583 162.743 94.6599 161.981 96.8229 160.931C94.5664 163.559 93.0019 167.068 92.0606 171.607C91.9833 171.981 91.9073 172.356 91.8325 172.732C91.5058 174.369 91.1667 176.061 90.6132 177.632C89.8253 179.871 88.4664 181.634 86.3358 183.183C85.796 183.576 85.2413 183.959 84.7052 184.329C83.4598 185.19 82.1719 186.079 80.9913 187.138C79.3819 188.582 77.821 190.352 76.3524 192.4C74.7255 194.669 72.2072 199.305 69.2625 205.452C69.179 205.625 69.1291 205.73 69.1154 205.757C68.9783 206.024 68.9746 206.337 69.1055 206.596C69.2177 206.82 69.4072 206.955 69.6116 206.955C69.7263 206.955 69.8946 206.912 70.0529 206.712C72.2259 203.961 74.5871 201.11 77.4582 199.148C79.0315 198.074 80.6373 197.409 82.2293 197.171C83.1431 197.035 84.0856 197.021 84.9982 197.005C85.801 196.994 86.6313 196.98 87.4491 196.885C90.6145 196.518 93.6127 195.124 96.1173 192.854C98.5458 190.653 100.142 187.648 101.685 184.742C101.957 184.229 102.229 183.716 102.505 183.209C104.111 180.258 106.395 176.821 110.027 175.694C109.109 178.187 108.451 180.723 108.074 183.257C107.568 186.661 107.652 189.982 107.817 193.062C107.999 196.444 107.65 199.606 106.78 202.46C106.209 204.336 105.406 206.09 104.395 207.675C103.832 208.558 103.247 209.342 102.656 210.006C102.371 210.328 102.155 210.733 102.108 211.038C102.069 211.289 102.115 211.534 102.231 211.69C102.322 211.813 102.452 211.881 102.598 211.881C102.664 211.881 102.733 211.867 102.805 211.84C108.951 209.492 114.847 206.379 116.376 199.569C116.671 198.252 116.815 196.907 116.952 195.606C117.201 193.255 117.436 191.032 118.5 188.949C119.173 187.629 120.084 186.344 121.366 184.904C121.806 184.409 122.295 183.934 122.768 183.475C123.094 183.158 123.427 182.835 123.75 182.499C125.384 186.136 124.853 190.226 124.16 193.487C124.037 194.068 123.908 194.648 123.779 195.229C123.047 198.52 122.289 201.922 122.621 205.431C122.962 209.055 124.198 212.458 126.195 215.275C126.71 216.002 127.286 216.683 127.843 217.341C128.475 218.089 129.128 218.862 129.685 219.695C130.657 221.149 131.37 222.915 131.804 224.942C132.595 228.643 132.473 232.556 132.281 236.247C132.266 236.509 132.355 236.672 132.429 236.764C132.534 236.889 132.681 236.958 132.845 236.958C133.166 236.958 133.45 236.702 133.536 236.333C133.544 236.305 133.574 236.19 133.624 236.002C135.398 229.298 136.527 224.002 136.802 221.091C137.05 218.465 137.06 215.959 136.831 213.64C136.663 211.942 136.314 210.276 135.976 208.665C135.832 207.971 135.681 207.252 135.546 206.539C135.018 203.729 135.165 201.39 136.011 199.179C136.605 197.627 137.425 196.162 138.219 194.746C138.4 194.423 138.583 194.098 138.761 193.774C141.156 189.424 142.24 185.34 142.072 181.311C142.075 181.31 142.077 181.31 142.079 181.308C142.091 181.327 142.102 181.345 142.115 181.362C142.701 182.098 143.386 182.755 144.05 183.39C144.523 183.847 145.016 184.317 145.46 184.808C146.75 186.238 147.669 187.516 148.351 188.83C149.427 190.906 149.676 193.126 149.94 195.474C150.086 196.774 150.237 198.118 150.54 199.434C152.11 206.231 158.026 209.296 164.187 211.597C164.257 211.622 164.325 211.635 164.389 211.635C164.535 211.635 164.666 211.567 164.757 211.443C164.874 211.285 164.918 211.041 164.879 210.789C164.829 210.484 164.611 210.081 164.323 209.761C163.73 209.102 163.139 208.322 162.57 207.444C161.549 205.866 160.735 204.119 160.153 202.249C159.265 199.4 158.896 196.24 159.059 192.858C159.204 189.777 159.268 186.456 158.742 183.056C158.298 180.201 157.5 177.347 156.372 174.559C156.533 174.438 156.695 174.321 156.853 174.199C156.937 174.25 157.03 174.285 157.132 174.298C161.345 174.868 164.024 178.508 165.887 181.616C166.183 182.11 166.474 182.608 166.767 183.107C168.421 185.932 170.132 188.853 172.644 190.929C175.234 193.072 178.282 194.314 181.46 194.522C181.773 194.542 182.106 194.552 182.479 194.552C182.957 194.552 183.444 194.535 183.914 194.519C184.379 194.504 184.861 194.487 185.334 194.487C185.839 194.487 186.281 194.506 186.686 194.546C188.286 194.703 189.914 195.286 191.53 196.281C194.473 198.096 196.944 200.826 199.22 203.465C199.379 203.648 199.54 203.686 199.647 203.686C199.854 203.686 200.048 203.546 200.157 203.318C200.284 203.053 200.27 202.725 200.122 202.463C200.106 202.438 200.052 202.336 199.961 202.167C196.779 196.173 194.084 191.669 192.371 189.483C190.824 187.512 189.197 185.821 187.532 184.46C186.311 183.461 184.991 182.638 183.714 181.841C183.163 181.497 182.593 181.142 182.04 180.778C179.852 179.337 178.424 177.643 177.551 175.446C176.937 173.905 176.533 172.232 176.143 170.613C176.052 170.242 175.962 169.87 175.87 169.5C174.925 165.703 173.562 162.667 171.739 160.3C173.476 160.977 175.232 161.467 176.982 161.763C178.311 161.989 179.7 162.098 181.231 162.098C182.499 162.098 183.849 162.025 185.609 161.864C188.56 161.593 191.383 161.932 193.896 162.86C195.555 163.472 197.112 164.351 198.527 165.469C199.314 166.093 200.016 166.742 200.61 167.401C200.901 167.72 201.26 167.957 201.531 168.005C201.575 168.012 201.622 168.016 201.666 168.016C201.887 168.016 202.073 167.921 202.176 167.756C202.231 167.668 202.31 167.478 202.22 167.197C200.036 160.257 197.183 153.615 191.167 152.009C190.002 151.699 188.816 151.563 187.67 151.431C185.597 151.194 183.638 150.97 181.784 149.801C180.611 149.062 179.463 148.052 178.171 146.622C177.728 146.131 177.3 145.586 176.889 145.057C176.645 144.747 176.397 144.432 176.144 144.123C179.251 143.973 182.401 142.736 185.75 140.352C186.035 140.149 186.321 139.942 186.605 139.735C187.852 138.834 189.14 137.9 190.505 137.225C191.703 136.632 192.933 136.345 194.269 136.345C195.118 136.345 196.005 136.46 196.98 136.698C197.607 136.849 198.238 137.021 198.849 137.187C200.266 137.571 201.732 137.966 203.225 138.158C205.267 138.418 207.465 138.407 209.779 138.124C212.339 137.812 216.997 136.529 222.895 134.511C223.059 134.455 223.159 134.42 223.187 134.413C223.592 134.29 223.77 133.867 223.731 133.533Z" fill="white"/>
<path d="M115.29 130.436C116.089 130.436 116.737 129.763 116.737 128.931C116.737 128.1 116.089 127.427 115.29 127.427C115.097 127.427 114.912 127.468 114.743 127.542C114.892 127.657 114.992 127.855 114.992 128.079C114.992 128.44 114.736 128.732 114.42 128.732C114.213 128.732 114.032 128.609 113.93 128.425C113.873 128.582 113.844 128.751 113.844 128.931C113.844 129.763 114.493 130.436 115.29 130.436Z" fill="white"/>
<path d="M151.221 130.436C152.019 130.436 152.668 129.763 152.668 128.931C152.668 128.1 152.019 127.427 151.221 127.427C151.027 127.427 150.842 127.468 150.673 127.542C150.823 127.657 150.923 127.855 150.923 128.079C150.923 128.44 150.666 128.732 150.349 128.732C150.142 128.732 149.962 128.609 149.861 128.425C149.803 128.582 149.775 128.751 149.775 128.931C149.775 129.763 150.423 130.436 151.221 130.436Z" fill="white"/>
<path d="M104.242 117.396C105.873 116.521 107.597 115.258 109.34 114.73C111.158 114.182 113.374 114.956 115.169 115.38C116.922 115.796 118.647 116.321 120.364 116.886C121.101 117.127 122.667 117.851 123.708 117.919C123.887 117.931 124.05 117.924 124.191 117.89C125.217 117.652 125.767 116.309 125.022 115.234C124.373 114.293 123.189 114.026 122.227 113.762C120.874 113.393 119.496 113.147 118.117 112.949C115.428 112.561 112.469 111.95 109.806 112.782C108.603 113.157 107.476 113.788 106.386 114.468C105.398 115.085 104.273 115.612 103.676 116.753C103.45 117.185 103.885 117.588 104.242 117.396Z" fill="white"/>
<path d="M142.321 117.89C142.461 117.924 142.625 117.931 142.804 117.919C143.847 117.851 145.411 117.127 146.148 116.886C147.865 116.321 149.591 115.796 151.343 115.38C153.138 114.956 155.353 114.182 157.172 114.73C158.915 115.258 160.639 116.521 162.27 117.396C162.627 117.588 163.062 117.185 162.836 116.753C162.239 115.612 161.114 115.085 160.126 114.468C159.037 113.788 157.909 113.157 156.707 112.782C154.044 111.95 151.083 112.561 148.394 112.949C147.016 113.147 145.639 113.393 144.287 113.762C143.323 114.026 142.139 114.293 141.489 115.234C140.745 116.309 141.295 117.652 142.321 117.89Z" fill="white"/>
<path d="M139.85 158.139H139.79C138.895 158.109 137.871 157.7 136.878 157.3C135.794 156.866 134.673 156.417 133.63 156.417C132.585 156.417 131.465 156.866 130.379 157.301C129.388 157.7 128.363 158.109 127.469 158.139H127.41C126.106 158.139 123.258 156.832 121.491 155.954C123.039 155.404 125.499 154.471 126.678 153.701C128.689 152.392 130.258 152.25 130.839 152.25C131.34 152.25 131.816 152.49 132.275 152.724C132.734 152.955 133.165 153.173 133.63 153.173C134.094 153.173 134.525 152.955 134.984 152.724C135.444 152.49 135.919 152.25 136.419 152.25C137.001 152.25 138.569 152.392 140.579 153.701C141.758 154.47 144.219 155.404 145.768 155.954C144.24 156.71 141.186 158.139 139.85 158.139ZM147.251 155.334C147.206 155.32 142.671 153.818 141.053 152.763C139.497 151.75 137.809 151.169 136.419 151.169C135.716 151.169 135.121 151.469 134.596 151.736C134.233 151.918 133.892 152.093 133.63 152.093C133.367 152.093 133.025 151.918 132.663 151.736C132.136 151.469 131.542 151.169 130.839 151.169C129.45 151.169 127.761 151.75 126.206 152.763C124.588 153.818 120.052 155.32 120.007 155.334C119.818 155.397 119.681 155.589 119.666 155.81C119.65 156.034 119.758 156.248 119.936 156.343C120.156 156.461 125.322 159.221 127.422 159.221L127.496 159.219C128.539 159.187 129.636 158.746 130.695 158.322C131.751 157.898 132.747 157.498 133.63 157.498C134.511 157.498 135.507 157.898 136.562 158.322C137.623 158.746 138.72 159.187 139.764 159.219L139.836 159.221C141.937 159.221 147.103 156.461 147.322 156.343C147.501 156.248 147.609 156.034 147.593 155.81C147.577 155.589 147.441 155.397 147.251 155.334Z" fill="white"/>
<path d="M142.25 160.438C142.009 160.339 141.728 160.488 141.64 160.758C141.627 160.795 140.282 164.524 133.63 164.524C126.974 164.524 125.631 160.795 125.619 160.76C125.532 160.488 125.254 160.337 125.012 160.435C124.892 160.485 124.796 160.584 124.742 160.714C124.688 160.845 124.681 160.991 124.725 161.128C124.782 161.31 126.222 165.604 133.63 165.604C141.037 165.604 142.476 161.31 142.534 161.128C142.622 160.849 142.494 160.54 142.25 160.438Z" fill="white"/>
<path d="M127.848 144.903C128.72 145.359 129.537 145.43 130.174 145.122C130.675 145.824 131.866 147.248 133.256 147.248C134.647 147.248 135.837 145.824 136.338 145.122C136.597 145.247 136.885 145.311 137.197 145.311C137.652 145.311 138.145 145.173 138.664 144.903C140.448 143.967 140.593 141.983 140.599 141.898C140.618 141.603 140.421 141.344 140.161 141.321C139.902 141.298 139.671 141.524 139.65 141.817C139.646 141.875 139.533 143.257 138.266 143.92C137.871 144.127 137.51 144.231 137.19 144.231C136.754 144.231 136.557 144.035 136.555 144.031C136.456 143.918 136.317 143.858 136.173 143.872C136.03 143.886 135.903 143.973 135.822 144.106C135.809 144.127 134.561 146.168 133.256 146.168C131.952 146.168 130.701 144.127 130.69 144.107C130.613 143.978 130.488 143.895 130.346 143.878C130.21 143.861 130.069 143.913 129.967 144.022C129.965 144.024 129.761 144.231 129.32 144.231C129.002 144.231 128.641 144.127 128.246 143.92C126.979 143.257 126.867 141.875 126.862 141.817C126.842 141.521 126.625 141.295 126.353 141.32C126.091 141.341 125.894 141.602 125.913 141.898C125.918 141.983 126.064 143.967 127.848 144.903Z" fill="white"/>
<path d="M115.371 134.199C110.411 134.199 107.49 129.754 106.935 128.824C108.046 128.368 110.247 127.508 111.868 127.138C111.519 127.736 111.329 128.419 111.329 129.119C111.329 131.293 113.105 133.061 115.29 133.061C117.476 133.061 119.253 131.293 119.253 129.119C119.253 128.454 119.08 127.803 118.763 127.224C120.314 127.624 122.461 128.547 123.554 129.017C122.849 130.195 120.1 134.199 115.371 134.199ZM112.981 126.925C113.107 126.905 113.233 126.887 113.361 126.871C114.745 126.691 115.97 126.706 117.232 126.905C117.259 126.914 117.285 126.918 117.303 126.918C117.418 126.935 117.537 126.958 117.658 126.98C118.221 127.56 118.54 128.314 118.54 129.119C118.54 130.844 117.083 132.25 115.29 132.25C113.5 132.25 112.042 130.844 112.042 129.119C112.042 128.294 112.389 127.508 112.981 126.925ZM122.078 132.107C122.314 131.877 122.542 131.634 122.763 131.381C123.177 130.906 123.552 130.396 123.903 129.863C124.004 129.713 124.102 129.563 124.199 129.411C124.29 129.268 124.398 129.111 124.392 128.922C124.39 128.874 124.38 128.827 124.366 128.782C124.337 128.693 124.285 128.609 124.23 128.535C124.118 128.386 124.004 128.238 123.89 128.089C123.667 127.797 123.436 127.513 123.198 127.238C123.019 127.03 122.839 126.83 122.653 126.629C122.558 126.53 122.463 126.433 122.367 126.331C122.275 126.238 122.18 126.122 122.076 126.042C121.788 125.762 121.491 125.492 121.187 125.236C120.86 124.962 120.525 124.703 120.178 124.459C119.819 124.208 119.449 123.976 119.065 123.767C118.674 123.553 118.268 123.368 117.858 123.213C117.437 123.057 117.004 122.931 116.567 122.849C116.145 122.77 115.718 122.726 115.29 122.726C114.831 122.726 114.375 122.767 113.92 122.846C113.492 122.918 113.067 123.026 112.651 123.169C112.253 123.305 111.864 123.47 111.485 123.663C111.122 123.843 110.767 124.051 110.426 124.278C110.1 124.492 109.783 124.727 109.477 124.975C109.191 125.21 108.913 125.455 108.644 125.716C108.397 125.954 108.159 126.204 107.926 126.457C107.724 126.684 107.524 126.915 107.332 127.158C107.173 127.357 107.016 127.562 106.864 127.773C106.747 127.936 106.636 128.1 106.523 128.266C106.442 128.389 106.364 128.514 106.288 128.642C106.248 128.707 106.207 128.776 106.196 128.856C106.169 129.033 106.257 129.131 106.34 129.265C106.41 129.377 106.471 129.492 106.541 129.604C106.652 129.792 106.78 129.971 106.906 130.148C107.058 130.362 107.218 130.571 107.38 130.773C107.572 131.014 107.77 131.247 107.976 131.471C108.714 132.276 109.534 132.983 110.428 133.544C110.984 133.896 111.564 134.19 112.168 134.42C113.283 134.844 114.462 135.042 115.637 135.007C116.124 134.993 116.609 134.94 117.088 134.844C118.086 134.651 119.054 134.277 119.955 133.747C120.716 133.3 121.429 132.745 122.078 132.107Z" fill="white"/>
<path d="M151.141 134.199C146.412 134.199 143.664 130.195 142.958 129.017C144.051 128.547 146.199 127.624 147.749 127.224C147.432 127.803 147.259 128.454 147.259 129.119C147.259 131.293 149.038 133.061 151.222 133.061C153.407 133.061 155.184 131.293 155.184 129.119C155.184 128.419 154.993 127.736 154.644 127.138C156.265 127.508 158.468 128.368 159.577 128.824C159.024 129.754 156.101 134.199 151.141 134.199ZM148.854 126.98C148.975 126.958 149.095 126.935 149.208 126.918C149.227 126.918 149.253 126.914 149.28 126.905C150.542 126.706 151.767 126.691 153.151 126.871C153.279 126.887 153.405 126.905 153.531 126.925C154.123 127.508 154.471 128.294 154.471 129.119C154.471 130.844 153.012 132.25 151.222 132.25C149.429 132.25 147.972 130.844 147.972 129.119C147.972 128.314 148.291 127.56 148.854 126.98ZM156.085 133.544C156.979 132.983 157.798 132.276 158.536 131.471C158.743 131.247 158.94 131.014 159.132 130.773C159.294 130.571 159.454 130.362 159.606 130.148C159.732 129.971 159.86 129.792 159.972 129.604C160.041 129.492 160.102 129.377 160.172 129.265C160.254 129.131 160.343 129.033 160.316 128.856C160.304 128.776 160.264 128.707 160.224 128.642C160.148 128.514 160.07 128.389 159.989 128.266C159.878 128.1 159.765 127.936 159.648 127.773C159.497 127.562 159.339 127.357 159.181 127.158C158.987 126.915 158.788 126.684 158.586 126.457C158.353 126.204 158.115 125.954 157.868 125.716C157.599 125.455 157.321 125.21 157.035 124.975C156.728 124.727 156.413 124.492 156.086 124.278C155.745 124.051 155.39 123.843 155.027 123.663C154.649 123.47 154.259 123.305 153.861 123.169C153.445 123.026 153.02 122.918 152.592 122.846C152.138 122.767 151.682 122.726 151.222 122.726C150.794 122.726 150.365 122.77 149.945 122.849C149.508 122.931 149.075 123.057 148.655 123.213C148.244 123.368 147.838 123.553 147.446 123.767C147.063 123.976 146.693 124.208 146.334 124.459C145.987 124.703 145.652 124.962 145.326 125.236C145.022 125.492 144.724 125.762 144.437 126.042C144.331 126.122 144.237 126.238 144.144 126.331C144.05 126.433 143.954 126.53 143.859 126.629C143.673 126.83 143.492 127.03 143.314 127.238C143.076 127.513 142.845 127.797 142.622 128.089C142.509 128.238 142.394 128.386 142.282 128.535C142.227 128.609 142.176 128.693 142.146 128.782C142.132 128.827 142.124 128.874 142.121 128.922C142.114 129.111 142.223 129.268 142.313 129.411C142.41 129.563 142.509 129.713 142.607 129.863C142.96 130.396 143.335 130.906 143.749 131.381C143.97 131.634 144.199 131.877 144.435 132.107C145.083 132.745 145.796 133.3 146.557 133.747C147.458 134.277 148.427 134.651 149.425 134.844C149.903 134.94 150.388 134.993 150.875 135.007C152.05 135.042 153.229 134.844 154.344 134.42C154.948 134.19 155.528 133.896 156.085 133.544Z" fill="white"/>
<path d="M133.417 113.098C133.598 113.098 133.781 113.088 133.959 113.069C134.316 113.033 134.665 112.957 135 112.85C135.839 112.585 136.601 112.111 137.24 111.482C137.461 111.268 137.668 111.033 137.859 110.785C138.412 110.055 138.829 109.187 139.059 108.232C139.157 107.852 139.224 107.457 139.251 107.051C139.27 106.849 139.28 106.64 139.28 106.432C139.28 105.057 138.915 103.78 138.286 102.719C138.289 102.74 138.289 102.761 138.289 102.784C138.289 105.406 136.106 107.529 133.414 107.529C130.723 107.529 128.54 105.406 128.54 102.784C128.54 102.765 128.54 102.746 128.542 102.726C128.198 103.303 127.936 103.943 127.769 104.629C127.672 105.01 127.606 105.406 127.577 105.811C127.561 106.017 127.549 106.221 127.549 106.432C127.549 110.114 130.179 113.098 133.417 113.098Z" fill="white"/>
<path d="M123.208 109.09C123.961 109.09 124.572 108.415 124.572 107.581C124.572 106.748 123.961 106.072 123.208 106.072C122.455 106.072 121.844 106.748 121.844 107.581C121.844 108.415 122.455 109.09 123.208 109.09Z" fill="white"/>
<path d="M143.622 109.09C144.375 109.09 144.986 108.415 144.986 107.581C144.986 106.748 144.375 106.072 143.622 106.072C142.868 106.072 142.257 106.748 142.257 107.581C142.257 108.415 142.868 109.09 143.622 109.09Z" fill="white"/>
<path d="M102.73 141.318C101.869 142.298 101.275 143.577 101.08 145.012L105.977 139.443C104.721 139.664 103.594 140.34 102.73 141.318Z" fill="white"/>
<path d="M108.459 139.615C108.275 139.556 108.084 139.505 107.892 139.467L101.102 147.186C101.135 147.406 101.18 147.621 101.232 147.832C101.315 148.174 101.422 148.5 101.55 148.817L109.326 139.977C109.047 139.831 108.76 139.711 108.459 139.615Z" fill="white"/>
<path d="M111.318 141.68C111.13 141.432 110.925 141.198 110.705 140.984C110.645 140.927 110.586 140.869 110.524 140.815L102.288 150.179C102.336 150.25 102.386 150.317 102.435 150.385C102.625 150.633 102.829 150.868 103.051 151.082C103.11 151.139 103.17 151.196 103.23 151.249L111.465 141.887C111.42 141.816 111.37 141.748 111.318 141.68Z" fill="white"/>
<path d="M112.524 144.229C112.44 143.889 112.333 143.562 112.205 143.246L104.428 152.087C104.706 152.233 104.994 152.355 105.293 152.45C105.479 152.509 105.669 152.56 105.861 152.599L112.655 144.876C112.621 144.657 112.576 144.441 112.524 144.229Z" fill="white"/>
<path d="M111.024 150.748C111.887 149.768 112.481 148.484 112.676 147.051L107.775 152.623C109.035 152.4 110.162 151.726 111.024 150.748Z" fill="white"/>
<path d="M165.432 145.012C165.237 143.577 164.642 142.298 163.782 141.318C162.918 140.34 161.792 139.664 160.533 139.443L165.432 145.012Z" fill="white"/>
<path d="M158.052 139.615C157.752 139.711 157.465 139.831 157.186 139.977L164.962 148.817C165.09 148.5 165.196 148.174 165.281 147.832C165.332 147.621 165.377 147.406 165.41 147.186L158.621 139.467C158.428 139.505 158.238 139.556 158.052 139.615Z" fill="white"/>
<path d="M155.807 140.984C155.587 141.198 155.382 141.432 155.194 141.68C155.142 141.748 155.092 141.816 155.047 141.887L163.284 151.249C163.342 151.196 163.402 151.139 163.461 151.082C163.682 150.868 163.887 150.633 164.076 150.385C164.128 150.317 164.177 150.25 164.224 150.179L155.988 140.815C155.927 140.869 155.867 140.927 155.807 140.984Z" fill="white"/>
<path d="M153.988 144.229C153.936 144.441 153.891 144.657 153.857 144.876L160.651 152.599C160.844 152.56 161.033 152.509 161.219 152.45C161.518 152.355 161.806 152.233 162.084 152.087L154.307 143.246C154.179 143.562 154.072 143.889 153.988 144.229Z" fill="white"/>
<path d="M155.489 150.748C156.349 151.726 157.476 152.4 158.737 152.623L153.837 147.051C154.032 148.484 154.627 149.768 155.489 150.748Z" fill="white"/>
</g>
</g>
<defs>
<clipPath id="clip0_434_164">
<rect width="263" height="299" fill="white"/>
</clipPath>
<clipPath id="clip1_434_164">
<rect width="258.512" height="293.898" fill="white" transform="translate(4 -23)"/>
</clipPath>
</defs>
</svg>
