<svg width="501" height="501" viewBox="0 0 501 501" fill="none" xmlns="http://www.w3.org/2000/svg">
<path d="M253.651 470.161C368.698 470.161 461.962 414.828 461.962 346.571C461.962 278.315 368.698 222.981 253.651 222.981C138.605 222.981 45.3414 278.315 45.3414 346.571C45.3414 414.828 138.605 470.161 253.651 470.161Z" fill="#F5F5F5"/>
<path d="M252.592 439.991C292.422 439.991 324.712 421.349 324.712 398.351C324.712 375.354 292.422 356.711 252.592 356.711C212.761 356.711 180.472 375.354 180.472 398.351C180.472 421.349 212.761 439.991 252.592 439.991Z" fill="#E0E0E0"/>
<path d="M375.152 413.331C396.74 413.331 414.242 403.227 414.242 390.761C414.242 378.296 396.74 368.191 375.152 368.191C353.563 368.191 336.062 378.296 336.062 390.761C336.062 403.227 353.563 413.331 375.152 413.331Z" fill="#E0E0E0"/>
<path d="M138.792 408.701C165.373 408.701 186.922 396.259 186.922 380.911C186.922 365.563 165.373 353.121 138.792 353.121C112.21 353.121 90.6615 365.563 90.6615 380.911C90.6615 396.259 112.21 408.701 138.792 408.701Z" fill="#E0E0E0"/>
<path d="M184.255 371.275C208.726 365.589 225.348 347.138 221.381 330.064C217.414 312.989 194.36 303.756 169.888 309.442C145.417 315.128 128.795 333.579 132.762 350.653C136.729 367.728 159.783 376.961 184.255 371.275Z" fill="#E0E0E0"/>
<path d="M175.132 77.1814H169.382C169.413 76.9695 169.43 76.7556 169.432 76.5414V75.1014C169.432 73.8708 168.943 72.6906 168.073 71.8204C167.202 70.9502 166.022 70.4614 164.792 70.4614C163.793 70.4585 162.82 70.7815 162.022 71.3814C161.791 69.6372 160.908 68.0453 159.55 66.9267C158.193 65.808 156.461 65.2459 154.705 65.3538C152.949 65.4616 151.3 66.2314 150.089 67.5077C148.878 68.7841 148.197 70.4722 148.182 72.2314V74.3914C148.181 75.3524 148.382 76.3029 148.772 77.1814H144.002C143.65 77.1594 143.297 77.2098 142.966 77.3293C142.635 77.4487 142.331 77.6349 142.074 77.8761C141.818 78.1174 141.613 78.4087 141.473 78.7321C141.333 79.0554 141.261 79.404 141.261 79.7564C141.261 80.1087 141.333 80.4573 141.473 80.7807C141.613 81.104 141.818 81.3953 142.074 81.6366C142.331 81.8779 142.635 82.064 142.966 82.1835C143.297 82.303 143.65 82.3533 144.002 82.3314H175.132C175.483 82.3533 175.836 82.303 176.167 82.1835C176.499 82.064 176.802 81.8779 177.059 81.6366C177.316 81.3953 177.52 81.104 177.66 80.7807C177.8 80.4573 177.872 80.1087 177.872 79.7564C177.872 79.404 177.8 79.0554 177.66 78.7321C177.52 78.4087 177.316 78.1174 177.059 77.8761C176.802 77.6349 176.499 77.4487 176.167 77.3293C175.836 77.2098 175.483 77.1594 175.132 77.1814Z" fill="#E0E0E0"/>
<path d="M395.342 51.8413H390.142C390.174 51.653 390.191 51.4624 390.192 51.2713V49.9713C390.196 49.4164 390.09 48.8662 389.88 48.3525C389.67 47.8388 389.36 47.3718 388.969 46.9785C388.577 46.5852 388.112 46.2733 387.599 46.061C387.086 45.8486 386.537 45.74 385.982 45.7413C385.079 45.7391 384.2 46.0343 383.482 46.5813C383.281 44.9962 382.484 43.5471 381.253 42.528C380.023 41.5089 378.451 40.9964 376.856 41.0944C375.261 41.1924 373.763 41.8936 372.667 43.0557C371.57 44.2177 370.957 45.7535 370.952 47.3513V49.3013C370.95 50.1691 371.131 51.0276 371.482 51.8213H367.162C366.569 51.8601 366.013 52.123 365.607 52.5566C365.2 52.9903 364.974 53.5622 364.974 54.1563C364.974 54.7504 365.2 55.3223 365.607 55.756C366.013 56.1896 366.569 56.4525 367.162 56.4913H395.342C395.661 56.5122 395.981 56.4674 396.283 56.3595C396.584 56.2516 396.86 56.083 397.094 55.8641C397.328 55.6453 397.514 55.3808 397.641 55.087C397.769 54.7932 397.835 54.4765 397.835 54.1563C397.835 53.8361 397.769 53.5194 397.641 53.2256C397.514 52.9318 397.328 52.6673 397.094 52.4485C396.86 52.2296 396.584 52.061 396.283 51.9531C395.981 51.8452 395.661 51.8004 395.342 51.8213V51.8413Z" fill="#E0E0E0"/>
<path d="M52.8015 142.051L55.9715 141.521V135.521C55.9715 130.721 60.3815 127.371 65.1815 127.371C66.3214 127.371 67.4501 127.596 68.5032 128.032C69.5563 128.468 70.5132 129.108 71.3192 129.914C72.1252 130.72 72.7646 131.677 73.2008 132.73C73.637 133.783 73.8615 134.911 73.8615 136.051V136.921C74.9784 135.973 76.396 135.452 77.8615 135.451C78.6818 135.45 79.4943 135.61 80.2525 135.923C81.0107 136.236 81.6998 136.696 82.2803 137.275C82.8608 137.855 83.3213 138.543 83.6355 139.301C83.9498 140.059 84.1115 140.871 84.1115 141.691V142.091H88.5315C89.5878 142.143 90.5836 142.6 91.3127 143.366C92.0419 144.132 92.4486 145.149 92.4486 146.206C92.4486 147.264 92.0419 148.281 91.3127 149.047C90.5836 149.813 89.5878 150.269 88.5315 150.321H52.8015C51.7452 150.269 50.7494 149.813 50.0202 149.047C49.2911 148.281 48.8844 147.264 48.8844 146.206C48.8844 145.149 49.2911 144.132 50.0202 143.366C50.7494 142.6 51.7452 142.143 52.8015 142.091V142.051Z" fill="#E0E0E0"/>
<path d="M417.742 98.2713L420.612 97.7913V92.3213C420.612 87.9813 424.612 84.9413 428.952 84.9413C431.034 84.9439 433.031 85.7732 434.503 87.247C435.975 88.7207 436.802 90.7184 436.802 92.8013V93.6013C437.82 92.7338 439.114 92.2586 440.452 92.2613C441.95 92.2613 443.387 92.8566 444.447 93.9161C445.506 94.9757 446.102 96.4128 446.102 97.9113V98.2713H450.102C451.056 98.3208 451.955 98.7348 452.613 99.428C453.272 100.121 453.638 101.04 453.638 101.996C453.638 102.952 453.272 103.871 452.613 104.565C451.955 105.258 451.056 105.672 450.102 105.721H417.742C416.787 105.672 415.888 105.258 415.23 104.565C414.572 103.871 414.205 102.952 414.205 101.996C414.205 101.04 414.572 100.121 415.23 99.428C415.888 98.7348 416.787 98.3208 417.742 98.2713Z" fill="#E0E0E0"/>
<path d="M135.741 100.941V101.071C135.261 105.971 133.357 110.623 130.264 114.452C127.171 118.282 123.024 121.123 118.335 122.623C113.646 124.123 108.621 124.218 103.879 122.896C99.1371 121.573 94.8861 118.891 91.6507 115.181C88.4153 111.47 86.3371 106.894 85.6725 102.016C85.0078 97.1379 85.786 92.1722 87.9108 87.7314C90.0356 83.2906 93.4141 79.5691 97.6294 77.0262C101.845 74.4832 106.712 73.2301 111.631 73.4214C108.501 74.4412 105.672 76.2218 103.399 78.6037C101.126 80.9855 99.4791 83.8942 98.6066 87.069C97.734 90.2438 97.6628 93.5855 98.3993 96.7945C99.1359 100.004 100.657 102.98 102.827 105.456C104.996 107.933 107.747 109.832 110.831 110.985C113.915 112.137 117.237 112.506 120.499 112.058C123.761 111.611 126.861 110.361 129.521 108.421C132.182 106.481 134.319 103.911 135.741 100.941Z" fill="#BA68C8"/>
<path d="M75.7414 58.8213C75.7414 61.2013 79.4614 61.2013 79.4214 58.8213C79.3814 56.4413 75.6814 56.4313 75.7414 58.8213Z" fill="#BA68C8"/>
<path d="M73.7414 117.821C73.7414 120.201 77.4614 120.201 77.4214 117.821C77.3814 115.441 73.6814 115.431 73.7414 117.821Z" fill="#BA68C8"/>
<path d="M87.7414 62.8213C87.7414 65.2013 91.4614 65.2013 91.4214 62.8213C91.3814 60.4413 87.6814 60.4313 87.7414 62.8213Z" fill="#BA68C8"/>
<path d="M52.2414 85.2714L57.0814 86.9414C58.8314 93.7514 58.4314 93.6314 62.5614 87.9414C69.6714 88.3414 69.3614 88.8214 65.2514 83.0514C67.8214 76.4214 68.1914 76.8614 61.4414 78.9814C55.9214 74.4914 56.4414 74.2814 56.3814 81.3514C56.1314 81.9514 50.3814 84.3414 52.2414 85.2714Z" fill="#BA68C8"/>
<path d="M151.741 104.961L153.651 108.091C151.521 112.651 151.351 112.411 156.201 111.171C159.951 114.631 159.561 114.761 159.921 109.701C164.371 107.211 164.371 107.621 159.671 105.701C158.671 100.701 159.061 100.821 155.791 104.701C155.421 104.901 151.151 103.601 151.741 104.961Z" fill="#BA68C8"/>
<path opacity="0.5" d="M75.7414 58.8213C75.7414 61.2013 79.4614 61.2013 79.4214 58.8213C79.3814 56.4413 75.6814 56.4313 75.7414 58.8213Z" fill="white"/>
<path opacity="0.5" d="M73.7414 117.821C73.7414 120.201 77.4614 120.201 77.4214 117.821C77.3814 115.441 73.6814 115.431 73.7414 117.821Z" fill="white"/>
<path opacity="0.5" d="M87.7414 62.8213C87.7414 65.2013 91.4614 65.2013 91.4214 62.8213C91.3814 60.4413 87.6814 60.4313 87.7414 62.8213Z" fill="white"/>
<path opacity="0.5" d="M52.2414 85.2714L57.0814 86.9414C58.8314 93.7514 58.4314 93.6314 62.5614 87.9414C69.6714 88.3414 69.3614 88.8214 65.2514 83.0514C67.8214 76.4214 68.1914 76.8614 61.4414 78.9814C55.9214 74.4914 56.4414 74.2814 56.3814 81.3514C56.1314 81.9514 50.3814 84.3414 52.2414 85.2714Z" fill="white"/>
<path opacity="0.5" d="M151.741 104.961L153.651 108.091C151.521 112.651 151.351 112.411 156.201 111.171C159.951 114.631 159.561 114.761 159.921 109.701C164.371 107.211 164.371 107.621 159.671 105.701C158.671 100.701 159.061 100.821 155.791 104.701C155.421 104.901 151.151 103.601 151.741 104.961Z" fill="white"/>
<path d="M190.562 331.061C191.702 338.981 190.742 349.481 187.742 357.061C185.132 362.061 181.302 364.521 176.882 364.791C172.942 365.011 169.082 363.421 165.762 359.791C163.002 356.841 160.621 352.501 158.861 346.741C155.171 334.691 153.862 311.551 160.302 299.291C164.482 291.291 171.062 290.881 171.062 290.881C171.062 290.881 177.492 292.731 182.312 301.081C185.552 306.641 189.002 320.221 190.562 331.061Z" fill="#BA68C8"/>
<path opacity="0.5" d="M190.562 331.061C191.702 338.981 190.742 349.481 187.742 357.061C185.132 362.061 181.302 364.521 176.882 364.791C172.942 365.011 169.082 363.421 165.762 359.791C163.002 356.841 160.621 352.501 158.861 346.741C155.171 334.691 153.862 311.551 160.302 299.291C164.482 291.291 171.062 290.881 171.062 290.881C171.062 290.881 177.492 292.731 182.312 301.081C185.552 306.641 189.002 320.221 190.562 331.061Z" fill="white"/>
<path opacity="0.05" d="M174.362 358.741C165.262 356.661 159.042 347.291 157.062 339.411C157.533 341.875 158.134 344.311 158.862 346.711C160.622 352.471 163.002 356.811 165.762 359.761C169.082 363.351 172.942 364.941 176.882 364.761C181.302 364.491 185.132 362.061 187.742 357.031C188.945 353.828 189.62 350.451 189.742 347.031C189.592 351.091 183.402 360.821 174.362 358.741Z" fill="black"/>
<path d="M171.061 290.881C171.061 290.881 164.481 291.251 160.301 299.291C153.911 311.551 155.171 334.691 158.861 346.741C160.621 352.501 163.001 356.841 165.761 359.791C163.111 361.931 154.761 362.551 148.761 356.101C147.609 354.839 146.602 353.45 145.761 351.961C141.561 344.871 140.231 335.461 139.911 329.041C139.511 321.281 142.401 306.961 149.681 299.181C156.961 291.401 167.261 289.121 171.071 290.871L171.061 290.881Z" fill="#BA68C8"/>
<path opacity="0.25" d="M171.061 290.881C171.061 290.881 164.481 291.251 160.301 299.291C153.911 311.551 155.171 334.691 158.861 346.741C160.621 352.501 163.001 356.841 165.761 359.791C163.111 361.931 154.761 362.551 148.761 356.101C147.609 354.839 146.602 353.45 145.761 351.961C141.561 344.871 140.231 335.461 139.911 329.041C139.511 321.281 142.401 306.961 149.681 299.181C156.961 291.401 167.261 289.121 171.071 290.871L171.061 290.881Z" fill="white"/>
<path opacity="0.05" d="M157.292 307.981C152.902 316.871 148.561 333.281 157.861 354.721C157.861 354.721 156.351 356.331 151.251 353.871C146.151 351.411 143.541 346.691 141.911 342.471C142.751 345.793 144.036 348.985 145.732 351.961C146.572 353.45 147.579 354.839 148.732 356.101C154.732 362.551 163.062 361.931 165.732 359.791C162.972 356.841 160.592 352.501 158.832 346.741C155.532 335.961 155.012 321.281 157.262 307.981H157.292Z" fill="black"/>
<path d="M171.041 290.871C167.231 289.121 156.921 291.411 149.651 299.181C142.381 306.951 139.481 321.281 139.881 329.041C140.201 335.461 141.531 344.871 145.731 351.961C139.851 350.651 133.531 343.081 131.541 334.481C130.757 331.118 130.311 327.684 130.211 324.231C130.07 320.734 130.455 317.235 131.351 313.851C133.041 308.031 138.091 292.021 151.891 288.351C164.891 284.891 170.411 290.191 171.001 290.821C171.021 290.841 171.041 290.851 171.041 290.871Z" fill="#BA68C8"/>
<path opacity="0.05" d="M146.991 302.401C139.991 307.741 135.421 324.141 137.131 337.821C137.131 337.821 132.911 336.121 130.521 328.521C130.74 330.539 131.074 332.542 131.521 334.521C133.521 343.121 139.831 350.691 145.711 352.001C141.511 344.911 140.181 335.501 139.861 329.081C139.531 322.311 141.611 309.741 146.991 302.401Z" fill="black"/>
<path d="M206.082 329.451C206.672 333.611 207.542 341.061 205.162 347.391C204.058 350.553 201.978 353.281 199.222 355.181C197.575 356.343 195.684 357.112 193.695 357.431C191.705 357.75 189.669 357.61 187.742 357.021C190.742 349.481 191.742 339.021 190.562 331.021C189.002 320.181 185.562 306.601 182.312 301.021C177.492 292.671 171.062 290.821 171.062 290.821C171.062 290.821 177.962 288.691 189.472 295.821C198.652 301.511 204.292 316.971 206.082 329.451Z" fill="#BA68C8"/>
<path opacity="0.25" d="M206.082 329.451C206.672 333.611 207.542 341.061 205.162 347.391C204.058 350.553 201.978 353.281 199.222 355.181C197.575 356.343 195.684 357.112 193.695 357.431C191.705 357.75 189.669 357.61 187.742 357.021C190.742 349.481 191.742 339.021 190.562 331.021C189.002 320.181 185.562 306.601 182.312 301.021C177.492 292.671 171.062 290.821 171.062 290.821C171.062 290.821 177.962 288.691 189.472 295.821C198.652 301.511 204.292 316.971 206.082 329.451Z" fill="white"/>
<path opacity="0.05" d="M194.511 350.201C196.141 326.871 185.991 305.201 181.401 299.601C181.711 300.071 182.011 300.601 182.311 301.081C185.551 306.641 189.001 320.221 190.561 331.081C191.701 339.001 190.741 349.501 187.741 357.081C189.669 357.67 191.705 357.81 193.695 357.491C195.684 357.172 197.575 356.403 199.221 355.241C201.978 353.341 204.058 350.613 205.161 347.451C207.011 342.541 206.901 336.971 206.481 332.771C202.951 349.271 194.511 350.201 194.511 350.201Z" fill="black"/>
<path d="M217.212 323.451C217.623 327.314 217.383 331.218 216.502 335.001C214.732 342.001 208.432 347.581 205.162 347.391C207.542 341.061 206.672 333.611 206.082 329.451C204.292 316.971 198.652 301.511 189.472 295.861C177.962 288.751 171.062 290.861 171.062 290.861C171.322 290.531 172.962 287.861 181.682 286.121C190.822 284.321 201.682 291.771 208.682 299.941C213.062 305.151 216.442 314.491 217.212 323.451Z" fill="#BA68C8"/>
<path opacity="0.05" d="M211.211 336.961C209.551 309.641 196.341 297.261 188.691 295.391C188.951 295.541 189.201 295.671 189.471 295.841C198.651 301.491 204.291 316.951 206.081 329.431C206.671 333.591 207.541 341.041 205.161 347.371C208.431 347.561 214.731 342.011 216.501 334.981C217.138 332.347 217.438 329.642 217.391 326.931C217.138 328.948 216.456 330.887 215.39 332.617C214.324 334.347 212.899 335.829 211.211 336.961Z" fill="black"/>
<path d="M217.212 323.451C216.442 314.451 213.062 305.151 208.652 299.941C201.732 291.771 190.832 284.321 181.652 286.121C172.932 287.831 171.291 290.531 171.031 290.861C171.251 290.311 172.181 285.861 179.611 281.431C187.042 277.001 198.852 277.341 209.432 290.021L209.772 290.451C217.372 299.921 219.642 316.061 217.212 323.451Z" fill="#BA68C8"/>
<path opacity="0.05" d="M217.212 323.451C216.442 314.451 213.062 305.151 208.652 299.941C201.732 291.771 190.832 284.321 181.652 286.121C172.932 287.831 171.291 290.531 171.031 290.861C171.251 290.311 172.181 285.861 179.611 281.431C187.042 277.001 198.852 277.341 209.432 290.021L209.772 290.451C217.372 299.921 219.642 316.061 217.212 323.451Z" fill="black"/>
<path d="M171.062 290.881C171.062 290.881 171.062 290.881 171.062 290.831C168.982 287.271 164.702 283.581 157.911 282.331C150.401 280.931 139.312 287.381 134.452 292.631C133.604 293.562 132.841 294.566 132.171 295.631C131.711 283.151 144.371 273.181 153.721 275.291C154.391 275.451 166.822 278.741 171.062 290.881Z" fill="#BA68C8"/>
<g opacity="0.1">
<path opacity="0.1" d="M171.062 290.881C171.062 290.881 171.062 290.881 171.062 290.831C168.982 287.271 164.702 283.581 157.911 282.331C150.401 280.931 139.312 287.381 134.452 292.631C133.604 293.562 132.841 294.566 132.171 295.631C131.711 283.151 144.371 273.181 153.721 275.291C154.391 275.451 166.822 278.741 171.062 290.881Z" fill="black"/>
</g>
<path d="M209.802 290.431L209.462 290.001C198.882 277.321 186.962 277.061 179.642 281.411C172.322 285.761 171.282 290.291 171.062 290.841C171.152 290.281 170.802 284.301 176.402 277.321C178.922 274.191 181.722 272.721 186.192 271.601C188.424 271.179 190.713 271.163 192.952 271.551C198.052 272.421 208.492 279.111 209.802 290.431Z" fill="#BA68C8"/>
<path opacity="0.1" d="M209.802 290.431L209.462 290.001C198.882 277.321 186.962 277.061 179.642 281.411C172.322 285.761 171.282 290.291 171.062 290.841C171.152 290.281 170.802 284.301 176.402 277.321C178.922 274.191 181.722 272.721 186.192 271.601C188.424 271.179 190.713 271.163 192.952 271.551C198.052 272.421 208.492 279.111 209.802 290.431Z" fill="black"/>
<path d="M186.192 271.601C183.942 272.161 179.342 273.691 176.812 276.831C173.494 280.792 171.486 285.683 171.062 290.831C170.582 286.471 163.652 278.191 153.661 275.211C154.071 270.921 162.592 267.211 168.662 266.311C176.532 265.181 184.912 267.741 186.192 271.601Z" fill="#BA68C8"/>
<path opacity="0.17" d="M186.192 271.601C183.942 272.161 179.342 273.691 176.812 276.831C173.494 280.792 171.486 285.683 171.062 290.831C170.582 286.471 163.652 278.191 153.661 275.211C154.071 270.921 162.592 267.211 168.662 266.311C176.532 265.181 184.912 267.741 186.192 271.601Z" fill="black"/>
<path d="M171.001 290.821C170.411 290.191 164.911 284.891 151.891 288.351C138.091 292.021 133.041 308.031 131.351 313.851C130.455 317.235 130.07 320.734 130.211 324.231C124.821 313.031 128.051 301.941 132.111 295.601C132.781 294.536 133.544 293.532 134.391 292.601C139.251 287.351 150.051 280.971 157.851 282.301C165.151 283.561 168.921 287.261 171.001 290.821Z" fill="#BA68C8"/>
<path opacity="0.05" d="M171.001 290.821C170.411 290.191 164.911 284.891 151.891 288.351C138.091 292.021 133.041 308.031 131.351 313.851C130.455 317.235 130.07 320.734 130.211 324.231C124.821 313.031 128.051 301.941 132.111 295.601C132.781 294.536 133.544 293.532 134.391 292.601C139.251 287.351 150.051 280.971 157.851 282.301C165.151 283.561 168.921 287.261 171.001 290.821Z" fill="black"/>
<path d="M165.742 293.121C167.464 292.264 169.381 291.871 171.302 291.981C172.967 292.072 174.558 292.696 175.842 293.761C175.842 293.761 176.132 289.841 180.742 289.601C180.742 289.601 176.102 287.361 179.312 284.941C178.957 285.185 178.549 285.34 178.122 285.393C177.695 285.447 177.262 285.398 176.857 285.25C176.453 285.103 176.09 284.861 175.799 284.544C175.507 284.228 175.296 283.846 175.182 283.431C174.381 281.431 174.103 279.259 174.372 277.121C174.544 276.349 174.809 275.6 175.162 274.891C175.388 274.632 175.56 274.328 175.665 274C175.77 273.671 175.806 273.325 175.772 272.981C175.628 272.574 175.387 272.207 175.072 271.911C174.562 271.216 173.821 270.726 172.982 270.531C172.332 270.461 171.702 270.751 171.052 270.731C170.18 270.545 169.331 270.264 168.522 269.891C168.088 269.786 167.637 269.773 167.198 269.852C166.759 269.931 166.341 270.101 165.971 270.351C165.241 270.841 165.241 271.351 164.971 272.131C164.411 273.801 164.431 278.131 164.581 279.911C164.921 283.961 165.362 285.911 161.702 287.241C161.702 287.241 165.021 288.851 161.031 290.811C161.041 290.811 165.302 290.201 165.742 293.121Z" fill="#37474F"/>
<path d="M175.601 274.121C175.792 273.774 175.852 273.37 175.771 272.981C175.63 272.572 175.39 272.205 175.071 271.911C174.566 271.213 173.823 270.722 172.981 270.531C172.341 270.461 171.701 270.751 171.051 270.731C170.183 270.547 169.337 270.265 168.531 269.891C168.096 269.786 167.644 269.772 167.203 269.851C166.762 269.931 166.343 270.101 165.971 270.351C165.615 270.583 165.358 270.94 165.251 271.351C165.205 271.577 165.223 271.812 165.305 272.028C165.386 272.244 165.527 272.432 165.711 272.571C166.151 272.871 166.781 272.871 167.161 273.251C167.541 273.631 167.521 274.391 167.771 274.941C167.914 275.235 168.142 275.478 168.426 275.639C168.71 275.8 169.036 275.87 169.361 275.841C169.828 275.728 170.281 275.563 170.711 275.351C172.121 274.861 173.841 275.451 175.091 274.641C175.288 274.496 175.46 274.32 175.601 274.121Z" fill="#455A64"/>
<path d="M176.812 291.411C174.502 289.311 172.502 284.531 172.102 281.821C172.078 283.994 172.378 286.157 172.992 288.241C173.992 291.241 174.862 291.891 175.832 293.761C175.984 292.916 176.318 292.114 176.812 291.411Z" fill="#263238"/>
<path d="M168.631 287.791C168.679 285.813 168.541 283.834 168.221 281.881C168.221 281.881 168.711 287.131 167.221 289.241C166.524 290.108 165.69 290.854 164.751 291.451C165.025 291.645 165.255 291.893 165.428 292.181C165.6 292.469 165.71 292.789 165.751 293.121C166.634 292.54 167.36 291.749 167.862 290.819C168.365 289.889 168.629 288.849 168.631 287.791Z" fill="#263238"/>
<path opacity="0.05" d="M148.741 356.101C147.589 354.839 146.582 353.45 145.741 351.961C139.861 350.651 133.541 343.081 131.551 334.481C131.378 333.735 131.228 332.995 131.101 332.261C131.101 332.011 131.001 331.761 130.961 331.521C130.871 330.961 130.781 330.421 130.711 329.871C130.711 329.691 130.711 329.511 130.641 329.331C134.361 328.141 138.031 329.991 140.021 331.761C140.021 331.761 144.501 327.171 154.371 328.991C164.241 330.811 167.221 337.251 167.221 337.251C167.221 337.251 173.911 336.551 179.292 346.171C183.141 353.061 181.361 358.041 181.361 358.041C182.197 359.422 182.869 360.895 183.361 362.431C181.493 363.821 179.257 364.628 176.931 364.751C172.991 364.971 169.132 363.381 165.812 359.751C163.111 361.931 154.791 362.551 148.741 356.101Z" fill="black"/>
<path d="M125.581 379.141C125.451 385.021 125.771 392.142 129.401 397.502C130.63 399.005 132.166 400.227 133.907 401.086C135.648 401.945 137.553 402.42 139.493 402.48C141.433 402.539 143.364 402.182 145.154 401.432C146.944 400.682 148.553 399.556 149.871 398.132C152.339 395.289 153.997 391.835 154.671 388.132C156.671 379.052 155.851 365.821 148.571 357.231C143.801 351.601 138.571 352.001 138.571 352.001C138.571 352.001 133.841 353.241 130.391 359.681C127.336 365.721 125.691 372.374 125.581 379.141Z" fill="#BA68C8"/>
<path opacity="0.5" d="M125.581 379.141C125.451 385.021 125.771 392.142 129.401 397.502C130.63 399.005 132.166 400.227 133.907 401.086C135.648 401.945 137.553 402.42 139.493 402.48C141.433 402.539 143.364 402.182 145.154 401.432C146.944 400.682 148.553 399.556 149.871 398.132C152.339 395.289 153.997 391.835 154.671 388.132C156.671 379.052 155.851 365.821 148.571 357.231C143.801 351.601 138.571 352.001 138.571 352.001C138.571 352.001 133.841 353.241 130.391 359.681C127.336 365.721 125.691 372.374 125.581 379.141Z" fill="white"/>
<path opacity="0.05" d="M141.861 397.931C149.961 395.821 154.571 388.541 155.461 382.631C155.322 384.471 155.059 386.298 154.671 388.101C153.997 391.805 152.339 395.259 149.871 398.101C148.553 399.526 146.944 400.652 145.154 401.402C143.364 402.152 141.433 402.509 139.493 402.45C137.553 402.39 135.648 401.915 133.907 401.056C132.166 400.197 130.63 398.975 129.401 397.471C127.959 395.284 126.941 392.845 126.401 390.281C127.021 393.271 133.821 400.021 141.861 397.931Z" fill="black"/>
<path d="M138.541 351.981C138.541 351.981 143.801 351.581 148.541 357.211C155.821 365.801 156.611 379.031 154.641 388.111C153.967 391.815 152.309 395.269 149.841 398.111C152.511 399.521 160.211 399.442 164.961 394.312C165.871 393.339 166.651 392.254 167.281 391.081C170.281 385.611 170.421 378.621 169.971 373.891C169.431 368.171 165.351 360.581 157.761 355.351C150.171 350.121 141.821 350.421 138.531 351.951L138.541 351.981Z" fill="#BA68C8"/>
<path opacity="0.25" d="M138.541 351.981C138.541 351.981 143.801 351.581 148.541 357.211C155.821 365.801 156.611 379.031 154.641 388.111C153.967 391.815 152.309 395.269 149.841 398.111C152.511 399.521 160.211 399.442 164.961 394.312C165.871 393.339 166.651 392.254 167.281 391.081C170.281 385.611 170.421 378.621 169.971 373.891C169.431 368.171 165.351 360.581 157.761 355.351C150.171 350.121 141.821 350.421 138.531 351.951L138.541 351.981Z" fill="white"/>
<path opacity="0.05" d="M150.651 360.061C155.711 366.301 162.541 377.581 156.511 393.911C156.511 393.911 158.081 394.991 162.511 392.861C164.287 391.962 165.85 390.693 167.097 389.141C168.344 387.589 169.245 385.789 169.741 383.861C169.354 386.382 168.546 388.819 167.351 391.071C166.721 392.244 165.941 393.329 165.031 394.301C160.281 399.431 152.581 399.511 149.911 398.101C152.379 395.259 154.037 391.805 154.711 388.101C156.481 379.981 156.011 368.541 150.711 360.101L150.651 360.061Z" fill="black"/>
<path d="M138.561 351.971C141.851 350.441 150.231 350.131 157.791 355.371C165.351 360.611 169.461 368.191 170.001 373.911C170.451 378.641 170.331 385.631 167.311 391.101C172.541 389.771 177.451 383.801 178.311 377.361C178.631 374.838 178.631 372.285 178.311 369.761C178.018 367.131 177.256 364.574 176.061 362.211C173.831 358.051 168.901 350.711 155.831 348.891C143.491 347.191 139.071 351.431 138.601 351.891C138.571 351.941 138.561 351.951 138.561 351.971Z" fill="#BA68C8"/>
<path opacity="0.05" d="M160.611 357.561C167.681 361.031 173.511 370.031 173.541 380.181C173.541 380.181 177.211 378.661 178.541 372.931C178.574 374.415 178.494 375.9 178.301 377.371C177.481 383.811 172.571 389.781 167.301 391.111C170.301 385.641 170.441 378.651 169.991 373.921C169.531 368.941 166.391 362.581 160.611 357.561Z" fill="black"/>
<path d="M109.381 378.451C109.321 381.541 109.381 387.061 112.311 391.551C113.838 393.936 116.052 395.801 118.661 396.901C122.044 398.422 125.87 398.636 129.401 397.501C125.771 392.161 125.401 385.021 125.581 379.141C125.679 372.37 127.314 365.709 130.361 359.661C133.811 353.221 138.541 351.981 138.541 351.981C138.541 351.981 130.841 349.061 121.121 354.981C113.361 359.741 109.571 369.181 109.381 378.451Z" fill="#BA68C8"/>
<path opacity="0.25" d="M109.381 378.451C109.321 381.541 109.381 387.061 112.311 391.551C113.838 393.936 116.052 395.801 118.661 396.901C122.044 398.422 125.87 398.636 129.401 397.501C125.771 392.161 125.401 385.021 125.581 379.141C125.679 372.37 127.314 365.709 130.361 359.661C133.811 353.221 138.541 351.981 138.541 351.981C138.541 351.981 130.841 349.061 121.121 354.981C113.361 359.741 109.571 369.181 109.381 378.451Z" fill="white"/>
<path opacity="0.05" d="M122.401 392.931C118.191 375.931 127.471 362.931 131.021 358.511C130.791 358.881 130.571 359.261 130.361 359.661C127.314 365.709 125.679 372.37 125.581 379.141C125.451 385.021 125.771 392.142 129.401 397.502C125.87 398.636 122.044 398.422 118.661 396.901C116.052 395.801 113.838 393.936 112.311 391.551C110.392 388.321 109.386 384.629 109.401 380.871C114.561 392.791 122.401 392.931 122.401 392.931Z" fill="black"/>
<path d="M98.4815 374.741C98.5725 377.658 99.2528 380.525 100.481 383.171C102.921 388.221 109.341 391.891 112.311 391.531C109.391 387.041 109.311 381.531 109.381 378.431C109.571 369.161 113.381 359.731 121.121 354.991C130.841 349.041 138.541 351.991 138.541 351.991C138.271 351.761 133.661 348.061 125.461 347.361C116.891 346.621 108.991 350.551 103.591 356.991C100.151 361.061 98.1415 368.141 98.4815 374.741Z" fill="#BA68C8"/>
<path opacity="0.05" d="M105.561 384.291C103.901 364.131 114.981 356.491 121.781 354.621L121.121 354.991C113.361 359.731 109.571 369.161 109.381 378.431C109.321 381.521 109.381 387.041 112.311 391.531C109.311 391.891 102.921 388.221 100.481 383.171C99.6087 381.328 99.022 379.362 98.7415 377.341C99.3433 378.904 100.259 380.327 101.432 381.523C102.605 382.718 104.01 383.66 105.561 384.291Z" fill="black"/>
<path d="M98.4814 374.741C98.1414 368.121 100.151 361.041 103.581 356.941C108.981 350.501 116.881 346.571 125.451 347.311C133.651 348.011 138.261 351.711 138.531 351.941C135.752 348.121 131.899 345.214 127.461 343.591C120.241 340.881 109.911 339.741 101.741 349.741C101.647 349.845 101.56 349.955 101.481 350.071C95.5914 357.501 95.3914 369.491 98.4814 374.741Z" fill="#BA68C8"/>
<path opacity="0.05" d="M98.4814 374.741C98.1414 368.121 100.151 361.041 103.581 356.941C108.981 350.501 116.881 346.571 125.451 347.311C133.651 348.011 138.261 351.711 138.531 351.941C135.752 348.121 131.899 345.214 127.461 343.591C120.241 340.881 109.911 339.741 101.741 349.741C101.647 349.845 101.56 349.955 101.481 350.071C95.5914 357.501 95.3914 369.491 98.4814 374.741Z" fill="black"/>
<path d="M138.591 351.931C139.061 351.431 143.481 347.191 155.821 348.931C168.891 350.751 173.821 358.091 176.051 362.251C177.246 364.614 178.008 367.171 178.301 369.801C181.941 361.241 177.691 353.301 173.231 348.911C172.472 348.178 171.653 347.509 170.781 346.911C167.876 345 164.598 343.726 161.165 343.174C157.731 342.623 154.219 342.806 150.861 343.711C144.991 345.411 140.091 349.181 138.591 351.931Z" fill="#BA68C8"/>
<path opacity="0.05" d="M138.591 351.931C139.061 351.431 143.481 347.191 155.821 348.931C168.891 350.751 173.821 358.091 176.051 362.251C177.246 364.614 178.008 367.171 178.301 369.801C181.941 361.241 177.691 353.301 173.231 348.911C172.472 348.178 171.653 347.509 170.781 346.911C167.876 345 164.598 343.726 161.165 343.174C157.731 342.623 154.219 342.806 150.861 343.711C144.991 345.411 140.091 349.181 138.591 351.931Z" fill="black"/>
<path d="M138.541 351.981C140.041 349.231 144.941 345.461 150.811 343.681C154.169 342.776 157.681 342.593 161.115 343.144C164.548 343.696 167.826 344.97 170.731 346.881C171.603 347.479 172.422 348.148 173.181 348.881C172.181 339.691 158.661 332.601 151.181 335.581L150.831 335.721C143.401 339.051 138.471 348.741 138.541 351.981Z" fill="#BA68C8"/>
<path opacity="0.1" d="M138.541 351.981C140.041 349.231 144.941 345.461 150.811 343.681C154.169 342.776 157.681 342.593 161.115 343.144C164.548 343.696 167.826 344.97 170.731 346.881C171.603 347.479 172.422 348.148 173.181 348.881C172.181 339.691 158.661 332.601 151.181 335.581L150.831 335.721C143.401 339.051 138.471 348.741 138.541 351.981Z" fill="black"/>
<path d="M101.431 350.051C101.527 349.94 101.63 349.837 101.741 349.741C109.961 339.741 120.291 340.901 127.511 343.621C131.949 345.244 135.802 348.151 138.581 351.971C136.756 347.292 133.786 343.145 129.941 339.911C127.314 337.609 124.254 335.851 120.941 334.741C118.866 334.575 116.778 334.71 114.741 335.141C110.101 336.081 101.311 341.661 101.431 350.051Z" fill="#BA68C8"/>
<path opacity="0.1" d="M101.431 350.051C101.527 349.94 101.63 349.837 101.741 349.741C109.961 339.741 120.291 340.901 127.511 343.621C131.949 345.244 135.802 348.151 138.581 351.971C136.756 347.292 133.786 343.145 129.941 339.911C127.314 337.609 124.254 335.851 120.941 334.741C118.866 334.575 116.778 334.71 114.741 335.141C110.101 336.081 101.311 341.661 101.431 350.051Z" fill="black"/>
<path d="M120.871 334.741C124.184 335.851 127.244 337.609 129.871 339.911C133.716 343.145 136.687 347.292 138.511 351.971C138.441 348.741 143.371 339.041 150.811 335.701L151.161 335.561C150.291 332.451 141.961 330.021 136.311 329.741C128.971 329.391 121.601 331.821 120.871 334.741Z" fill="#BA68C8"/>
<path opacity="0.17" d="M120.871 334.741C124.184 335.851 127.244 337.609 129.871 339.911C133.716 343.145 136.687 347.292 138.511 351.971C138.441 348.741 143.371 339.041 150.811 335.701L151.161 335.561C150.291 332.451 141.961 330.021 136.311 329.741C128.971 329.391 121.601 331.821 120.871 334.741Z" fill="black"/>
<path d="M144.131 353.501C142.485 352.769 140.692 352.427 138.891 352.501C137.11 352.94 135.436 353.736 133.971 354.841C133.971 354.841 133.661 351.841 129.051 351.751C129.051 351.751 130.781 349.601 129.721 347.991C130.735 347.9 131.702 347.524 132.511 346.907C133.319 346.289 133.937 345.455 134.291 344.501C134.758 343.098 134.796 341.587 134.401 340.161C134.297 339.607 134.093 339.075 133.801 338.591C133.568 338.338 133.389 338.04 133.276 337.715C133.162 337.39 133.116 337.045 133.141 336.701C133.266 336.288 133.493 335.914 133.801 335.611C134.277 334.909 134.985 334.395 135.801 334.161C136.451 334.081 137.091 334.341 137.741 334.301C138.604 334.09 139.439 333.782 140.231 333.381C140.662 333.258 141.114 333.229 141.557 333.294C142.001 333.36 142.425 333.519 142.801 333.761C143.541 334.221 143.561 334.761 143.801 335.501C144.438 337.134 144.734 338.88 144.671 340.631C144.461 344.692 144.101 347.322 147.801 348.632C147.801 348.632 146.191 349.632 148.301 351.442C148.381 351.401 144.461 350.561 144.131 353.501Z" fill="#37474F"/>
<path d="M133.341 337.851C133.141 337.507 133.07 337.103 133.141 336.711C133.266 336.299 133.493 335.924 133.801 335.621C134.277 334.919 134.985 334.405 135.801 334.171C136.451 334.091 137.091 334.351 137.741 334.311C138.604 334.1 139.439 333.792 140.231 333.391C140.662 333.268 141.114 333.239 141.557 333.304C142.001 333.37 142.425 333.529 142.801 333.771C143.157 333.981 143.427 334.311 143.561 334.701C143.613 334.927 143.601 335.162 143.527 335.381C143.453 335.6 143.319 335.794 143.141 335.942C142.701 336.252 142.081 336.272 141.711 336.662C141.341 337.052 141.381 337.811 141.151 338.371C141.019 338.67 140.799 338.921 140.52 339.091C140.241 339.261 139.917 339.341 139.591 339.321C139.123 339.225 138.667 339.077 138.231 338.882C136.801 338.432 135.111 339.082 133.831 338.312C133.643 338.187 133.478 338.031 133.341 337.851Z" fill="#455A64"/>
<path d="M132.661 352.801C134.901 350.621 137.001 345.511 137.301 342.801C137.401 344.973 137.175 347.147 136.631 349.251C135.741 352.251 134.881 352.961 133.971 354.861C133.822 354.029 133.352 353.29 132.661 352.801Z" fill="#263238"/>
<path d="M140.971 348.651C140.859 346.676 140.93 344.694 141.181 342.731C141.181 342.731 140.861 348.001 142.481 350.051C143.131 350.85 143.916 351.527 144.801 352.051C144.412 352.431 144.174 352.939 144.131 353.481C143.224 353.028 142.454 352.342 141.899 351.493C141.344 350.645 141.024 349.664 140.971 348.651Z" fill="#263238"/>
<path d="M264.192 96.8314C251.742 103.441 237.192 100.511 231.802 90.2714C230.09 86.8487 229.395 83.0067 229.802 79.2014C230.112 75.0314 228.592 71.7014 226.512 68.2014C224.432 64.7014 222.102 60.3014 223.332 56.2014C223.686 55.482 223.778 54.6614 223.592 53.8814C223.202 52.9814 222.022 52.7614 221.042 52.8114C220.076 53.0071 219.074 52.9132 218.162 52.5414C216.452 51.5414 217.082 48.6314 215.612 47.2914C214.342 46.1414 212.322 46.7514 210.862 47.6514C209.966 48.1729 209.198 48.8868 208.612 49.7414C208.314 50.1753 208.126 50.6747 208.063 51.1972C208 51.7196 208.065 52.2494 208.252 52.7414C208.465 53.1957 208.831 53.5601 209.287 53.7705C209.742 53.9809 210.258 54.0237 210.742 53.8914C210.977 53.7996 211.188 53.6535 211.357 53.465C211.526 53.2764 211.648 53.0508 211.713 52.8063C211.778 52.5618 211.785 52.3054 211.733 52.0578C211.68 51.8102 211.57 51.5785 211.412 51.3814L210.342 51.2114C211.522 50.0814 213.742 50.8014 214.342 52.3214C214.581 53.1017 214.577 53.9367 214.328 54.7142C214.08 55.4918 213.599 56.1748 212.952 56.6714C210.702 58.4814 207.132 58.0214 205.052 56.0314C204.055 54.9811 203.33 53.7034 202.94 52.3091C202.549 50.9149 202.505 49.4465 202.812 48.0314C203.443 45.2043 204.825 42.5997 206.812 40.4914C208.858 37.9517 211.66 36.1302 214.812 35.2914C217.642 34.6914 220.572 35.2914 223.372 36.0214C228.411 37.3327 233.329 39.0724 238.072 41.2214C243.728 43.9128 249.242 46.8934 254.592 50.1514L267.922 57.9614C271.552 60.0814 274.792 62.5014 276.812 66.3014C282.342 76.5514 276.652 90.2114 264.192 96.8314Z" fill="#37474F"/>
<path d="M276.902 66.3114C274.902 62.5114 271.642 60.0914 268.012 57.9714L262.212 54.5714C255.638 56.2143 249.341 58.812 243.522 62.2814C238.245 65.379 233.397 69.1545 229.102 73.5114C229.724 75.3399 229.973 77.275 229.832 79.2014C229.425 83.0068 230.12 86.8488 231.832 90.2714C237.262 100.511 251.772 103.441 264.222 96.8314C276.672 90.2214 282.342 76.5514 276.902 66.3114Z" fill="#BA68C8"/>
<path opacity="0.3" d="M276.902 66.3114C274.902 62.5114 271.642 60.0914 268.012 57.9714L262.212 54.5714C255.638 56.2143 249.341 58.812 243.522 62.2814C238.245 65.379 233.397 69.1545 229.102 73.5114C229.724 75.3399 229.973 77.275 229.832 79.2014C229.425 83.0068 230.12 86.8488 231.832 90.2714C237.262 100.511 251.772 103.441 264.222 96.8314C276.672 90.2214 282.342 76.5514 276.902 66.3114Z" fill="black"/>
<path d="M273.893 114.012C295.413 101.296 306.508 80.2403 298.674 66.9842C290.841 53.728 267.045 53.2906 245.525 66.0073C224.006 78.724 212.91 99.7792 220.744 113.035C228.577 126.292 252.373 126.729 273.893 114.012Z" fill="#455A64"/>
<path d="M307.972 120.601C307.873 119.062 307.276 117.596 306.271 116.425C305.267 115.255 303.908 114.442 302.402 114.111C303.633 112.694 304.312 110.879 304.312 109.001C304.312 107.123 303.633 105.309 302.402 103.891C300.022 101.301 296.192 100.701 293.232 98.7814C291.548 97.6847 290.171 96.1774 289.232 94.4014C288.712 93.39 288.354 92.3035 288.172 91.1813C292.012 85.9913 291.102 76.8013 286.692 71.9213C285.179 70.1866 283.326 68.7805 281.248 67.7898C279.171 66.7991 276.912 66.2449 274.612 66.1613C270.667 63.9257 266.212 62.7465 261.678 62.738C257.144 62.7295 252.685 63.8919 248.732 66.1128C244.779 68.3336 241.466 71.5376 239.115 75.4145C236.764 79.2913 235.454 83.7095 235.312 88.2413L234.982 98.4413C234.797 105.837 236.284 113.18 239.332 119.921C241.242 123.811 243.162 127.611 246.122 130.781C249.082 133.951 251.902 135.831 256.122 138.451C263.832 143.241 272.122 146.771 281.202 146.381C283.067 146.373 284.913 145.996 286.632 145.271C287.492 144.904 288.265 144.357 288.898 143.667C289.53 142.977 290.009 142.16 290.302 141.271C293.762 141.901 297.532 142.501 300.652 140.871C301.787 140.332 302.773 139.524 303.524 138.516C304.275 137.509 304.769 136.333 304.962 135.091C305.082 134.301 305.502 129.451 302.902 127.471C306.032 127.091 308.092 123.671 307.972 120.601Z" fill="#263238"/>
<path d="M215.642 366.591C215.642 366.591 212.582 335.591 215.312 317.591C217.642 302.171 220.222 295.791 220.712 292.281C220.712 292.281 225.022 256.041 225.712 225.201C226.062 210.571 226.822 202.941 238.022 186.201L242.242 181.331C242.902 187.021 248.342 186.861 256.072 188.081C263.512 189.261 272.888 188.218 284.202 184.951C285.992 199.681 287.512 227.641 288.972 258.121C289.682 273.021 288.852 285.481 288.652 295.031C288.382 307.981 284.832 358.611 284.832 358.611L284.752 360.751C284.752 363.121 285.212 364.751 286.692 368.611C288.539 373.538 291.218 378.111 294.612 382.131C295.672 383.301 303.042 389.931 304.012 391.341C307.162 395.121 300.492 397.131 295.572 396.411C290.382 395.641 282.322 393.561 280.082 390.411C278.582 388.281 277.532 380.871 275.992 378.711C270.802 371.421 268.672 368.291 268.662 365.981C268.662 361.821 270.102 360.191 270.662 357.841C270.302 352.921 261.562 326.841 261.572 312.541C261.572 305.721 263.652 293.711 263.652 293.711L257.242 243.641C254.652 257.521 249.502 288.801 247.692 298.751C245.212 312.461 237.322 335.471 232.162 353.591C230.222 360.391 229.282 363.431 228.682 367.901C228.682 367.901 228.502 369.491 228.502 369.511C228.362 371.511 227.182 393.241 226.312 397.811C224.502 407.351 216.022 406.031 214.762 398.281C213.692 391.681 215.422 371.281 215.482 368.811L215.642 366.591Z" fill="#FFA8A7"/>
<path d="M215.372 366.451C212.972 366.451 214.422 375.771 213.722 381.731C212.972 388.131 210.802 392.781 210.132 398.021C209.362 404.021 209.872 406.531 211.952 411.491C213.572 415.351 221.952 420.721 225.172 415.271C228.392 409.821 229.172 403.581 228.932 397.601C228.632 391.421 228.322 386.901 228.262 382.201C228.202 378.061 231.522 368.391 228.422 367.751L228.252 369.361C227.102 371.571 216.432 372.971 215.252 368.671L215.372 366.451Z" fill="#37474F"/>
<path d="M267.851 370.871C267.081 373.871 267.731 382.061 267.731 382.061C267.731 382.061 268.981 384.911 273.571 386.861L275.801 375.471L267.851 370.871Z" fill="#263238"/>
<path d="M273.572 386.861L283.802 383.651L286.372 374.651L274.862 380.291L273.572 386.861Z" fill="black"/>
<path d="M284.512 360.651L284.602 358.511C285.972 359.201 288.862 370.381 292.872 378.071C296.532 385.071 303.922 389.071 306.302 392.151C309.482 396.251 303.122 401.391 293.062 399.101C288.062 397.961 280.542 394.661 278.532 391.251C276.522 387.841 275.912 381.631 274.262 379.131C272.612 376.631 268.662 373.711 267.852 370.871C267.225 368.3 267.27 365.611 267.982 363.061C268.802 360.501 269.532 357.401 270.412 357.691V359.691C271.072 361.071 273.482 362.691 278.572 363.051C281.022 363.181 283.382 362.841 284.512 360.651Z" fill="#37474F"/>
<path d="M366.202 184.741C362.917 184.065 359.695 183.112 356.572 181.891C356.572 181.891 362.782 180.621 363.242 178.001C363.812 174.781 359.832 177.861 354.242 177.071C349.332 176.371 345.112 177.271 342.572 176.531L304.452 162.861C304.452 162.861 291.212 133.231 287.372 128.951C283.532 124.671 281.252 123.631 275.022 123.461L277.172 147.741C277.172 147.741 287.552 167.361 290.462 172.131C293.372 176.901 294.032 178.081 300.992 180.351C310.162 183.351 334.462 187.751 341.482 190.801C350.582 194.801 360.882 198.701 366.392 195.691C368.443 194.425 370.032 192.532 370.922 190.291C371.962 187.991 369.482 185.391 366.202 184.741Z" fill="#FFA8A7"/>
<path d="M275.582 123.441C279.392 123.441 283.312 123.951 286.262 127.141C289.212 130.331 294.262 140.021 298.492 148.991C302.722 157.961 304.612 162.421 304.612 162.421L332.022 172.741C332.022 172.741 328.232 179.871 328.902 187.301C328.902 187.301 301.152 181.151 297.432 180.301C293.712 179.451 293.532 178.001 290.312 172.591C287.092 167.181 275.022 144.861 275.022 144.861L275.582 123.441Z" fill="#37474F"/>
<path d="M283.242 181.371C283.962 177.471 284.352 174.881 284.992 172.301C285.422 170.591 286.232 168.301 286.392 167.701C297.812 159.551 294.082 146.411 289.532 140.471C282.532 131.311 280.222 128.141 275.532 123.471L250.092 122.381C248.092 122.551 236.722 124.381 236.722 124.381C233.882 125.631 230.722 132.381 231.512 137.751C232.292 143.341 232.122 149.101 234.332 155.751C236.542 162.401 238.682 167.751 240.332 173.681L242.282 181.411" fill="#455A64"/>
<path d="M271.022 163.741C271.022 163.741 264.112 169.851 255.622 167.441C252.373 166.58 249.511 164.645 247.502 161.951C247.407 161.856 247.283 161.794 247.15 161.777C247.016 161.76 246.881 161.789 246.766 161.858C246.65 161.927 246.562 162.033 246.514 162.159C246.466 162.285 246.462 162.423 246.502 162.551C247.702 165.351 250.292 168.611 255.892 169.961C266.162 172.461 271.022 163.741 271.022 163.741Z" fill="#37474F"/>
<path d="M300.032 261.941C299.782 260.021 296.832 261.331 295.742 259.741L199.202 241.331C198.472 241.415 197.804 241.777 197.336 242.342C196.868 242.907 196.637 243.632 196.691 244.363C196.746 245.095 197.081 245.777 197.627 246.267C198.174 246.757 198.888 247.017 199.622 246.991C199.342 247.463 199.216 248.011 199.261 248.557C199.307 249.104 199.522 249.623 199.876 250.042C200.23 250.461 200.706 250.759 201.237 250.895C201.769 251.032 202.33 250.999 202.842 250.801C202.855 251.359 202.982 251.908 203.214 252.415C203.446 252.922 203.779 253.376 204.193 253.751C204.606 254.125 205.091 254.411 205.619 254.592C206.147 254.772 206.705 254.844 207.262 254.801C207.267 255.866 207.688 256.887 208.435 257.646C209.182 258.404 210.197 258.841 211.262 258.861C211.325 259.389 211.494 259.9 211.758 260.362C212.021 260.824 212.374 261.229 212.796 261.553C213.218 261.877 213.7 262.113 214.214 262.249C214.729 262.384 215.265 262.416 215.792 262.341C216.289 263.328 217.104 264.118 218.105 264.586C219.106 265.054 220.235 265.172 221.312 264.921C221.467 265.519 221.755 266.073 222.155 266.544C222.554 267.014 223.055 267.388 223.619 267.638C224.183 267.888 224.797 268.007 225.414 267.987C226.03 267.967 226.635 267.808 227.182 267.521C227.415 268.123 227.769 268.67 228.221 269.13C228.673 269.59 229.214 269.953 229.811 270.198C230.408 270.442 231.048 270.562 231.693 270.551C232.338 270.539 232.974 270.397 233.562 270.131C233.816 270.739 234.204 271.282 234.695 271.721C235.187 272.16 235.771 272.483 236.403 272.667C237.036 272.851 237.702 272.891 238.352 272.785C239.002 272.678 239.621 272.428 240.162 272.051C240.498 272.602 240.94 273.08 241.464 273.458C241.988 273.835 242.581 274.104 243.21 274.248C243.839 274.392 244.49 274.41 245.126 274.299C245.762 274.188 246.369 273.95 246.912 273.601C247.904 274.727 249.271 275.455 250.759 275.648C252.247 275.841 253.755 275.487 255.002 274.651C256.402 277.811 261.742 277.841 264.112 275.231C264.922 276.541 267.472 277.401 268.992 277.131C269.749 276.975 270.444 276.603 270.995 276.06C271.545 275.517 271.926 274.826 272.092 274.071C272.557 274.68 273.153 275.177 273.835 275.527C274.517 275.877 275.268 276.07 276.034 276.093C276.801 276.116 277.562 275.968 278.264 275.66C278.966 275.352 279.59 274.891 280.092 274.311C281.922 276.311 285.552 274.381 286.632 271.961C286.828 272.29 287.087 272.577 287.395 272.805C287.703 273.034 288.052 273.199 288.424 273.292C288.796 273.385 289.182 273.404 289.561 273.347C289.94 273.29 290.303 273.159 290.632 272.961C290.931 272.725 291.169 272.42 291.324 272.071C291.479 271.723 291.547 271.342 291.522 270.961C292.022 271.751 293.932 271.861 294.782 271.461C295.311 271.165 295.728 270.703 295.968 270.147C296.209 269.59 296.259 268.97 296.112 268.381C297.652 269.381 299.792 268.171 300.252 267.291C301.112 265.661 300.202 263.291 300.032 261.941Z" fill="#BA68C8"/>
<path d="M242.282 181.371C242.282 181.371 229.662 188.281 219.282 205.421C208.902 222.561 196.772 238.421 196.772 238.421C197.746 241.321 199.468 243.913 201.765 245.934C204.062 247.955 206.851 249.334 209.852 249.931C209.852 256.781 218.712 263.731 227.642 262.261C230.642 268.951 239.752 272.261 247.642 269.261C253.132 274.371 262.642 275.161 267.642 270.181C271.862 273.791 281.642 273.331 284.512 268.421C290.512 270.921 300.512 265.991 300.672 260.021C300.672 260.021 297.152 205.631 283.312 181.291C258.742 179.671 242.282 181.371 242.282 181.371Z" fill="#455A64"/>
<path d="M218.422 223.581C213.222 233.971 208.602 242.581 204.812 248.121C206.382 248.975 208.065 249.601 209.812 249.981C209.812 249.981 222.662 214.191 231.452 204.661C231.442 204.661 226.292 207.861 218.422 223.581Z" fill="#37474F"/>
<path d="M223.292 262.381C224.721 262.563 226.169 262.539 227.592 262.311C229.812 248.851 238.502 209.481 247.082 195.631C247.082 195.631 233.622 207.171 223.292 262.381Z" fill="#37474F"/>
<path d="M247.562 269.341C248.887 270.557 250.413 271.535 252.072 272.231C257.152 225.421 256.012 220.941 257.622 205.711C254.922 215.951 249.972 257.251 247.562 269.341Z" fill="#37474F"/>
<path d="M270.742 271.931C273.652 226.931 269.112 197.141 269.112 197.141C270.552 218.141 269.242 256.861 267.602 270.261C268.531 271.014 269.598 271.581 270.742 271.931Z" fill="#37474F"/>
<path d="M287.062 269.041C287.512 246.811 282.712 222.241 282.712 222.241C285.382 240.111 284.442 268.501 284.442 268.501C285.277 268.833 286.163 269.016 287.062 269.041Z" fill="#37474F"/>
<path d="M284.552 174.241C279.782 177.621 251.442 179.951 240.332 173.641L242.282 181.371C242.282 181.371 248.772 185.571 265.162 185.201C281.552 184.831 283.242 181.371 283.242 181.371L284.552 174.241Z" fill="#BA68C8"/>
<path d="M248.182 120.931C248.182 120.931 242.852 125.041 244.662 128.111C246.472 131.181 253.132 135.111 258.952 134.631C266.332 133.981 265.602 128.561 265.602 128.561C265.602 128.561 270.182 132.871 272.952 131.661C275.722 130.451 274.612 126.871 271.952 124.581C270.388 123.227 268.512 122.285 266.492 121.841C266.492 121.841 266.782 126.161 265.182 127.841C265.182 127.841 254.752 126.841 248.292 122.601L248.182 120.931Z" fill="#BA68C8"/>
<path d="M273.742 71.7415C276.862 73.2815 281.132 80.5215 281.982 96.3115C282.692 109.691 278.622 113.311 276.522 114.441C274.422 115.571 270.182 115.301 266.052 114.941L266.582 124.181C266.582 124.181 270.432 126.711 267.002 128.181C265.132 128.971 260.122 129.131 255.332 127.891C249.762 126.451 248.332 124.101 248.332 124.101L247.332 104.871C247.332 104.871 244.962 107.481 241.142 105.141C237.052 102.631 236.532 97.6215 238.942 94.7615C241.352 91.9015 246.452 92.9115 247.782 96.5015C247.782 96.5015 253.542 95.7015 261.502 89.7915C270.112 83.3315 271.862 77.4915 273.742 71.7415Z" fill="#FFA8A7"/>
<path d="M264.391 93.9215C264.418 94.2493 264.348 94.5777 264.19 94.866C264.031 95.1543 263.792 95.3898 263.501 95.5433C263.21 95.6968 262.881 95.7616 262.554 95.7296C262.226 95.6976 261.916 95.5703 261.66 95.3634C261.404 95.1564 261.215 94.879 261.116 94.5656C261.016 94.2521 261.011 93.9163 261.101 93.5999C261.19 93.2834 261.371 93.0003 261.62 92.7855C261.869 92.5707 262.175 92.4337 262.501 92.3915C262.955 92.3439 263.409 92.4783 263.763 92.7652C264.118 93.0521 264.344 93.468 264.391 93.9215Z" fill="#263238"/>
<path d="M265.122 103.101L271.602 104.881C271.502 105.314 271.317 105.722 271.057 106.081C270.797 106.441 270.467 106.744 270.088 106.974C269.708 107.203 269.286 107.354 268.847 107.417C268.408 107.48 267.96 107.455 267.532 107.341C266.66 107.083 265.922 106.497 265.473 105.706C265.024 104.916 264.898 103.983 265.122 103.101Z" fill="#B16668"/>
<path d="M267.531 107.341C268.062 107.481 268.621 107.481 269.151 107.341C269.142 106.875 269.015 106.418 268.782 106.013C268.549 105.609 268.218 105.269 267.82 105.026C267.421 104.783 266.968 104.644 266.502 104.622C266.035 104.6 265.571 104.696 265.151 104.901C265.303 105.479 265.602 106.008 266.019 106.436C266.436 106.864 266.957 107.176 267.531 107.341Z" fill="#F28F8F"/>
<path d="M278.741 87.9615L275.161 85.8615C275.288 85.6227 275.461 85.412 275.671 85.2421C275.881 85.0722 276.123 84.9465 276.383 84.8727C276.643 84.7989 276.915 84.7784 277.182 84.8126C277.45 84.8467 277.709 84.9348 277.941 85.0715C278.419 85.3594 278.768 85.8195 278.917 86.3571C279.066 86.8947 279.003 87.4689 278.741 87.9615Z" fill="#263238"/>
<path d="M278.231 91.9615C278.26 92.2915 278.191 92.6226 278.033 92.9138C277.875 93.2049 277.635 93.4431 277.343 93.599C277.05 93.7548 276.719 93.8212 276.389 93.7901C276.059 93.759 275.746 93.6316 275.488 93.4239C275.23 93.2161 275.039 92.9371 274.938 92.6216C274.837 92.306 274.831 91.9678 274.921 91.649C275.011 91.3302 275.193 91.0448 275.443 90.8283C275.694 90.6119 276.003 90.4739 276.331 90.4315C276.557 90.4065 276.785 90.4263 277.002 90.4898C277.22 90.5533 277.423 90.6592 277.6 90.8014C277.776 90.9436 277.923 91.1193 278.031 91.3183C278.14 91.5174 278.208 91.736 278.231 91.9615Z" fill="#263238"/>
<path d="M270.151 91.0814L271.191 101.181L276.391 99.1214L270.151 91.0814Z" fill="#F28F8F"/>
<path d="M266.072 114.902C261.732 114.662 252.692 112.801 251.072 109.411C251.755 111.14 252.957 112.614 254.512 113.632C257.322 115.702 266.242 117.572 266.242 117.572L266.072 114.902Z" fill="#F28F8F"/>
<path d="M275.132 66.1814C259.222 67.6714 236.572 79.7414 234.842 94.0914C235.352 95.5714 229.732 81.4914 229.732 81.4914C234.472 74.7614 252.572 60.5714 266.632 58.9014L275.132 66.1814Z" fill="#455A64"/>
<path d="M219.052 191.101C220.038 192.721 221.12 194.28 222.292 195.771C223.22 197.1 224.604 198.04 226.182 198.411C229.426 198.835 232.619 199.585 235.712 200.651C238.432 201.511 240.152 201.281 240.242 201.981C240.352 202.881 239.872 203.911 237.412 204.441C235.604 204.654 233.779 204.654 231.972 204.441C234.132 206.999 236.644 209.237 239.432 211.091C244.942 214.711 246.802 217.461 241.072 220.941C236.882 223.481 229.602 222.811 219.522 213.401C214.683 208.678 210.297 203.512 206.422 197.971L219.052 191.101Z" fill="#FFA8A7"/>
<path d="M206.942 199.411C190.732 179.211 190.312 175.671 195.242 168.711C221.242 132.011 221.892 124.871 236.772 124.361C242.952 134.961 238.992 147.211 233.842 152.971L211.902 176.351C214.612 182.101 217.542 187.621 219.612 191.351C219.612 191.351 214.412 197.741 206.942 199.411Z" fill="#37474F"/>
<path d="M351.892 324.981C351.892 324.981 345.982 323.551 345.312 316.311C344.782 310.591 347.442 304.671 356.952 303.151C364.512 301.951 373.452 304.041 374.182 312.151C374.592 316.771 373.802 320.571 370.572 323.571L371.022 326.851C378.352 327.851 384.782 332.451 388.882 342.601C393.502 354.071 389.882 362.531 387.132 375.911C384.002 391.331 401.052 393.691 406.132 386.911C406.132 386.911 406.682 398.741 387.132 400.281C367.582 401.821 349.182 392.981 340.752 373.511C332.472 354.371 338.042 337.571 351.892 328.621V324.981Z" fill="#BA68C8"/>
<path opacity="0.1" d="M350.382 377.941C347.062 365.221 348.712 352.081 352.832 343.941C356.952 335.801 365.392 328.331 359.382 328.031C353.372 327.731 350.382 322.701 349.232 318.741C348.082 314.781 351.172 310.821 354.442 310.911C357.712 311.001 361.642 310.291 362.892 307.971L361.172 302.871C359.759 302.859 358.347 302.962 356.952 303.181C347.442 304.701 344.782 310.621 345.312 316.341C345.982 323.581 351.892 325.011 351.892 325.011V328.591C338.042 337.541 332.472 354.341 340.752 373.481C349.182 392.951 367.592 401.801 387.132 400.251C389.888 400.068 392.613 399.561 395.252 398.741C374.872 401.531 353.742 390.661 350.382 377.941Z" fill="black"/>
<g opacity="0.15">
<path opacity="0.15" d="M366.232 309.671C366.012 309.491 365.922 309.901 366.042 310.051C367.383 311.777 368.202 313.849 368.404 316.025C368.606 318.201 368.182 320.389 367.182 322.331C366.733 323.163 366.175 323.93 365.522 324.611C365.534 324.56 365.55 324.51 365.572 324.461C366.171 322.631 366.342 320.688 366.072 318.781C366.072 318.651 365.872 318.521 365.832 318.711C365.575 320.477 365.218 322.227 364.762 323.951C364.512 324.785 364.134 325.574 363.642 326.291C363.416 326.629 363.147 326.935 362.842 327.201C362.592 327.431 362.032 327.631 361.922 327.961C361.913 328.032 361.92 328.104 361.941 328.173C361.962 328.241 361.998 328.304 362.045 328.358C362.092 328.412 362.15 328.455 362.215 328.485C362.28 328.515 362.35 328.531 362.422 328.531C362.869 328.449 363.274 328.216 363.572 327.871C363.885 327.586 364.167 327.268 364.412 326.921C364.552 326.721 364.672 326.521 364.792 326.311C364.853 326.344 364.922 326.361 364.992 326.361C365.061 326.361 365.13 326.344 365.192 326.311C367.892 324.641 369.292 321.151 369.532 318.111C369.702 316.543 369.49 314.956 368.916 313.487C368.341 312.018 367.42 310.709 366.232 309.671Z" fill="black"/>
<path opacity="0.15" d="M360.652 327.741C360.305 327.462 359.933 327.214 359.542 327.001C359.295 326.811 359.061 326.604 358.842 326.381C358.38 325.938 358.009 325.408 357.752 324.821C357.138 323.314 356.835 321.699 356.862 320.071C356.876 320.012 356.876 319.951 356.862 319.891C356.853 319.862 356.834 319.838 356.808 319.821C356.782 319.805 356.752 319.798 356.722 319.801C356.652 319.801 356.612 319.891 356.592 319.961C356.051 321.886 356.232 323.942 357.102 325.741C356.59 325.513 356.098 325.242 355.632 324.931C354.373 323.914 353.432 322.557 352.922 321.021C352.434 319.657 352.24 318.206 352.352 316.761C352.4 316.029 352.514 315.303 352.692 314.591C352.752 314.341 353.312 313.131 353.082 312.991C352.852 312.851 352.222 313.841 352.082 314.061C351.803 314.654 351.598 315.279 351.472 315.921C351.156 317.599 351.228 319.326 351.682 320.971C352.161 322.547 353.011 323.984 354.162 325.161C354.747 325.716 355.424 326.166 356.162 326.491L357.252 327.041L357.802 327.321C357.985 327.382 358.162 327.459 358.332 327.551C358.492 327.661 358.592 327.601 358.632 327.491C359.152 327.984 359.835 328.269 360.552 328.291C360.932 328.311 360.742 327.881 360.652 327.741Z" fill="black"/>
<path opacity="0.15" d="M358.542 328.511C358.282 329.221 358.142 329.971 357.912 330.691C357.655 331.476 357.258 332.208 356.742 332.851C355.742 334.151 354.622 335.351 353.612 336.661C351.651 339.205 349.918 341.915 348.432 344.761C345.714 349.781 344.211 355.366 344.042 361.071C343.852 363.945 344.465 366.816 345.812 369.361C345.902 369.501 345.992 369.271 345.942 369.181C344.702 366.941 344.622 364.181 344.692 361.681C344.777 359.177 345.136 356.688 345.762 354.261C347.458 348.2 350.344 342.536 354.252 337.601C355.352 336.171 356.582 334.851 357.682 333.421C358.182 332.795 358.586 332.097 358.882 331.351C359.172 330.531 359.322 329.661 359.612 328.841C359.822 328.271 358.742 327.931 358.542 328.511Z" fill="black"/>
<path opacity="0.15" d="M366.342 389.821C365.26 388.231 363.98 386.786 362.532 385.521C361.052 383.967 359.787 382.222 358.772 380.331C356.532 376.394 355.046 372.074 354.392 367.591C353.282 358.861 355.592 349.781 359.002 341.791C359.932 339.611 361.002 337.491 362.002 335.351C363.085 333.409 363.611 331.204 363.522 328.981C363.522 328.691 363.012 328.481 362.962 328.861C362.609 331.024 361.9 333.112 360.862 335.041C359.862 336.961 358.932 338.881 358.052 340.851C356.225 344.902 354.837 349.136 353.912 353.481C352.946 357.743 352.642 362.128 353.012 366.481C353.537 370.742 354.845 374.868 356.872 378.651C357.979 380.839 359.353 382.881 360.962 384.731C362.612 386.591 364.672 388.061 366.192 390.051C366.312 390.251 366.412 389.931 366.342 389.821Z" fill="black"/>
<path opacity="0.15" d="M381.132 345.001C379.173 340.026 376.204 335.511 372.412 331.741C371.638 330.883 370.82 330.065 369.962 329.291C369.59 328.893 369.139 328.576 368.638 328.361C368.137 328.146 367.597 328.037 367.052 328.041C366.862 328.041 366.952 328.491 367.122 328.491C367.655 328.565 368.167 328.749 368.625 329.031C369.083 329.313 369.477 329.688 369.782 330.131C370.462 330.881 371.112 331.661 371.782 332.411C373.568 334.33 375.2 336.386 376.662 338.561C379.333 342.555 381.076 347.096 381.762 351.851C382.142 355.068 382.202 358.313 381.942 361.541C381.942 361.661 382.072 361.731 382.092 361.541C383.032 355.991 383.092 350.361 381.132 345.001Z" fill="black"/>
</g>
<path d="M355.242 307.831C343.612 204.191 367.292 97.9514 367.532 96.8914C367.774 95.8173 368.434 94.8835 369.365 94.2956C370.296 93.7077 371.422 93.5137 372.497 93.7564C373.571 93.9991 374.504 94.6585 375.092 95.5896C375.68 96.5207 375.874 97.6473 375.632 98.7214C375.392 99.7214 352.022 204.721 363.492 306.911C363.632 308.311 362.132 309.241 359.662 309.551C357.742 309.801 355.362 309.181 355.242 307.831Z" fill="#455A64"/>
<path d="M351.892 324.981C356.822 326.981 363.962 326.981 370.572 323.541L371.022 326.821C371.022 326.821 370.892 329.761 361.962 330.681C354.322 331.471 351.892 328.561 351.892 328.561V324.981Z" fill="#455A64"/>
<path opacity="0.1" d="M387.132 375.881C387.642 373.361 388.182 371.021 388.702 368.801C385.912 380.641 380.052 383.401 381.402 388.271C383.042 394.131 399.812 395.861 406.122 386.851C401.052 393.661 384.002 391.301 387.132 375.881Z" fill="black"/>
<path d="M355.042 182.521C355.042 182.521 362.042 179.841 361.942 176.521C361.842 173.201 359.322 176.521 353.942 176.521C348.942 176.521 345.122 177.321 342.582 176.581" fill="#FFA8A7"/>
</svg>
